<?xml version="1.0" encoding="UTF-8"?><svg id="_レイヤー_1" xmlns="http://www.w3.org/2000/svg" xmlns:xlink="http://www.w3.org/1999/xlink" viewBox="0 0 1366 768"><defs><style>.cls-1,.cls-2,.cls-3,.cls-4,.cls-5,.cls-6,.cls-7,.cls-8{fill:none;}.cls-9{clip-path:url(#clippath);}.cls-10{fill:#ea6390;}.cls-11{fill:#fff;}.cls-12{fill:#69c2ee;}.cls-13{fill:#231815;}.cls-14{clip-path:url(#clippath-7);}.cls-15{clip-path:url(#clippath-6);}.cls-2,.cls-3,.cls-4,.cls-5,.cls-6,.cls-7,.cls-8{stroke-miterlimit:10;}.cls-2,.cls-7{stroke:#231815;}.cls-3,.cls-4,.cls-8{stroke:#fff;}.cls-4,.cls-5,.cls-6{stroke-width:9px;}.cls-5{stroke:#ea6390;}.cls-6{stroke:#00a0e9;}.cls-7,.cls-8{stroke-width:.5px;}</style><clipPath id="clippath"><rect class="cls-1" x="253.55" y="77.86" width="858.9" height="612.28"/></clipPath><clipPath id="clippath-1"><rect class="cls-1" x="253.55" y="77.86" width="858.9" height="612.28"/></clipPath><clipPath id="clippath-6"><rect class="cls-1" x="253.55" y="77.86" width="858.9" height="612.28"/></clipPath><clipPath id="clippath-7"><rect class="cls-1" x="253.55" y="77.86" width="858.9" height="612.28"/></clipPath></defs><g class="cls-9"><g class="cls-15"><path class="cls-4" d="M688.05,586.12c-34.92,0-90.44-2.09-156.65-12.04-85.01-12.78-139.78-40.8-170.76-62.06-34.23-23.49-48.02-44.16-48.59-45.03-1.17-1.79-28.14-43.82-12.32-85.89,10.93-29.07,39.06-50.13,83.63-62.6,28.58-8,56.02-12.05,81.57-12.05,29.49,0,45.93,5.54,46.61,5.78l30.81,10.61-31.46,8.5c-19.14,5.19-74.57,25.95-78.02,52.33-1.99,15.18,14.01,33.11,46.26,51.84,3.62,1.71,43.06,19.79,88.32,19.79,32.84,0,60.86-9.4,83.28-27.94l2.69-2.23,3.51-.07s.29,0,.84,0c9.42,0,92.99,1.59,124.76,56.67,10.98,19.04,13.22,37.23,6.65,54.05-13.24,33.9-58.05,48.26-59.95,48.85l-1.1,.34-1.15,.08c-.58,.04-14.56,1.05-38.92,1.05Z"/><path class="cls-6" d="M508.27,321.68s-167.51,45.26-33.83,122.67c0,0,107.55,52.8,182.64-9.29,0,0,86.14-1.45,116.77,51.67,35.89,62.24-47.62,88.36-47.62,88.36,0,0-81.1,5.96-193.35-10.91-160.93-24.19-212.48-102.69-212.48-102.69,0,0-63.53-97.22,65.64-133.37,77.77-21.76,122.23-6.45,122.23-6.45Z"/><path class="cls-4" d="M897.45,474.82c-31.68,0-49.47-5.32-50.21-5.54l.96-19.37c27.36-5.49,68.8-20.9,70.85-36.54,.63-4.8-2.42-18.17-44.09-38.8-3.45-1.41-43.84-17.49-88.66-17.49-29,0-53.61,6.65-73.15,19.76l-2.57,1.73-3.1-.03c-3.51-.04-86.4-1.39-119.02-46.82-10.79-15.02-13.69-29.47-8.64-42.96,10.58-28.26,52.44-38.86,57.18-39.98l.95-.22,.98-.04c.22,0,5.58-.2,15.38-.2,29.68,0,91.04,1.7,168.5,13.11,153.96,22.67,206.34,85.27,208.5,87.93,1.12,1.38,26.91,33.85,15.08,66.97-8.82,24.69-35.54,41.83-79.41,50.96-24.11,5.01-47.5,7.56-69.53,7.56Z"/><path class="cls-5" d="M850.17,459.71s156.44-31.28,28.94-94.26c0,0-102.36-43.33-171.52,3.08,0,0-80.96-.82-111-42.65-35.2-49.03,42.71-67.38,42.71-67.38,0,0,76.12-2.79,182.05,12.81,151.88,22.36,202.19,84.34,202.19,84.34,0,0,62.01,76.74-58.6,101.83-72.62,15.11-114.78,2.24-114.78,2.24Z"/><path class="cls-11" d="M892.61,559.86c-8,0-15.22-2.79-21.44-8.29l-.14-.13c-6.47-5.94-9.96-13.92-10.38-23.72l-3.95-92.91c-.54-12.7,4.3-20.22,9.51-24.61,2.95-7.69,10.52-17.37,29.88-18.19,.74-.03,1.46-.05,2.16-.05,8.43,0,15.38,2.22,20.65,6.59,.4,.33,.79,.67,1.17,1.01,9.21-6.09,20.95-9.47,35.08-10.07,1.99-.08,3.98-.13,5.89-.13,21.53,0,38.42,5.45,50.19,16.19,11.91,10.87,18.39,26.91,19.27,47.68l2.44,57.33c.43,10.04-2.76,18.66-9.21,24.94l-.14,.14c-.19,.18-.38,.35-.57,.52-1.56,3.78-3.82,7.12-6.75,9.98l-.15,.14c-6.22,5.8-13.77,8.94-22.46,9.3-.64,.03-1.28,.04-1.91,.04-8.27,0-15.58-2.33-21.73-6.93-7.88-5.68-12.27-14.18-12.72-24.6l-2.21-51.89c-.17-3.88-1-6.8-2.24-7.83-.34-.28-2.37-1.69-8.99-1.69-.7,0-1.43,.02-2.18,.05-2.96,.13-5.55,.62-7.75,1.46l2.12,49.99c.44,10.32-3,19.14-9.95,25.58-1.83,4.39-4.64,8.24-8.38,11.45l-.15,.12c-6.33,5.23-14.23,8.08-23.51,8.48-.49,.02-.97,.03-1.45,.03"/><path class="cls-3" d="M892.61,559.86c-8,0-15.22-2.79-21.44-8.29l-.14-.13c-6.47-5.94-9.96-13.92-10.38-23.72l-3.95-92.91c-.54-12.7,4.3-20.22,9.51-24.61,2.95-7.69,10.52-17.37,29.88-18.19,.74-.03,1.46-.05,2.16-.05,8.43,0,15.38,2.22,20.65,6.59,.4,.33,.79,.67,1.17,1.01,9.21-6.09,20.95-9.47,35.08-10.07,1.99-.08,3.98-.13,5.89-.13,21.53,0,38.42,5.45,50.19,16.19,11.91,10.87,18.39,26.91,19.27,47.68l2.44,57.33c.43,10.04-2.76,18.66-9.21,24.94l-.14,.14c-.19,.18-.38,.35-.57,.52-1.56,3.78-3.82,7.12-6.75,9.98l-.15,.14c-6.22,5.8-13.77,8.94-22.46,9.3-.64,.03-1.28,.04-1.91,.04-8.27,0-15.58-2.33-21.73-6.93-7.88-5.68-12.27-14.18-12.72-24.6l-2.21-51.89c-.17-3.88-1-6.8-2.24-7.83-.34-.28-2.37-1.69-8.99-1.69-.7,0-1.43,.02-2.18,.05-2.96,.13-5.55,.62-7.75,1.46l2.12,49.99c.44,10.32-3,19.14-9.95,25.58-1.83,4.39-4.64,8.24-8.38,11.45l-.15,.12c-6.33,5.23-14.23,8.08-23.51,8.48-.49,.02-.97,.03-1.45,.03Z"/><path class="cls-10" d="M1022.94,511l-2.44-57.33c-1.61-37.89-23.26-55.95-64.93-54.18-17.3,.73-30.03,5.98-38.2,15.73-.15-3.46-1.76-6.44-4.84-8.95-3.77-3.14-9.1-4.56-16.03-4.27-12.42,.53-19.66,5.31-21.74,14.32-5.74,3.52-8.44,9.54-8.08,18.06l3.95,92.91c.3,7.09,2.68,12.67,7.15,16.78,4.63,4.09,9.91,6.02,15.84,5.76,7.08-.3,12.93-2.37,17.56-6.19,3.15-2.71,5.28-5.99,6.43-9.85,.35-.26,.71-.51,1.04-.79,5.25-4.52,7.72-10.64,7.39-18.39l-2.14-50.41c-.09-2.21,.08-4.25,.53-6.15,4.4-3.24,9.99-5.02,16.8-5.31,8.4-.36,14.4,.96,17.99,3.94,3.59,2.98,5.54,8.02,5.84,15.1l2.21,51.89c.32,7.41,3.19,13.07,8.64,16.96,4.77,3.59,10.54,5.25,17.29,4.96,6.26-.27,11.61-2.47,16.06-6.62,2.52-2.45,4.25-5.4,5.24-8.8,.76-.57,1.51-1.17,2.23-1.84,4.43-4.31,6.5-10.09,6.19-17.34"/><path class="cls-2" d="M1022.94,511l-2.44-57.33c-1.61-37.89-23.26-55.95-64.93-54.18-17.3,.73-30.03,5.98-38.2,15.73-.15-3.46-1.76-6.44-4.84-8.95-3.77-3.14-9.1-4.56-16.03-4.27-12.42,.53-19.66,5.31-21.74,14.32-5.74,3.52-8.44,9.54-8.08,18.06l3.95,92.91c.3,7.09,2.68,12.67,7.15,16.78,4.63,4.09,9.91,6.02,15.84,5.76,7.08-.3,12.93-2.37,17.56-6.19,3.15-2.71,5.28-5.99,6.43-9.85,.35-.26,.71-.51,1.04-.79,5.25-4.52,7.72-10.64,7.39-18.39l-2.14-50.41c-.09-2.21,.08-4.25,.53-6.15,4.4-3.24,9.99-5.02,16.8-5.31,8.4-.36,14.4,.96,17.99,3.94,3.59,2.98,5.54,8.02,5.84,15.1l2.21,51.89c.32,7.41,3.19,13.07,8.64,16.96,4.77,3.59,10.54,5.25,17.29,4.96,6.26-.27,11.61-2.47,16.06-6.62,2.52-2.45,4.25-5.4,5.24-8.8,.76-.57,1.51-1.17,2.23-1.84,4.43-4.31,6.5-10.09,6.19-17.34Z"/><path class="cls-11" d="M781.75,381.17c-.44-.81-.93-1.61-1.48-2.39-.6-.82-1.26-1.62-1.94-2.39l-8.11-9.12,2.55-1.49-2.38-2.68,4.15-2.43-.11-.12,2.45-1.24,14.91-8.71,.67,.8,4.38-2.23,5.13,5.73c1.07,1.2,2.09,2.46,3.02,3.74,1.05,1.48,1.95,2.93,2.74,4.41l4.62,8.69-1.85,1.02,1.67,3.15-16.95,9.36-8.64,4.86-4.83-8.96Z"/><path class="cls-8" d="M781.75,381.17c-.44-.81-.93-1.61-1.48-2.39-.6-.82-1.26-1.62-1.94-2.39l-8.11-9.12,2.55-1.49-2.38-2.68,4.15-2.43-.11-.12,2.45-1.24,14.91-8.71,.67,.8,4.38-2.23,5.13,5.73c1.07,1.2,2.09,2.46,3.02,3.74,1.05,1.48,1.95,2.93,2.74,4.41l4.62,8.69-1.85,1.02,1.67,3.15-16.95,9.36-8.64,4.86-4.83-8.96Z"/><path class="cls-11" d="M788.39,372.93c.8,1.13,1.52,2.3,2.16,3.49l3.66-2.06c-.55-1.03-1.22-2.02-1.95-2.98l1-.56c.69,.98,1.36,1.98,2.01,2.99l3.45-1.91c-.55-1.05-1.19-2.06-1.88-3.04l2.04-1.13c-.59-1.11-1.26-2.19-2-3.23-.73-1.01-1.53-2-2.38-2.95l-3.66,1.86c.85,.9,1.63,1.87,2.35,2.89l-1.04,.53s-.05-.07-.08-.11c-.83-1.12-1.68-2.21-2.55-3.25l-3.56,2.08c.78,.87,1.53,1.8,2.25,2.76l-2.42,1.41c.9,1.01,1.76,2.07,2.59,3.19"/><path class="cls-7" d="M788.39,372.93c.8,1.13,1.52,2.3,2.16,3.49l3.66-2.06c-.55-1.03-1.22-2.02-1.95-2.98l1-.56c.69,.98,1.36,1.98,2.01,2.99l3.45-1.91c-.55-1.05-1.19-2.06-1.88-3.04l2.04-1.13c-.59-1.11-1.26-2.19-2-3.23-.73-1.01-1.53-2-2.38-2.95l-3.66,1.86c.85,.9,1.63,1.87,2.35,2.89l-1.04,.53s-.05-.07-.08-.11c-.83-1.12-1.68-2.21-2.55-3.25l-3.56,2.08c.78,.87,1.53,1.8,2.25,2.76l-2.42,1.41c.9,1.01,1.76,2.07,2.59,3.19Z"/><path class="cls-11" d="M875.34,358.96c-.44-.82-.94-1.62-1.49-2.41-.62-.84-1.28-1.64-1.94-2.39l-8.11-9.12,2.55-1.49-2.38-2.68,4.16-2.43-.1-.11,2.29-1.17,15.05-8.79,.67,.8,4.37-2.22,5.13,5.72c1.07,1.19,2.09,2.45,3.03,3.74,1.05,1.47,1.95,2.93,2.74,4.41l4.63,8.7-1.85,1.02,1.68,3.15-16.75,9.24-8.83,4.96-4.84-8.93Z"/><path class="cls-8" d="M875.34,358.96c-.44-.82-.94-1.62-1.49-2.41-.62-.84-1.28-1.64-1.94-2.39l-8.11-9.12,2.55-1.49-2.38-2.68,4.16-2.43-.1-.11,2.29-1.17,15.05-8.79,.67,.8,4.37-2.22,5.13,5.72c1.07,1.19,2.09,2.45,3.03,3.74,1.05,1.47,1.95,2.93,2.74,4.41l4.63,8.7-1.85,1.02,1.68,3.15-16.75,9.24-8.83,4.96-4.84-8.93Z"/><path class="cls-11" d="M881.97,350.7c.79,1.13,1.52,2.3,2.16,3.49l3.66-2.06c-.56-1.03-1.22-2.02-1.95-2.98l1-.56c.69,.98,1.36,1.98,2.01,2.99l3.45-1.9c-.56-1.05-1.19-2.06-1.88-3.04l2.04-1.13c-.59-1.11-1.26-2.19-2-3.23-.73-1.01-1.53-2-2.38-2.95l-3.66,1.86c.85,.9,1.62,1.87,2.35,2.89l-1.04,.53s-.05-.07-.08-.11c-.83-1.12-1.68-2.2-2.55-3.25l-3.56,2.08c.78,.87,1.52,1.8,2.25,2.76l-2.42,1.41c.9,1.01,1.76,2.07,2.59,3.19"/><path class="cls-7" d="M881.97,350.7c.79,1.13,1.52,2.3,2.16,3.49l3.66-2.06c-.56-1.03-1.22-2.02-1.95-2.98l1-.56c.69,.98,1.36,1.98,2.01,2.99l3.45-1.9c-.56-1.05-1.19-2.06-1.88-3.04l2.04-1.13c-.59-1.11-1.26-2.19-2-3.23-.73-1.01-1.53-2-2.38-2.95l-3.66,1.86c.85,.9,1.62,1.87,2.35,2.89l-1.04,.53s-.05-.07-.08-.11c-.83-1.12-1.68-2.2-2.55-3.25l-3.56,2.08c.78,.87,1.52,1.8,2.25,2.76l-2.42,1.41c.9,1.01,1.76,2.07,2.59,3.19Z"/><path class="cls-11" d="M752.1,408.08l.57-4.02-.4-.14,1.14-8.16c.4-2.85,1.1-5.67,2.08-8.41,.67-1.89,1.48-3.74,2.42-5.51l-7.08-8.82,1.91-1.99-1.74-2.18,6.08-6.33c1.51-1.57,3.18-3.02,4.96-4.31l.08-.06c1.73-1.22,3.54-2.32,5.38-3.26,2.69-1.37,5.54-2.06,8.51-2.06,.97,0,1.97,.08,2.95,.23,3.9,.57,7.46,2.3,10.29,5,2.15,2.01,3.74,4.46,4.71,7.28,.67,1.96,.98,3.95,.94,5.95,1.4,1.16,2.61,2.52,3.61,4.07l.12,.19c1.15,1.87,1.99,3.89,2.49,6.01l.05,.24c.42,1.99,.62,4.04,.6,6.08v.28s-.02,.28-.02,.28c-.04,.6-.1,1.2-.19,1.8,.04,.62,.05,1.22,.04,1.81v.28s-.02,.28-.02,.28c-.14,2.19-.6,4.36-1.34,6.45-.78,2.33-1.86,4.58-3.23,6.68-1.35,2.07-2.96,3.95-4.79,5.63l-5.42,4.96-7.27-4.21-.68,5.24-26.76-9.25Z"/><path class="cls-8" d="M752.1,408.08l.57-4.02-.4-.14,1.14-8.16c.4-2.85,1.1-5.67,2.08-8.41,.67-1.89,1.48-3.74,2.42-5.51l-7.08-8.82,1.91-1.99-1.74-2.18,6.08-6.33c1.51-1.57,3.18-3.02,4.96-4.31l.08-.06c1.73-1.22,3.54-2.32,5.38-3.26,2.69-1.37,5.54-2.06,8.51-2.06,.97,0,1.97,.08,2.95,.23,3.9,.57,7.46,2.3,10.29,5,2.15,2.01,3.74,4.46,4.71,7.28,.67,1.96,.98,3.95,.94,5.95,1.4,1.16,2.61,2.52,3.61,4.07l.12,.19c1.15,1.87,1.99,3.89,2.49,6.01l.05,.24c.42,1.99,.62,4.04,.6,6.08v.28s-.02,.28-.02,.28c-.04,.6-.1,1.2-.19,1.8,.04,.62,.05,1.22,.04,1.81v.28s-.02,.28-.02,.28c-.14,2.19-.6,4.36-1.34,6.45-.78,2.33-1.86,4.58-3.23,6.68-1.35,2.07-2.96,3.95-4.79,5.63l-5.42,4.96-7.27-4.21-.68,5.24-26.76-9.25Z"/><path class="cls-11" d="M791.4,383.85c-.26-1.09-.68-2.11-1.27-3.06-.63-.97-1.43-1.77-2.4-2.39-.83-.56-1.74-.95-2.75-1.17-.17-.04-.34-.06-.5-.08,.05-.19,.09-.39,.12-.59,.21-1.05,.18-2.1-.07-3.13,.1-.33,.18-.68,.24-1.04,.26-1.28,.17-2.55-.26-3.8-.44-1.28-1.14-2.36-2.11-3.25-1.37-1.32-3.01-2.12-4.92-2.39-1.92-.3-3.73-.02-5.43,.85-1.44,.74-2.83,1.58-4.15,2.52-1.3,.94-2.5,1.98-3.61,3.13l1.84,2.3c-.7,.59-1.37,1.21-2.01,1.87l4.63,5.77c.61-.64,1.24-1.23,1.9-1.79,.63-.55,1.31-1.07,2.05-1.57,.34-.21,.68-.41,1-.58,.32-.17,.66-.32,1.03-.44,.17-.06,.34-.07,.5-.05-.3,.39-.61,.77-.97,1.12-.96,.95-2.06,1.73-3.3,2.32l1.57,3.16c-.54,.38-1.12,.71-1.73,1.01l2.13,4.3-5.15-2.13c-1.17,1.89-2.12,3.9-2.87,6.02-.76,2.09-1.29,4.23-1.59,6.41l.65,.23c-.35,1.3-.63,2.61-.82,3.94l7.38,2.55c.28-2.15,.72-4.26,1.31-6.34,.64-2,1.47-3.96,2.46-5.87l-1.45-.6c.31-.78,.64-1.56,1.01-2.33l.84,1.7c.49-.58,1.05-1.07,1.67-1.48,.62-.44,1.27-.82,1.96-1.11,.64-.22,1.29-.26,1.95-.11,.66,.14,1.24,.45,1.75,.92,.18,.17,.32,.37,.45,.58-.4,.93-.88,1.81-1.44,2.65-.85,1.29-1.85,2.47-3.02,3.53l2.34,1.36c-.74,1.01-1.57,1.95-2.51,2.81l7.62,4.42c1.22-1.11,2.27-2.35,3.17-3.72,.92-1.4,1.64-2.89,2.15-4.46,.46-1.26,.73-2.55,.82-3.85,0-.73-.04-1.45-.12-2.17,.14-.66,.24-1.33,.28-2,.01-1.32-.11-2.63-.39-3.91"/><path class="cls-7" d="M791.4,383.85c-.26-1.09-.68-2.11-1.27-3.06-.63-.97-1.43-1.77-2.4-2.39-.83-.56-1.74-.95-2.75-1.17-.17-.04-.34-.06-.5-.08,.05-.19,.09-.39,.12-.59,.21-1.05,.18-2.1-.07-3.13,.1-.33,.18-.68,.24-1.04,.26-1.28,.17-2.55-.26-3.8-.44-1.28-1.14-2.36-2.11-3.25-1.37-1.32-3.01-2.12-4.92-2.39-1.92-.3-3.73-.02-5.43,.85-1.44,.74-2.83,1.58-4.15,2.52-1.3,.94-2.5,1.98-3.61,3.13l1.84,2.3c-.7,.59-1.37,1.21-2.01,1.87l4.63,5.77c.61-.64,1.24-1.23,1.9-1.79,.63-.55,1.31-1.07,2.05-1.57,.34-.21,.68-.41,1-.58,.32-.17,.66-.32,1.03-.44,.17-.06,.34-.07,.5-.05-.3,.39-.61,.77-.97,1.12-.96,.95-2.06,1.73-3.3,2.32l1.57,3.16c-.54,.38-1.12,.71-1.73,1.01l2.13,4.3-5.15-2.13c-1.17,1.89-2.12,3.9-2.87,6.02-.76,2.09-1.29,4.23-1.59,6.41l.65,.23c-.35,1.3-.63,2.61-.82,3.94l7.38,2.55c.28-2.15,.72-4.26,1.31-6.34,.64-2,1.47-3.96,2.46-5.87l-1.45-.6c.31-.78,.64-1.56,1.01-2.33l.84,1.7c.49-.58,1.05-1.07,1.67-1.48,.62-.44,1.27-.82,1.96-1.11,.64-.22,1.29-.26,1.95-.11,.66,.14,1.24,.45,1.75,.92,.18,.17,.32,.37,.45,.58-.4,.93-.88,1.81-1.44,2.65-.85,1.29-1.85,2.47-3.02,3.53l2.34,1.36c-.74,1.01-1.57,1.95-2.51,2.81l7.62,4.42c1.22-1.11,2.27-2.35,3.17-3.72,.92-1.4,1.64-2.89,2.15-4.46,.46-1.26,.73-2.55,.82-3.85,0-.73-.04-1.45-.12-2.17,.14-.66,.24-1.33,.28-2,.01-1.32-.11-2.63-.39-3.91Z"/><path class="cls-11" d="M790.53,400.23c-.62-1.2-1.37-2.37-2.24-3.47l-.13-.16-.12-.16c-.96-1.32-2-2.58-3.1-3.73l-8.53-8.97,2.61-1.6-2.45-2.57,23.13-14.14,5.57,5.6c1.83,1.84,3.5,3.86,4.96,6,1.45,2.08,2.74,4.31,3.83,6.63l3.7,7.86-1.63,1.07,1.46,3.1-22,14.43-5.08-9.9Z"/><path class="cls-8" d="M790.53,400.23c-.62-1.2-1.37-2.37-2.24-3.47l-.13-.16-.12-.16c-.96-1.32-2-2.58-3.1-3.73l-8.53-8.97,2.61-1.6-2.45-2.57,23.13-14.14,5.57,5.6c1.83,1.84,3.5,3.86,4.96,6,1.45,2.08,2.74,4.31,3.83,6.63l3.7,7.86-1.63,1.07,1.46,3.1-22,14.43-5.08-9.9Z"/><path class="cls-11" d="M802,382.72c-1.12-1.65-2.39-3.19-3.82-4.63l-5.83,3.56c.8,.85,1.57,1.74,2.32,2.65l-2.48,1.52c1.41,1.48,2.72,3.06,3.95,4.75,1.27,1.61,2.37,3.31,3.29,5.1l5.43-3.56c-.49-1.04-1.03-2.03-1.61-3l1.78-1.17c-.86-1.84-1.87-3.58-3.02-5.21"/><path class="cls-7" d="M802,382.72c-1.12-1.65-2.39-3.19-3.82-4.63l-5.83,3.56c.8,.85,1.57,1.74,2.32,2.65l-2.48,1.52c1.41,1.48,2.72,3.06,3.95,4.75,1.27,1.61,2.37,3.31,3.29,5.1l5.43-3.56c-.49-1.04-1.03-2.03-1.61-3l1.78-1.17c-.86-1.84-1.87-3.58-3.02-5.21Z"/><path class="cls-11" d="M803.76,402.58l-.38-8.75c-.14-3.27-.11-6.59,.1-9.88,.09-5.07,.6-10.14,1.51-15.08,1.23-6.84,3.24-13.58,5.98-19.99l3.01-7.05,29.46,4.17-1.67,3.96,1.51,.21-3.83,9.06,18.25-.68,.6,9.74c.13,2.13,.09,4.29-.12,6.42,.01,1.62-.05,3.11-.21,4.54l-.04,.31c-.31,2.26-.83,4.51-1.54,6.69l-.06,.19-.07,.19c-.65,1.75-1.53,3.42-2.62,4.98-1.15,1.68-2.54,3.17-4.14,4.43l-.11,.09c-2.67,2.06-5.7,3.26-8.99,3.59-.55,.06-1.16,.09-1.77,.09-2.32,0-4.56-.46-6.69-1.36l-.03,2.41h-.12s-.05,4.19-.05,4.19l-27.97-2.48Z"/><path class="cls-8" d="M803.76,402.58l-.38-8.75c-.14-3.27-.11-6.59,.1-9.88,.09-5.07,.6-10.14,1.51-15.08,1.23-6.84,3.24-13.58,5.98-19.99l3.01-7.05,29.46,4.17-1.67,3.96,1.51,.21-3.83,9.06,18.25-.68,.6,9.74c.13,2.13,.09,4.29-.12,6.42,.01,1.62-.05,3.11-.21,4.54l-.04,.31c-.31,2.26-.83,4.51-1.54,6.69l-.06,.19-.07,.19c-.65,1.75-1.53,3.42-2.62,4.98-1.15,1.68-2.54,3.17-4.14,4.43l-.11,.09c-2.67,2.06-5.7,3.26-8.99,3.59-.55,.06-1.16,.09-1.77,.09-2.32,0-4.56-.46-6.69-1.36l-.03,2.41h-.12s-.05,4.19-.05,4.19l-27.97-2.48Z"/><path class="cls-11" d="M840.42,369.2c.13,.96,.15,1.89,.07,2.8-.05,.45-.12,.91-.2,1.37h-.04s0,.09,.01,.14c-.07,.42-.16,.85-.25,1.27-.13,.3-.33,.57-.59,.83-.2,.25-.47,.43-.81,.54-.32,.08-.64,.07-.99,0-.31-.06-.6-.17-.87-.34-1.04-.91-2.01-1.86-2.91-2.87-.9-1.01-1.72-2.08-2.45-3.23-.65-1.07-1.56-1.87-2.75-2.41-.85-.43-1.74-.66-2.66-.69,.22-.73,.43-1.45,.67-2.17,.7-2.07,1.47-4.14,2.34-6.19l-1.38-.2c.49-1.33,.99-2.65,1.55-3.97l-9-1.27c-2.46,5.76-4.23,11.72-5.34,17.88-.83,4.51-1.28,9.07-1.35,13.67-.2,3-.23,6.01-.1,9.05l8.48,.75c.02-1.39,.06-2.78,.12-4.17h.05c0-.53,.03-1.06,.04-1.59,.03-.46,.04-.92,.07-1.38,.2-2.35,.48-4.69,.85-7.02,.61-.34,1.27-.42,1.98-.22,.7,.16,1.24,.53,1.64,1.09,1.1,1.72,2.37,3.26,3.82,4.63,1.44,1.34,3.03,2.49,4.78,3.46,1.32,.71,2.72,.99,4.2,.83,1.41-.14,2.71-.66,3.88-1.56,.83-.66,1.54-1.42,2.13-2.29,.61-.87,1.1-1.8,1.47-2.77,.53-1.64,.91-3.3,1.14-4.97,.14-1.34,.17-2.67,.14-3.99,0-.06,.02-.12,.03-.18,.18-1.72,.22-3.43,.12-5.12l-7.89,.29Z"/><path class="cls-7" d="M840.42,369.2c.13,.96,.15,1.89,.07,2.8-.05,.45-.12,.91-.2,1.37h-.04s0,.09,.01,.14c-.07,.42-.16,.85-.25,1.27-.13,.3-.33,.57-.59,.83-.2,.25-.47,.43-.81,.54-.32,.08-.64,.07-.99,0-.31-.06-.6-.17-.87-.34-1.04-.91-2.01-1.86-2.91-2.87-.9-1.01-1.72-2.08-2.45-3.23-.65-1.07-1.56-1.87-2.75-2.41-.85-.43-1.74-.66-2.66-.69,.22-.73,.43-1.45,.67-2.17,.7-2.07,1.47-4.14,2.34-6.19l-1.38-.2c.49-1.33,.99-2.65,1.55-3.97l-9-1.27c-2.46,5.76-4.23,11.72-5.34,17.88-.83,4.51-1.28,9.07-1.35,13.67-.2,3-.23,6.01-.1,9.05l8.48,.75c.02-1.39,.06-2.78,.12-4.17h.05c0-.53,.03-1.06,.04-1.59,.03-.46,.04-.92,.07-1.38,.2-2.35,.48-4.69,.85-7.02,.61-.34,1.27-.42,1.98-.22,.7,.16,1.24,.53,1.64,1.09,1.1,1.72,2.37,3.26,3.82,4.63,1.44,1.34,3.03,2.49,4.78,3.46,1.32,.71,2.72,.99,4.2,.83,1.41-.14,2.71-.66,3.88-1.56,.83-.66,1.54-1.42,2.13-2.29,.61-.87,1.1-1.8,1.47-2.77,.53-1.64,.91-3.3,1.14-4.97,.14-1.34,.17-2.67,.14-3.99,0-.06,.02-.12,.03-.18,.18-1.72,.22-3.43,.12-5.12l-7.89,.29Z"/><path class="cls-11" d="M884.11,378c-.62-1.2-1.37-2.37-2.23-3.46l-.13-.16-.12-.17c-.96-1.33-2.01-2.58-3.1-3.73l-8.54-8.97,2.62-1.6-2.45-2.57,23.13-14.14,5.57,5.6c1.83,1.84,3.49,3.86,4.96,6,1.45,2.07,2.73,4.3,3.83,6.63l3.7,7.86-1.63,1.07,1.46,3.1-22,14.44-5.08-9.91Z"/><path class="cls-8" d="M884.11,378c-.62-1.2-1.37-2.37-2.23-3.46l-.13-.16-.12-.17c-.96-1.33-2.01-2.58-3.1-3.73l-8.54-8.97,2.62-1.6-2.45-2.57,23.13-14.14,5.57,5.6c1.83,1.84,3.49,3.86,4.96,6,1.45,2.07,2.73,4.3,3.83,6.63l3.7,7.86-1.63,1.07,1.46,3.1-22,14.44-5.08-9.91Z"/><path class="cls-11" d="M895.59,360.49c-1.12-1.64-2.39-3.19-3.82-4.63l-5.83,3.56c.8,.85,1.57,1.74,2.32,2.65l-2.48,1.52c1.41,1.48,2.72,3.06,3.95,4.75,1.27,1.61,2.37,3.31,3.29,5.1l5.43-3.57c-.49-1.03-1.03-2.03-1.61-3l1.78-1.17c-.86-1.84-1.87-3.58-3.02-5.21"/><path class="cls-7" d="M895.59,360.49c-1.12-1.64-2.39-3.19-3.82-4.63l-5.83,3.56c.8,.85,1.57,1.74,2.32,2.65l-2.48,1.52c1.41,1.48,2.72,3.06,3.95,4.75,1.27,1.61,2.37,3.31,3.29,5.1l5.43-3.57c-.49-1.03-1.03-2.03-1.61-3l1.78-1.17c-.86-1.84-1.87-3.58-3.02-5.21Z"/><path class="cls-11" d="M845.69,385.85l.56-4.03-.39-.14,1.14-8.15c.4-2.85,1.1-5.68,2.09-8.41,.66-1.88,1.47-3.73,2.41-5.51l-7.07-8.81,1.91-2-1.74-2.17,6.06-6.33c1.5-1.57,3.17-3.02,4.97-4.32,1.79-1.27,3.6-2.36,5.45-3.31,2.69-1.37,5.55-2.06,8.52-2.06,.98,0,1.97,.08,2.96,.23,3.9,.57,7.45,2.3,10.29,5,2.16,2.01,3.74,4.46,4.71,7.29,.67,1.97,.98,3.96,.94,5.95,1.4,1.16,2.61,2.53,3.61,4.08l.11,.18c1.15,1.86,1.99,3.88,2.49,6.01l.05,.21c.43,1.99,.63,4.05,.61,6.11v.28s-.02,.28-.02,.28c-.04,.6-.1,1.2-.19,1.8,.04,.62,.05,1.22,.04,1.81v.28s-.02,.28-.02,.28c-.15,2.19-.6,4.36-1.34,6.45-.78,2.34-1.87,4.58-3.23,6.68-1.36,2.07-2.97,3.96-4.8,5.63l-5.41,4.95-7.27-4.21-.68,5.24-26.76-9.25Z"/><path class="cls-8" d="M845.69,385.85l.56-4.03-.39-.14,1.14-8.15c.4-2.85,1.1-5.68,2.09-8.41,.66-1.88,1.47-3.73,2.41-5.51l-7.07-8.81,1.91-2-1.74-2.17,6.06-6.33c1.5-1.57,3.17-3.02,4.97-4.32,1.79-1.27,3.6-2.36,5.45-3.31,2.69-1.37,5.55-2.06,8.52-2.06,.98,0,1.97,.08,2.96,.23,3.9,.57,7.45,2.3,10.29,5,2.16,2.01,3.74,4.46,4.71,7.29,.67,1.97,.98,3.96,.94,5.95,1.4,1.16,2.61,2.53,3.61,4.08l.11,.18c1.15,1.86,1.99,3.88,2.49,6.01l.05,.21c.43,1.99,.63,4.05,.61,6.11v.28s-.02,.28-.02,.28c-.04,.6-.1,1.2-.19,1.8,.04,.62,.05,1.22,.04,1.81v.28s-.02,.28-.02,.28c-.15,2.19-.6,4.36-1.34,6.45-.78,2.34-1.87,4.58-3.23,6.68-1.36,2.07-2.97,3.96-4.8,5.63l-5.41,4.95-7.27-4.21-.68,5.24-26.76-9.25Z"/><path class="cls-11" d="M884.98,361.62c-.26-1.09-.68-2.11-1.27-3.06-.63-.97-1.43-1.77-2.4-2.4-.83-.56-1.74-.95-2.75-1.17-.17-.04-.33-.06-.5-.08,.04-.19,.09-.39,.12-.59,.21-1.05,.18-2.1-.07-3.13,.1-.34,.18-.68,.24-1.04,.26-1.28,.17-2.55-.25-3.8-.44-1.28-1.14-2.36-2.11-3.25-1.37-1.32-3.01-2.12-4.92-2.39-1.92-.3-3.73-.02-5.43,.85-1.44,.74-2.83,1.58-4.15,2.52-1.3,.94-2.5,1.98-3.61,3.13l1.84,2.3c-.7,.59-1.38,1.21-2.01,1.87l4.63,5.77c.61-.64,1.24-1.23,1.9-1.79,.63-.55,1.32-1.07,2.05-1.57,.35-.21,.68-.41,1-.59,.32-.17,.66-.32,1.03-.44,.17-.06,.34-.07,.5-.05-.3,.39-.61,.77-.97,1.12-.96,.95-2.06,1.72-3.3,2.32l1.57,3.16c-.54,.38-1.12,.71-1.73,1.01l2.13,4.3-5.15-2.13c-1.17,1.89-2.12,3.9-2.87,6.02-.76,2.09-1.29,4.23-1.59,6.41l.65,.23c-.35,1.3-.64,2.61-.82,3.94l7.38,2.55c.28-2.14,.72-4.25,1.31-6.34,.64-2,1.47-3.96,2.46-5.87l-1.45-.6c.31-.78,.65-1.56,1.01-2.33l.84,1.7c.49-.58,1.05-1.07,1.67-1.48,.62-.44,1.27-.82,1.96-1.11,.64-.22,1.29-.26,1.95-.11,.66,.14,1.24,.45,1.75,.92,.18,.17,.32,.36,.45,.57-.4,.93-.88,1.81-1.44,2.65-.85,1.29-1.85,2.47-3.02,3.53l2.34,1.36c-.74,1.01-1.57,1.95-2.51,2.81l7.62,4.42c1.22-1.11,2.28-2.35,3.17-3.72,.92-1.41,1.64-2.89,2.15-4.47,.46-1.26,.73-2.54,.82-3.85,0-.73-.04-1.45-.12-2.17,.14-.66,.24-1.33,.28-2,.01-1.32-.11-2.63-.39-3.92"/><path class="cls-7" d="M884.98,361.62c-.26-1.09-.68-2.11-1.27-3.06-.63-.97-1.43-1.77-2.4-2.4-.83-.56-1.74-.95-2.75-1.17-.17-.04-.33-.06-.5-.08,.04-.19,.09-.39,.12-.59,.21-1.05,.18-2.1-.07-3.13,.1-.34,.18-.68,.24-1.04,.26-1.28,.17-2.55-.25-3.8-.44-1.28-1.14-2.36-2.11-3.25-1.37-1.32-3.01-2.12-4.92-2.39-1.92-.3-3.73-.02-5.43,.85-1.44,.74-2.83,1.58-4.15,2.52-1.3,.94-2.5,1.98-3.61,3.13l1.84,2.3c-.7,.59-1.38,1.21-2.01,1.87l4.63,5.77c.61-.64,1.24-1.23,1.9-1.79,.63-.55,1.32-1.07,2.05-1.57,.35-.21,.68-.41,1-.59,.32-.17,.66-.32,1.03-.44,.17-.06,.34-.07,.5-.05-.3,.39-.61,.77-.97,1.12-.96,.95-2.06,1.72-3.3,2.32l1.57,3.16c-.54,.38-1.12,.71-1.73,1.01l2.13,4.3-5.15-2.13c-1.17,1.89-2.12,3.9-2.87,6.02-.76,2.09-1.29,4.23-1.59,6.41l.65,.23c-.35,1.3-.64,2.61-.82,3.94l7.38,2.55c.28-2.14,.72-4.25,1.31-6.34,.64-2,1.47-3.96,2.46-5.87l-1.45-.6c.31-.78,.65-1.56,1.01-2.33l.84,1.7c.49-.58,1.05-1.07,1.67-1.48,.62-.44,1.27-.82,1.96-1.11,.64-.22,1.29-.26,1.95-.11,.66,.14,1.24,.45,1.75,.92,.18,.17,.32,.36,.45,.57-.4,.93-.88,1.81-1.44,2.65-.85,1.29-1.85,2.47-3.02,3.53l2.34,1.36c-.74,1.01-1.57,1.95-2.51,2.81l7.62,4.42c1.22-1.11,2.28-2.35,3.17-3.72,.92-1.41,1.64-2.89,2.15-4.47,.46-1.26,.73-2.54,.82-3.85,0-.73-.04-1.45-.12-2.17,.14-.66,.24-1.33,.28-2,.01-1.32-.11-2.63-.39-3.92Z"/><path class="cls-11" d="M897.34,380.35l-.38-8.75c-.14-3.28-.11-6.6,.1-9.88,.09-5.06,.59-10.13,1.51-15.08,1.23-6.84,3.24-13.58,5.98-19.99l3.01-7.05,29.44,4.16-1.66,3.96,1.5,.21-3.81,9.06,18.25-.67,.6,9.74c.13,2.13,.09,4.29-.12,6.43,.01,1.62-.05,3.11-.21,4.54l-.04,.31c-.31,2.26-.83,4.51-1.54,6.69l-.06,.2-.07,.19c-.65,1.75-1.53,3.43-2.62,4.99-1.15,1.67-2.53,3.15-4.12,4.41l-.13,.1c-2.67,2.05-5.7,3.26-8.99,3.59-.56,.06-1.17,.09-1.77,.09-2.33,0-4.58-.46-6.71-1.37l-.03,2.49h-.11s-.06,4.12-.06,4.12l-27.94-2.48Z"/><path class="cls-8" d="M897.34,380.35l-.38-8.75c-.14-3.28-.11-6.6,.1-9.88,.09-5.06,.59-10.13,1.51-15.08,1.23-6.84,3.24-13.58,5.98-19.99l3.01-7.05,29.44,4.16-1.66,3.96,1.5,.21-3.81,9.06,18.25-.67,.6,9.74c.13,2.13,.09,4.29-.12,6.43,.01,1.62-.05,3.11-.21,4.54l-.04,.31c-.31,2.26-.83,4.51-1.54,6.69l-.06,.2-.07,.19c-.65,1.75-1.53,3.43-2.62,4.99-1.15,1.67-2.53,3.15-4.12,4.41l-.13,.1c-2.67,2.05-5.7,3.26-8.99,3.59-.56,.06-1.17,.09-1.77,.09-2.33,0-4.58-.46-6.71-1.37l-.03,2.49h-.11s-.06,4.12-.06,4.12l-27.94-2.48Z"/><path class="cls-11" d="M941.88,346.68l-7.89,.29c.13,.96,.15,1.89,.07,2.8-.05,.45-.12,.91-.2,1.37h-.04s0,.09,.01,.14c-.07,.42-.15,.85-.25,1.27-.13,.3-.33,.57-.59,.84-.2,.24-.47,.43-.81,.54-.31,.08-.64,.07-.99,0-.31-.06-.6-.17-.87-.34-1.04-.91-2.01-1.86-2.91-2.87-.9-1.01-1.71-2.08-2.45-3.23-.65-1.07-1.57-1.87-2.75-2.41-.85-.43-1.74-.66-2.66-.69,.22-.72,.43-1.45,.67-2.17,.7-2.08,1.47-4.14,2.34-6.19l-1.38-.2c.49-1.33,.99-2.65,1.55-3.97l-9-1.27c-2.46,5.76-4.23,11.72-5.34,17.88-.83,4.51-1.28,9.07-1.35,13.67-.2,3-.23,6.01-.1,9.04l8.48,.75c.02-1.39,.06-2.78,.13-4.17h.04c0-.5,.03-1.01,.04-1.52,.03-.48,.04-.96,.08-1.44,.2-2.35,.48-4.7,.85-7.02,.61-.34,1.27-.42,1.98-.22,.7,.16,1.24,.53,1.64,1.09,1.1,1.71,2.38,3.26,3.82,4.63,1.43,1.34,3.03,2.5,4.78,3.46,1.32,.71,2.72,.99,4.2,.83,1.42-.14,2.71-.66,3.88-1.56,.83-.66,1.54-1.42,2.13-2.28,.61-.87,1.1-1.8,1.47-2.77,.53-1.64,.91-3.3,1.14-4.97,.14-1.34,.17-2.67,.14-3.99,0-.06,.02-.12,.03-.18,.18-1.72,.22-3.43,.12-5.12"/><path class="cls-7" d="M941.88,346.68l-7.89,.29c.13,.96,.15,1.89,.07,2.8-.05,.45-.12,.91-.2,1.37h-.04s0,.09,.01,.14c-.07,.42-.15,.85-.25,1.27-.13,.3-.33,.57-.59,.84-.2,.24-.47,.43-.81,.54-.31,.08-.64,.07-.99,0-.31-.06-.6-.17-.87-.34-1.04-.91-2.01-1.86-2.91-2.87-.9-1.01-1.71-2.08-2.45-3.23-.65-1.07-1.57-1.87-2.75-2.41-.85-.43-1.74-.66-2.66-.69,.22-.72,.43-1.45,.67-2.17,.7-2.08,1.47-4.14,2.34-6.19l-1.38-.2c.49-1.33,.99-2.65,1.55-3.97l-9-1.27c-2.46,5.76-4.23,11.72-5.34,17.88-.83,4.51-1.28,9.07-1.35,13.67-.2,3-.23,6.01-.1,9.04l8.48,.75c.02-1.39,.06-2.78,.13-4.17h.04c0-.5,.03-1.01,.04-1.52,.03-.48,.04-.96,.08-1.44,.2-2.35,.48-4.7,.85-7.02,.61-.34,1.27-.42,1.98-.22,.7,.16,1.24,.53,1.64,1.09,1.1,1.71,2.38,3.26,3.82,4.63,1.43,1.34,3.03,2.5,4.78,3.46,1.32,.71,2.72,.99,4.2,.83,1.42-.14,2.71-.66,3.88-1.56,.83-.66,1.54-1.42,2.13-2.28,.61-.87,1.1-1.8,1.47-2.77,.53-1.64,.91-3.3,1.14-4.97,.14-1.34,.17-2.67,.14-3.99,0-.06,.02-.12,.03-.18,.18-1.72,.22-3.43,.12-5.12Z"/><path class="cls-11" d="M407.94,390.74c-5.98,0-11.54-1.52-16.55-4.52-7.88-4.52-12.86-11.85-14.43-21.22l-3.03-18.17c-.54-1.87-.96-3.62-1.26-5.32l-22.83-126.82c-2.18-12.1,.65-23.22,8.19-32.16l.14-.16c3.42-3.88,7.5-7.12,12.16-9.63,.38-.5,.78-.99,1.18-1.47l.14-.16c6.93-7.88,16.26-12.92,27.75-14.99l78.62-14.15c7.79-1.4,15.15-2.11,21.85-2.11,33.2,0,53.84,17.16,59.69,49.62,2.76,15.35,.22,26.57-4.53,34.74,1.3-1.45,2.76-2.78,4.36-3.99,6.18-4.78,13.45-7.2,21.59-7.2,.69,0,1.38,.02,2.08,.05,8.85,.44,16.55,3.72,22.89,9.76l.13,.13c4.47,4.41,9.66,12.37,9.02,25.25l-2.53,50.89c-.13,2.54,.07,5.93,1.73,7.65,1.45,1.51,4.58,2.46,8.79,2.67,.4,.02,.79,.03,1.18,.03,.65,0,1.28-.03,1.9-.08l2.43-48.8c.5-10.04,4.47-18.33,11.47-23.99,2.29-1.85,4.76-3.38,7.37-4.57,.27-.4,.54-.79,.83-1.18-2.14-14.29,3.9-25.41,16.93-31.24,4.31-7.11,12-11.91,22.92-14.32,3.26-.72,6.39-1.08,9.31-1.08,5.34,0,10.14,1.2,14.29,3.57,.46,.26,.91,.52,1.34,.8,8.02-7.6,19.01-12.97,32.79-16.01,8.62-1.9,16.74-2.86,24.15-2.86,22.6,0,51.55,9.12,61.13,52.55l12.35,56.04c2.16,9.81,.52,18.86-4.74,26.16l-.12,.17c-3.47,4.61-7.82,8.14-12.94,10.51-.14,.2-.47,.67-.47,.67l-.06,.08c-5.12,6.8-12.01,11.19-20.5,13.06-3,.66-5.98,1-8.84,1-5.53,0-10.79-1.24-15.63-3.67-8.74-4.22-14.55-11.83-16.8-22.02l-11.18-50.72c-.84-3.79-2.17-6.53-3.57-7.32-.26-.15-1.3-.63-3.84-.63-2.03,0-4.49,.31-7.3,.92,0,.82,.09,1.78,.34,2.92l10.86,49.27c2.32,10.52,.21,20.17-6.11,27.88l-.12,.15c-3.2,3.76-7.16,6.79-11.79,9.04-.49,.71-1.02,1.41-1.57,2.08l-.12,.15c-5.32,6.25-12.62,10.43-21.68,12.43-.91,.2-1.82,.36-2.74,.48-1.52,5.95-4.49,11.11-8.86,15.39-2.61,2.55-5.66,4.56-9.12,5.99-1.26,1.91-2.71,3.67-4.35,5.27-5.89,5.76-13.76,8.67-23.39,8.67-.81,0-1.63-.02-2.47-.06-5.72-.29-11.71-2.45-17.82-6.44-1.4-.9-2.63-1.81-3.71-2.73-.78,.39-1.6,.77-2.46,1.17-7.83,3.61-16.46,5.45-25.61,5.45-1.16,0-2.34-.03-3.52-.09-19.52-.97-35.36-5.19-47.09-12.54-8.62-5.4-15.13-12.46-19.46-21.08-8.79,4.55-19.31,7.94-31.44,10.12l-59.81,10.77c-2.44,2.14-5.15,3.9-8.12,5.27-.71,1.06-1.51,2.08-2.37,3.05-5.37,6-12.36,9.74-20.8,11.15-2.11,.35-4.21,.53-6.23,.53m53.49-106.96c-1.07,3.9-1.25,8.34-.46,12.75,1.94,10.8,8.6,17.67,14.62,18.89,1.07-3.9,1.25-8.34,.46-12.75-1.93-10.8-8.6-17.67-14.62-18.89m-15.14-84.45c-1.07,3.9-1.25,8.34-.46,12.75,1.94,10.8,8.6,17.67,14.62,18.9,1.07-3.9,1.25-8.34,.46-12.75-1.94-10.8-8.6-17.67-14.62-18.89"/><path class="cls-3" d="M407.94,390.74c-5.98,0-11.54-1.52-16.55-4.52-7.88-4.52-12.86-11.85-14.43-21.22l-3.03-18.17c-.54-1.87-.96-3.62-1.26-5.32l-22.83-126.82c-2.18-12.1,.65-23.22,8.19-32.16l.14-.16c3.42-3.88,7.5-7.12,12.16-9.63,.38-.5,.78-.99,1.18-1.47l.14-.16c6.93-7.88,16.26-12.92,27.75-14.99l78.62-14.15c7.79-1.4,15.15-2.11,21.85-2.11,33.2,0,53.84,17.16,59.69,49.62,2.76,15.35,.22,26.57-4.53,34.74,1.3-1.45,2.76-2.78,4.36-3.99,6.18-4.78,13.45-7.2,21.59-7.2,.69,0,1.38,.02,2.08,.05,8.85,.44,16.55,3.72,22.89,9.76l.13,.13c4.47,4.41,9.66,12.37,9.02,25.25l-2.53,50.89c-.13,2.54,.07,5.93,1.73,7.65,1.45,1.51,4.58,2.46,8.79,2.67,.4,.02,.79,.03,1.18,.03,.65,0,1.28-.03,1.9-.08l2.43-48.8c.5-10.04,4.47-18.33,11.47-23.99,2.29-1.85,4.76-3.38,7.37-4.57,.27-.4,.54-.79,.83-1.18-2.14-14.29,3.9-25.41,16.93-31.24,4.31-7.11,12-11.91,22.92-14.32,3.26-.72,6.39-1.08,9.31-1.08,5.34,0,10.14,1.2,14.29,3.57,.46,.26,.91,.52,1.34,.8,8.02-7.6,19.01-12.97,32.79-16.01,8.62-1.9,16.74-2.86,24.15-2.86,22.6,0,51.55,9.12,61.13,52.55l12.35,56.04c2.16,9.81,.52,18.86-4.74,26.16l-.12,.17c-3.47,4.61-7.82,8.14-12.94,10.51-.14,.2-.47,.67-.47,.67l-.06,.08c-5.12,6.8-12.01,11.19-20.5,13.06-3,.66-5.98,1-8.84,1-5.53,0-10.79-1.24-15.63-3.67-8.74-4.22-14.55-11.83-16.8-22.02l-11.18-50.72c-.84-3.79-2.17-6.53-3.57-7.32-.26-.15-1.3-.63-3.84-.63-2.03,0-4.49,.31-7.3,.92,0,.82,.09,1.78,.34,2.92l10.86,49.27c2.32,10.52,.21,20.17-6.11,27.88l-.12,.15c-3.2,3.76-7.16,6.79-11.79,9.04-.49,.71-1.02,1.41-1.57,2.08l-.12,.15c-5.32,6.25-12.62,10.43-21.68,12.43-.91,.2-1.82,.36-2.74,.48-1.52,5.95-4.49,11.11-8.86,15.39-2.61,2.55-5.66,4.56-9.12,5.99-1.26,1.91-2.71,3.67-4.35,5.27-5.89,5.76-13.76,8.67-23.39,8.67-.81,0-1.63-.02-2.47-.06-5.72-.29-11.71-2.45-17.82-6.44-1.4-.9-2.63-1.81-3.71-2.73-.78,.39-1.6,.77-2.46,1.17-7.83,3.61-16.46,5.45-25.61,5.45-1.16,0-2.34-.03-3.52-.09-19.52-.97-35.36-5.19-47.09-12.54-8.62-5.4-15.13-12.46-19.46-21.08-8.79,4.55-19.31,7.94-31.44,10.12l-59.81,10.77c-2.44,2.14-5.15,3.9-8.12,5.27-.71,1.06-1.51,2.08-2.37,3.05-5.37,6-12.36,9.74-20.8,11.15-2.11,.35-4.21,.53-6.23,.53Zm53.49-106.96c-1.07,3.9-1.25,8.34-.46,12.75,1.94,10.8,8.6,17.67,14.62,18.89,1.07-3.9,1.25-8.34,.46-12.75-1.93-10.8-8.6-17.67-14.62-18.89Zm-15.14-84.45c-1.07,3.9-1.25,8.34-.46,12.75,1.94,10.8,8.6,17.67,14.62,18.9,1.07-3.9,1.25-8.34,.46-12.75-1.94-10.8-8.6-17.67-14.62-18.89Z"/><path class="cls-11" d="M833.71,280.41l-12.36-56.04c-8.17-37.03-32.62-51.06-73.36-42.08-14.68,3.24-25.37,9.23-32.09,17.96-1.21,.66-2.37,1.36-3.48,2.09-1.04-2.41-2.91-4.38-5.64-5.9-4.25-2.44-9.76-2.91-16.52-1.42-9.58,2.11-15.52,6.27-17.84,12.47-11.9,3.93-16.54,11.95-13.86,24.08l.49,2.2c-1.99,1.78-3.58,3.86-4.72,6.28-2.87,.89-5.53,2.32-7.99,4.3-4.82,3.89-7.4,9.45-7.77,16.7l-2.51,50.39c-.11,2.21-.62,4.27-1.51,6.19-3.72,1.39-7.71,1.98-11.97,1.76-14-.7-20.67-7.63-20.01-20.81l2.53-50.89c.37-7.41-1.65-13.29-6.06-17.64-4.57-4.35-10.07-6.69-16.49-7.01-6.59-.33-12.29,1.37-17.09,5.09-2.68,2.03-4.74,4.5-6.16,7.39-2.14,.7-4.16,1.69-6.04,2.97-4.98-3.26-11.02-5.99-18.13-8.21,12.99-7.87,17.85-20.89,14.58-39.06-6.05-33.59-29.36-46.74-69.92-39.43l-78.62,14.15c-9.25,1.66-16.59,5.58-22.01,11.75-.78,.92-1.48,1.87-2.12,2.84-4.42,2.06-8.22,4.85-11.35,8.42-5.66,6.72-7.66,14.7-5.99,23.95l22.83,126.82c.31,1.71,.72,3.3,1.18,4.85l3.13,18.77c1.08,6.46,4.28,11.2,9.62,14.24,4.7,2.84,10.06,3.75,16.08,2.75,6.17-1.03,11.16-3.67,14.98-7.93,1.21-1.37,2.18-2.83,2.92-4.41,4.05-1.34,7.47-3.53,10.28-6.57l62.8-11.3c16.35-2.94,29.14-8.08,38.38-15.4,5.51,24.06,26.13,36.98,61.88,38.76,8.89,.44,17.05-1.05,24.49-4.48,5.57-2.53,8.65-4.69,9.24-6.48-.15,2.96,2.02,5.88,6.5,8.74,4.63,3.04,8.93,4.65,12.88,4.85,7.91,.39,14.02-1.53,18.36-5.77,1.91-1.87,3.41-4,4.55-6.36,3.52-.92,6.51-2.54,8.92-4.9,4.34-4.24,6.68-9.74,7.01-16.49l.1-1.96c3.03,.66,6.14,.67,9.33-.04,6.92-1.53,12.33-4.58,16.22-9.15,.95-1.16,1.76-2.38,2.42-3.65,4.5-1.72,8.19-4.25,11.05-7.61,4.39-5.36,5.75-11.82,4.08-19.39l-10.86-49.27c-1.08-4.91-.63-9.26,1.33-13.06,1.8-.7,3.71-1.29,5.79-1.75,8.21-1.81,14.35-1.56,18.4,.76,4.05,2.32,6.85,6.94,8.37,13.86l11.18,50.72c1.6,7.25,5.41,12.31,11.46,15.2,5.32,2.71,11.29,3.33,17.89,1.88,6.12-1.35,11-4.45,14.66-9.31,.64-.89,1.19-1.81,1.67-2.76,4.79-1.61,8.73-4.43,11.8-8.5,3.62-5.02,4.65-11.07,3.09-18.15m-352.83,44.9c-13.32,2.39-26.64-9.71-29.74-27.03-1.6-8.94-.17-17.51,3.43-24.05,.53-.14,1.06-.27,1.6-.37,13.32-2.39,26.64,9.71,29.74,27.03,1.6,8.94,.16,17.51-3.43,24.05-.53,.14-1.06,.27-1.6,.37m-41.45-135.53c.53-.14,1.06-.27,1.6-.37,13.32-2.39,26.64,9.71,29.74,27.03,1.6,8.94,.17,17.51-3.43,24.05-.53,.14-1.06,.27-1.6,.37-13.32,2.39-26.64-9.71-29.74-27.03-1.6-8.94-.16-17.51,3.43-24.05"/><path class="cls-3" d="M833.71,280.41l-12.36-56.04c-8.17-37.03-32.62-51.06-73.36-42.08-14.68,3.24-25.37,9.23-32.09,17.96-1.21,.66-2.37,1.36-3.48,2.09-1.04-2.41-2.91-4.38-5.64-5.9-4.25-2.44-9.76-2.91-16.52-1.42-9.58,2.11-15.52,6.27-17.84,12.47-11.9,3.93-16.54,11.95-13.86,24.08l.49,2.2c-1.99,1.78-3.58,3.86-4.72,6.28-2.87,.89-5.53,2.32-7.99,4.3-4.82,3.89-7.4,9.45-7.77,16.7l-2.51,50.39c-.11,2.21-.62,4.27-1.51,6.19-3.72,1.39-7.71,1.98-11.97,1.76-14-.7-20.67-7.63-20.01-20.81l2.53-50.89c.37-7.41-1.65-13.29-6.06-17.64-4.57-4.35-10.07-6.69-16.49-7.01-6.59-.33-12.29,1.37-17.09,5.09-2.68,2.03-4.74,4.5-6.16,7.39-2.14,.7-4.16,1.69-6.04,2.97-4.98-3.26-11.02-5.99-18.13-8.21,12.99-7.87,17.85-20.89,14.58-39.06-6.05-33.59-29.36-46.74-69.92-39.43l-78.62,14.15c-9.25,1.66-16.59,5.58-22.01,11.75-.78,.92-1.48,1.87-2.12,2.84-4.42,2.06-8.22,4.85-11.35,8.42-5.66,6.72-7.66,14.7-5.99,23.95l22.83,126.82c.31,1.71,.72,3.3,1.18,4.85l3.13,18.77c1.08,6.46,4.28,11.2,9.62,14.24,4.7,2.84,10.06,3.75,16.08,2.75,6.17-1.03,11.16-3.67,14.98-7.93,1.21-1.37,2.18-2.83,2.92-4.41,4.05-1.34,7.47-3.53,10.28-6.57l62.8-11.3c16.35-2.94,29.14-8.08,38.38-15.4,5.51,24.06,26.13,36.98,61.88,38.76,8.89,.44,17.05-1.05,24.49-4.48,5.57-2.53,8.65-4.69,9.24-6.48-.15,2.96,2.02,5.88,6.5,8.74,4.63,3.04,8.93,4.65,12.88,4.85,7.91,.39,14.02-1.53,18.36-5.77,1.91-1.87,3.41-4,4.55-6.36,3.52-.92,6.51-2.54,8.92-4.9,4.34-4.24,6.68-9.74,7.01-16.49l.1-1.96c3.03,.66,6.14,.67,9.33-.04,6.92-1.53,12.33-4.58,16.22-9.15,.95-1.16,1.76-2.38,2.42-3.65,4.5-1.72,8.19-4.25,11.05-7.61,4.39-5.36,5.75-11.82,4.08-19.39l-10.86-49.27c-1.08-4.91-.63-9.26,1.33-13.06,1.8-.7,3.71-1.29,5.79-1.75,8.21-1.81,14.35-1.56,18.4,.76,4.05,2.32,6.85,6.94,8.37,13.86l11.18,50.72c1.6,7.25,5.41,12.31,11.46,15.2,5.32,2.71,11.29,3.33,17.89,1.88,6.12-1.35,11-4.45,14.66-9.31,.64-.89,1.19-1.81,1.67-2.76,4.79-1.61,8.73-4.43,11.8-8.5,3.62-5.02,4.65-11.07,3.09-18.15Zm-352.83,44.9c-13.32,2.39-26.64-9.71-29.74-27.03-1.6-8.94-.17-17.51,3.43-24.05,.53-.14,1.06-.27,1.6-.37,13.32-2.39,26.64,9.71,29.74,27.03,1.6,8.94,.16,17.51-3.43,24.05-.53,.14-1.06,.27-1.6,.37Zm-41.45-135.53c.53-.14,1.06-.27,1.6-.37,13.32-2.39,26.64,9.71,29.74,27.03,1.6,8.94,.17,17.51-3.43,24.05-.53,.14-1.06,.27-1.6,.37-13.32,2.39-26.64-9.71-29.74-27.03-1.6-8.94-.16-17.51,3.43-24.05Z"/><path class="cls-11" d="M597.09,628.15c-5.68,0-11.01-1.4-15.85-4.15-7.98-4.34-13.13-11.56-14.9-20.89l-22.44-117.87-6.74-34.79c-2.34-12.07,.35-23.23,7.76-32.27l.13-.16c.67-.79,1.39-1.56,2.19-2.35,1.34-2.87,3.07-5.6,5.15-8.13l.14-.16c6.83-7.97,16.09-13.14,27.55-15.36l78.43-15.19c8.26-1.6,16.03-2.41,23.09-2.41,32.46,0,52.88,16.88,59.07,48.83,2.93,15.11,.98,27.7-5.79,37.56,.97,.49,1.92,1,2.83,1.53,3.6-3.3,7.96-5.84,13.03-7.58,3.89-1.33,7.84-2.01,11.74-2.01,4.43,0,8.85,.87,13.14,2.58l.17,.07c5.78,2.44,13.56,7.91,17.73,20.11l16.51,48.2c2.38,6.94,5.25,6.96,7.16,6.96h.02c1.78,0,3.94-.43,6.42-1.28,1.7-.58,3.22-1.31,4.6-2.2,.02-.76-.11-1.51-.38-2.29l-16.35-47.74c-3.26-9.51-2.65-18.68,1.77-26.53,1.68-2.98,3.73-5.65,6.13-7.95,.4-.92,.85-1.82,1.34-2.68,4.26-7.58,10.7-12.89,19.15-15.78,4.3-1.47,8.59-2.22,12.74-2.22s8.14,.73,11.99,2.16l.1,.04c8.95,3.46,15.46,10.45,18.8,20.22l29.33,85.64c3.02,8.82,2.78,17.3-.72,25.2-1.65,3.72-4.03,7-7.11,9.8-.11,.28-.23,.56-.35,.84-3.62,8.18-10.63,14.09-20.82,17.58-3.05,1.04-6.42,1.57-10.01,1.57h0c-2.79,0-5.79-.32-8.93-.95-1.63-.32-3.11-.71-4.45-1.16-.58,.65-1.19,1.31-1.85,1.99-6.7,7.05-15.14,12.38-25.07,15.77-13.3,4.55-25.49,6.86-36.24,6.86-25.53,0-44.23-12.88-54.38-37.33-10.72,11.4-26.93,19.25-48.42,23.41l-62.95,12.2c-.7,.77-1.43,1.51-2.2,2.22-1.12,2.8-2.69,5.4-4.7,7.77-5.25,6.13-12.15,10.03-20.55,11.62-2.38,.45-4.74,.68-7.02,.68m45.28-110.81c-1.05,3.67-1.31,7.72-.76,11.86,1.46,10.93,8.67,19.82,16.06,19.82,.4,0,.81-.03,1.21-.08,1.12-.15,2.21-.51,3.25-1.08,1.05-3.67,1.31-7.72,.76-11.86-1.46-10.93-8.67-19.82-16.06-19.82-.4,0-.81,.03-1.21,.08-1.12,.15-2.21,.51-3.25,1.08m-13.69-81c-1.05,3.67-1.31,7.72-.76,11.86,1.46,10.93,8.67,19.82,16.06,19.82,.4,0,.81-.03,1.21-.08,1.12-.15,2.21-.51,3.25-1.08,1.05-3.67,1.31-7.72,.76-11.87-1.46-10.93-8.67-19.81-16.06-19.81-.4,0-.81,.03-1.21,.08-1.12,.15-2.21,.51-3.25,1.08"/><path class="cls-3" d="M597.09,628.15c-5.68,0-11.01-1.4-15.85-4.15-7.98-4.34-13.13-11.56-14.9-20.89l-22.44-117.87-6.74-34.79c-2.34-12.07,.35-23.23,7.76-32.27l.13-.16c.67-.79,1.39-1.56,2.19-2.35,1.34-2.87,3.07-5.6,5.15-8.13l.14-.16c6.83-7.97,16.09-13.14,27.55-15.36l78.43-15.19c8.26-1.6,16.03-2.41,23.09-2.41,32.46,0,52.88,16.88,59.07,48.83,2.93,15.11,.98,27.7-5.79,37.56,.97,.49,1.92,1,2.83,1.53,3.6-3.3,7.96-5.84,13.03-7.58,3.89-1.33,7.84-2.01,11.74-2.01,4.43,0,8.85,.87,13.14,2.58l.17,.07c5.78,2.44,13.56,7.91,17.73,20.11l16.51,48.2c2.38,6.94,5.25,6.96,7.16,6.96h.02c1.78,0,3.94-.43,6.42-1.28,1.7-.58,3.22-1.31,4.6-2.2,.02-.76-.11-1.51-.38-2.29l-16.35-47.74c-3.26-9.51-2.65-18.68,1.77-26.53,1.68-2.98,3.73-5.65,6.13-7.95,.4-.92,.85-1.82,1.34-2.68,4.26-7.58,10.7-12.89,19.15-15.78,4.3-1.47,8.59-2.22,12.74-2.22s8.14,.73,11.99,2.16l.1,.04c8.95,3.46,15.46,10.45,18.8,20.22l29.33,85.64c3.02,8.82,2.78,17.3-.72,25.2-1.65,3.72-4.03,7-7.11,9.8-.11,.28-.23,.56-.35,.84-3.62,8.18-10.63,14.09-20.82,17.58-3.05,1.04-6.42,1.57-10.01,1.57h0c-2.79,0-5.79-.32-8.93-.95-1.63-.32-3.11-.71-4.45-1.16-.58,.65-1.19,1.31-1.85,1.99-6.7,7.05-15.14,12.38-25.07,15.77-13.3,4.55-25.49,6.86-36.24,6.86-25.53,0-44.23-12.88-54.38-37.33-10.72,11.4-26.93,19.25-48.42,23.41l-62.95,12.2c-.7,.77-1.43,1.51-2.2,2.22-1.12,2.8-2.69,5.4-4.7,7.77-5.25,6.13-12.15,10.03-20.55,11.62-2.38,.45-4.74,.68-7.02,.68Zm45.28-110.81c-1.05,3.67-1.31,7.72-.76,11.86,1.46,10.93,8.67,19.82,16.06,19.82,.4,0,.81-.03,1.21-.08,1.12-.15,2.21-.51,3.25-1.08,1.05-3.67,1.31-7.72,.76-11.86-1.46-10.93-8.67-19.82-16.06-19.82-.4,0-.81,.03-1.21,.08-1.12,.15-2.21,.51-3.25,1.08Zm-13.69-81c-1.05,3.67-1.31,7.72-.76,11.86,1.46,10.93,8.67,19.82,16.06,19.82,.4,0,.81-.03,1.21-.08,1.12-.15,2.21-.51,3.25-1.08,1.05-3.67,1.31-7.72,.76-11.87-1.46-10.93-8.67-19.81-16.06-19.81-.4,0-.81,.03-1.21,.08-1.12,.15-2.21,.51-3.25,1.08Z"/><path class="cls-10" d="M903.39,533.3l-29.33-85.64c-2.4-7.02-6.72-11.73-12.94-14.13-5.6-2.09-11.59-2.04-17.99,.15-6.08,2.08-10.64,5.83-13.67,11.22-.66,1.18-1.19,2.4-1.6,3.65-2.36,1.9-4.32,4.22-5.87,6.99-3.03,5.4-3.37,11.53-1.02,18.39l16.35,47.73c1.28,3.73,1.22,7.49-.16,11.27-2.9,2.59-6.32,4.57-10.28,5.92-13.26,4.54-22.03,.58-26.3-11.91l-16.51-48.2c-2.4-7.02-6.46-11.73-12.16-14.13-5.86-2.35-11.83-2.49-17.92-.4-6.24,2.14-10.9,5.83-13.99,11.07-.1,.16-.18,.33-.28,.49-5.2-4.28-11.95-7.79-20.24-10.52,.98-1.51,1.81-3.11,2.5-4.8,8.88-8.12,11.85-19.88,8.86-35.3-6.49-33.51-29.98-46.34-70.44-38.5l-78.43,15.19c-9.23,1.79-16.51,5.8-21.85,12.04-1.96,2.39-3.46,4.94-4.51,7.63-1.04,.95-2.04,1.93-2.96,3.01-5.57,6.79-7.46,14.8-5.68,24.02l6.75,34.82,22.44,117.87c1.23,6.44,4.54,11.1,9.94,14.02,4.76,2.73,10.14,3.52,16.14,2.38,6.14-1.17,11.07-3.93,14.79-8.27,1.82-2.15,3.06-4.53,3.73-7.14,1.35-1.03,2.61-2.18,3.74-3.5,.54-.64,1.02-1.3,1.46-1.98l66.64-12.91c25.77-4.99,42.59-15.34,50.46-31.05,1.08-1.15,2.1-2.33,3.04-3.56l4.25,12.41c11.65,34.01,38.3,43.88,79.95,29.61,8.42-2.88,15.45-7.3,21.09-13.24,4.18-4.36,6.23-7.47,6.17-9.35,.01,0,.02-.02,.03-.03,.98,2.78,4.06,4.66,9.25,5.66,5.43,1.1,10.02,1.01,13.76-.27,7.49-2.56,12.46-6.62,14.92-12.17,.4-.9,.71-1.81,.99-2.73,2.95-2.17,5.11-4.8,6.48-7.9,2.46-5.55,2.59-11.52,.4-17.91m-243.18,25.55c-13.41,1.8-26.18-10.88-28.51-28.32-.95-7.06-.03-13.82,2.28-19.48,2.96-2.52,6.45-4.18,10.32-4.7,13.41-1.79,26.18,10.88,28.51,28.32,.95,7.06,.03,13.82-2.28,19.48-2.96,2.52-6.45,4.18-10.32,4.7m-39.93-128.8c2.96-2.52,6.45-4.18,10.32-4.7,13.41-1.79,26.18,10.88,28.51,28.32,.95,7.06,.03,13.82-2.28,19.48-2.96,2.52-6.45,4.18-10.32,4.7-13.42,1.79-26.18-10.88-28.51-28.32-.94-7.06-.03-13.82,2.28-19.48"/><path class="cls-2" d="M903.39,533.3l-29.33-85.64c-2.4-7.02-6.72-11.73-12.94-14.13-5.6-2.09-11.59-2.04-17.99,.15-6.08,2.08-10.64,5.83-13.67,11.22-.66,1.18-1.19,2.4-1.6,3.65-2.36,1.9-4.32,4.22-5.87,6.99-3.03,5.4-3.37,11.53-1.02,18.39l16.35,47.73c1.28,3.73,1.22,7.49-.16,11.27-2.9,2.59-6.32,4.57-10.28,5.92-13.26,4.54-22.03,.58-26.3-11.91l-16.51-48.2c-2.4-7.02-6.46-11.73-12.16-14.13-5.86-2.35-11.83-2.49-17.92-.4-6.24,2.14-10.9,5.83-13.99,11.07-.1,.16-.18,.33-.28,.49-5.2-4.28-11.95-7.79-20.24-10.52,.98-1.51,1.81-3.11,2.5-4.8,8.88-8.12,11.85-19.88,8.86-35.3-6.49-33.51-29.98-46.34-70.44-38.5l-78.43,15.19c-9.23,1.79-16.51,5.8-21.85,12.04-1.96,2.39-3.46,4.94-4.51,7.63-1.04,.95-2.04,1.93-2.96,3.01-5.57,6.79-7.46,14.8-5.68,24.02l6.75,34.82,22.44,117.87c1.23,6.44,4.54,11.1,9.94,14.02,4.76,2.73,10.14,3.52,16.14,2.38,6.14-1.17,11.07-3.93,14.79-8.27,1.82-2.15,3.06-4.53,3.73-7.14,1.35-1.03,2.61-2.18,3.74-3.5,.54-.64,1.02-1.3,1.46-1.98l66.64-12.91c25.77-4.99,42.59-15.34,50.46-31.05,1.08-1.15,2.1-2.33,3.04-3.56l4.25,12.41c11.65,34.01,38.3,43.88,79.95,29.61,8.42-2.88,15.45-7.3,21.09-13.24,4.18-4.36,6.23-7.47,6.17-9.35,.01,0,.02-.02,.03-.03,.98,2.78,4.06,4.66,9.25,5.66,5.43,1.1,10.02,1.01,13.76-.27,7.49-2.56,12.46-6.62,14.92-12.17,.4-.9,.71-1.81,.99-2.73,2.95-2.17,5.11-4.8,6.48-7.9,2.46-5.55,2.59-11.52,.4-17.91Zm-243.18,25.55c-13.41,1.8-26.18-10.88-28.51-28.32-.95-7.06-.03-13.82,2.28-19.48,2.96-2.52,6.45-4.18,10.32-4.7,13.41-1.79,26.18,10.88,28.51,28.32,.95,7.06,.03,13.82-2.28,19.48-2.96,2.52-6.45,4.18-10.32,4.7Zm-39.93-128.8c2.96-2.52,6.45-4.18,10.32-4.7,13.41-1.79,26.18,10.88,28.51,28.32,.95,7.06,.03,13.82-2.28,19.48-2.96,2.52-6.45,4.18-10.32,4.7-13.42,1.79-26.18-10.88-28.51-28.32-.94-7.06-.03-13.82,2.28-19.48Z"/></g><g class="cls-14"><path class="cls-6" d="M508.27,321.68s-167.51,45.26-33.83,122.67c0,0,107.55,52.8,182.64-9.29,0,0,86.14-1.45,116.77,51.67,35.89,62.24-47.62,88.36-47.62,88.36,0,0-81.1,5.96-193.35-10.91-160.93-24.19-212.48-102.69-212.48-102.69,0,0-63.53-97.22,65.64-133.37,77.77-21.76,122.23-6.45,122.23-6.45Z"/><path class="cls-5" d="M850.17,459.71s156.44-31.28,28.94-94.26c0,0-102.36-43.33-171.52,3.08,0,0-80.96-.82-111-42.65-35.2-49.03,42.71-67.38,42.71-67.38,0,0,76.12-2.79,182.05,12.81,151.88,22.36,202.19,84.34,202.19,84.34,0,0,62.01,76.74-58.6,101.83-72.62,15.11-114.78,2.24-114.78,2.24Z"/><path class="cls-13" d="M1015.47,521.63c.31,7.25-1.76,13.03-6.19,17.34-4.45,4.15-9.8,6.36-16.06,6.62-6.76,.29-12.52-1.37-17.29-4.96-5.45-3.9-8.33-9.55-8.64-16.96l-2.21-51.89c-.3-7.08-2.25-12.12-5.84-15.1-3.59-2.98-9.59-4.3-17.99-3.94-7.09,.3-12.86,2.2-17.33,5.69-5.28,3.86-7.77,9.33-7.47,16.41l2.14,50.41c.33,7.75-2.13,13.87-7.39,18.39-4.63,3.82-10.48,5.89-17.56,6.19-5.93,.25-11.21-1.67-15.84-5.76-4.47-4.1-6.85-9.69-7.15-16.78l-3.95-92.91c-.59-13.84,6.86-21.08,22.35-21.74,6.92-.29,12.26,1.13,16.02,4.27,3.08,2.51,4.69,5.49,4.84,8.95,8.17-9.75,20.9-15,38.2-15.73,41.68-1.77,63.32,16.29,64.93,54.18l2.44,57.33Z"/><path class="cls-2" d="M1015.47,521.63c.31,7.25-1.76,13.03-6.19,17.34-4.45,4.15-9.8,6.36-16.06,6.62-6.76,.29-12.52-1.37-17.29-4.96-5.45-3.9-8.33-9.55-8.64-16.96l-2.21-51.89c-.3-7.08-2.25-12.12-5.84-15.1-3.59-2.98-9.59-4.3-17.99-3.94-7.09,.3-12.86,2.2-17.33,5.69-5.28,3.86-7.77,9.33-7.47,16.41l2.14,50.41c.33,7.75-2.13,13.87-7.39,18.39-4.63,3.82-10.48,5.89-17.56,6.19-5.93,.25-11.21-1.67-15.84-5.76-4.47-4.1-6.85-9.69-7.15-16.78l-3.95-92.91c-.59-13.84,6.86-21.08,22.35-21.74,6.92-.29,12.26,1.13,16.02,4.27,3.08,2.51,4.69,5.49,4.84,8.95,8.17-9.75,20.9-15,38.2-15.73,41.68-1.77,63.32,16.29,64.93,54.18l2.44,57.33Z"/><path class="cls-13" d="M895.92,543.94c2.19,6.4,2.05,12.37-.4,17.92-2.46,5.55-7.43,9.6-14.92,12.17-3.74,1.28-8.33,1.37-13.76,.27-5.22-1-8.32-2.91-9.28-5.71,.12,1.88-1.94,5.02-6.18,9.44-5.64,5.94-12.67,10.35-21.09,13.24-41.65,14.27-68.3,4.4-79.95-29.61l-19.39-56.63c-2.4-7.02-1.88-13.38,1.56-19.1,3.08-5.24,7.75-8.93,13.99-11.07,6.08-2.08,12.06-1.95,17.92,.4,5.7,2.4,9.76,7.11,12.16,14.13l16.51,48.2c4.27,12.48,13.04,16.45,26.3,11.91,6.55-2.25,11.65-6.17,15.31-11.78,3.55-5.4,4.42-10.75,2.6-16.06l-16.35-47.73c-2.35-6.86-2.01-12.99,1.02-18.39,3.03-5.39,7.59-9.14,13.67-11.22,6.4-2.19,12.39-2.24,17.99-.15,6.22,2.4,10.54,7.11,12.94,14.13l29.33,85.64Z"/><path class="cls-2" d="M895.92,543.94c2.19,6.4,2.05,12.37-.4,17.92-2.46,5.55-7.43,9.6-14.92,12.17-3.74,1.28-8.33,1.37-13.76,.27-5.22-1-8.32-2.91-9.28-5.71,.12,1.88-1.94,5.02-6.18,9.44-5.64,5.94-12.67,10.35-21.09,13.24-41.65,14.27-68.3,4.4-79.95-29.61l-19.39-56.63c-2.4-7.02-1.88-13.38,1.56-19.1,3.08-5.24,7.75-8.93,13.99-11.07,6.08-2.08,12.06-1.95,17.92,.4,5.7,2.4,9.76,7.11,12.16,14.13l16.51,48.2c4.27,12.48,13.04,16.45,26.3,11.91,6.55-2.25,11.65-6.17,15.31-11.78,3.55-5.4,4.42-10.75,2.6-16.06l-16.35-47.73c-2.35-6.86-2.01-12.99,1.02-18.39,3.03-5.39,7.59-9.14,13.67-11.22,6.4-2.19,12.39-2.24,17.99-.15,6.22,2.4,10.54,7.11,12.94,14.13l29.33,85.64Z"/><path class="cls-13" d="M746.57,512.67c-1.66-8.58-4.6-15.49-8.8-20.72-5.97-7.41-15.46-13.04-28.47-16.91,12.88-8.04,17.57-21.12,14.06-39.25-6.49-33.51-29.98-46.34-70.44-38.5l-78.43,15.2c-9.23,1.79-16.51,5.8-21.85,12.04-5.57,6.79-7.46,14.8-5.68,24.03l6.75,34.82,22.44,117.87c1.23,6.44,4.54,11.11,9.94,14.02,4.76,2.73,10.14,3.52,16.14,2.38,6.14-1.17,11.07-3.92,14.79-8.27,2.84-3.34,4.27-7.26,4.33-11.73l71.24-13.8c43.54-8.44,61.54-32.16,53.98-71.17m-136.04-52.5c-2.33-17.43,6.65-33.02,20.06-34.82,13.41-1.8,26.18,10.88,28.51,28.32,2.33,17.44-6.65,33.02-20.06,34.82-13.41,1.8-26.18-10.88-28.51-28.32m42.21,109.32c-13.41,1.79-26.18-10.88-28.51-28.32-2.33-17.44,6.65-33.02,20.06-34.82,13.41-1.79,26.18,10.88,28.51,28.32,2.33,17.44-6.65,33.03-20.06,34.82"/><path class="cls-2" d="M746.57,512.67c-1.66-8.58-4.6-15.49-8.8-20.72-5.97-7.41-15.46-13.04-28.47-16.91,12.88-8.04,17.57-21.12,14.06-39.25-6.49-33.51-29.98-46.34-70.44-38.5l-78.43,15.2c-9.23,1.79-16.51,5.8-21.85,12.04-5.57,6.79-7.46,14.8-5.68,24.03l6.75,34.82,22.44,117.87c1.23,6.44,4.54,11.11,9.94,14.02,4.76,2.73,10.14,3.52,16.14,2.38,6.14-1.17,11.07-3.92,14.79-8.27,2.84-3.34,4.27-7.26,4.33-11.73l71.24-13.8c43.54-8.44,61.54-32.16,53.98-71.17Zm-136.04-52.5c-2.33-17.43,6.65-33.02,20.06-34.82,13.41-1.8,26.18,10.88,28.51,28.32,2.33,17.44-6.65,33.02-20.06,34.82-13.41,1.8-26.18-10.88-28.51-28.32Zm42.21,109.32c-13.41,1.79-26.18-10.88-28.51-28.32-2.33-17.44,6.65-33.02,20.06-34.82,13.41-1.79,26.18,10.88,28.51,28.32,2.33,17.44-6.65,33.03-20.06,34.82Z"/><path class="cls-13" d="M820.23,291.68c1.56,7.09,.53,13.14-3.09,18.16-3.66,4.86-8.55,7.96-14.66,9.31-6.6,1.46-12.57,.83-17.89-1.88-6.04-2.89-9.86-7.96-11.46-15.2l-11.18-50.72c-1.53-6.92-4.32-11.54-8.38-13.86-4.05-2.31-10.19-2.57-18.4-.76-6.93,1.53-12.29,4.4-16.08,8.61-4.53,4.72-6.04,10.54-4.51,17.46l10.86,49.27c1.67,7.57,.31,14.03-4.08,19.39-3.89,4.57-9.3,7.62-16.22,9.15-5.8,1.28-11.33,.3-16.6-2.92-5.11-3.26-8.43-8.35-9.95-15.28l-20.02-90.82c-2.98-13.52,3.09-21.96,18.23-25.29,6.76-1.49,12.27-1.02,16.52,1.42,3.47,1.94,5.57,4.6,6.32,7.98,6.35-11.02,17.98-18.4,34.89-22.13,40.73-8.98,65.19,5.05,73.35,42.08l12.36,56.04Z"/><path class="cls-2" d="M820.23,291.68c1.56,7.09,.53,13.14-3.09,18.16-3.66,4.86-8.55,7.96-14.66,9.31-6.6,1.46-12.57,.83-17.89-1.88-6.04-2.89-9.86-7.96-11.46-15.2l-11.18-50.72c-1.53-6.92-4.32-11.54-8.38-13.86-4.05-2.31-10.19-2.57-18.4-.76-6.93,1.53-12.29,4.4-16.08,8.61-4.53,4.72-6.04,10.54-4.51,17.46l10.86,49.27c1.67,7.57,.31,14.03-4.08,19.39-3.89,4.57-9.3,7.62-16.22,9.15-5.8,1.28-11.33,.3-16.6-2.92-5.11-3.26-8.43-8.35-9.95-15.28l-20.02-90.82c-2.98-13.52,3.09-21.96,18.23-25.29,6.76-1.49,12.27-1.02,16.52,1.42,3.47,1.94,5.57,4.6,6.32,7.98,6.35-11.02,17.98-18.4,34.89-22.13,40.73-8.98,65.19,5.05,73.35,42.08l12.36,56.04Z"/><path class="cls-13" d="M682.25,353.87c-.34,6.76-2.68,12.25-7.01,16.49-4.34,4.24-10.46,6.17-18.36,5.77-3.95-.2-8.25-1.81-12.88-4.85-4.48-2.87-6.65-5.78-6.5-8.74-.58,1.79-3.66,3.94-9.24,6.48-7.44,3.42-15.6,4.92-24.49,4.48-43.97-2.19-65.06-21.23-63.28-57.13l2.97-59.78c.37-7.41,3.21-13.13,8.53-17.16,4.8-3.72,10.5-5.42,17.09-5.09,6.42,.32,11.92,2.66,16.49,7.01,4.4,4.35,6.43,10.23,6.06,17.63l-2.53,50.89c-.65,13.18,6.01,20.11,20.02,20.81,6.92,.35,13.11-1.41,18.59-5.26,5.3-3.7,8.09-8.35,8.37-13.95l2.51-50.39c.36-7.25,2.95-12.81,7.76-16.7,4.81-3.88,10.43-5.67,16.86-5.35,6.75,.34,12.34,2.51,16.76,6.53,4.89,4.54,7.15,10.51,6.79,17.92l-4.5,90.41Z"/><path class="cls-2" d="M682.25,353.87c-.34,6.76-2.68,12.25-7.01,16.49-4.34,4.24-10.46,6.17-18.36,5.77-3.95-.2-8.25-1.81-12.88-4.85-4.48-2.87-6.65-5.78-6.5-8.74-.58,1.79-3.66,3.94-9.24,6.48-7.44,3.42-15.6,4.92-24.49,4.48-43.97-2.19-65.06-21.23-63.28-57.13l2.97-59.78c.37-7.41,3.21-13.13,8.53-17.16,4.8-3.72,10.5-5.42,17.09-5.09,6.42,.32,11.92,2.66,16.49,7.01,4.4,4.35,6.43,10.23,6.06,17.63l-2.53,50.89c-.65,13.18,6.01,20.11,20.02,20.81,6.92,.35,13.11-1.41,18.59-5.26,5.3-3.7,8.09-8.35,8.37-13.95l2.51-50.39c.36-7.25,2.95-12.81,7.76-16.7,4.81-3.88,10.43-5.67,16.86-5.35,6.75,.34,12.34,2.51,16.76,6.53,4.89,4.54,7.15,10.51,6.79,17.92l-4.5,90.41Z"/><path class="cls-13" d="M558.42,279.68c-1.55-8.6-4.39-15.55-8.52-20.83-5.87-7.49-15.29-13.25-28.24-17.28,12.99-7.87,17.85-20.89,14.58-39.06-6.05-33.59-29.36-46.74-69.92-39.43l-78.62,14.15c-9.25,1.66-16.59,5.58-22.01,11.75-5.66,6.72-7.66,14.7-5.99,23.95l22.83,126.82c.31,1.71,.72,3.3,1.18,4.85l3.13,18.77c1.08,6.46,4.28,11.2,9.62,14.24,4.7,2.84,10.06,3.75,16.07,2.75,6.17-1.03,11.16-3.67,14.98-7.93,2.42-2.72,3.88-5.85,4.4-9.39l71.6-12.89c43.65-7.86,61.96-31.34,54.92-70.45m-135.9-54.58c-3.1-17.32,5.18-33.29,18.5-35.67,13.32-2.39,26.64,9.71,29.74,27.03,3.1,17.32-5.18,33.29-18.5,35.67-13.32,2.39-26.64-9.71-29.74-27.03m44.88,111.48c-13.32,2.39-26.64-9.71-29.74-27.03-3.1-17.31,5.18-33.29,18.5-35.68,13.32-2.39,26.64,9.71,29.74,27.03,3.1,17.32-5.18,33.29-18.5,35.67"/><path class="cls-2" d="M558.42,279.68c-1.55-8.6-4.39-15.55-8.52-20.83-5.87-7.49-15.29-13.25-28.24-17.28,12.99-7.87,17.85-20.89,14.58-39.06-6.05-33.59-29.36-46.74-69.92-39.43l-78.62,14.15c-9.25,1.66-16.59,5.58-22.01,11.75-5.66,6.72-7.66,14.7-5.99,23.95l22.83,126.82c.31,1.71,.72,3.3,1.18,4.85l3.13,18.77c1.08,6.46,4.28,11.2,9.62,14.24,4.7,2.84,10.06,3.75,16.07,2.75,6.17-1.03,11.16-3.67,14.98-7.93,2.42-2.72,3.88-5.85,4.4-9.39l71.6-12.89c43.65-7.86,61.96-31.34,54.92-70.45Zm-135.9-54.58c-3.1-17.32,5.18-33.29,18.5-35.67,13.32-2.39,26.64,9.71,29.74,27.03,3.1,17.32-5.18,33.29-18.5,35.67-13.32,2.39-26.64-9.71-29.74-27.03Zm44.88,111.48c-13.32,2.39-26.64-9.71-29.74-27.03-3.1-17.31,5.18-33.29,18.5-35.68,13.32-2.39,26.64,9.71,29.74,27.03,3.1,17.32-5.18,33.29-18.5,35.67Z"/><path class="cls-13" d="M774.3,391.65c-.99,1.92-1.82,3.87-2.46,5.87-.59,2.09-1.03,4.2-1.31,6.34l-7.38-2.55c.31-2.18,.84-4.31,1.59-6.41,.75-2.12,1.7-4.13,2.87-6.02l6.69,2.76Zm-6.56-21.18c1.33-.94,2.71-1.78,4.15-2.52,1.7-.87,3.51-1.15,5.43-.85,1.91,.27,3.55,1.07,4.92,2.39,.97,.89,1.67,1.98,2.11,3.25,.43,1.25,.51,2.52,.26,3.8-.16,.99-.47,1.89-.94,2.69-.5,.81-1.12,1.52-1.87,2.13,1-.21,2.01-.2,3.02,.02,1.01,.22,1.92,.61,2.75,1.17,.97,.63,1.77,1.43,2.4,2.4,.59,.95,1.01,1.97,1.27,3.06,.27,1.29,.4,2.59,.39,3.91-.09,1.3-.36,2.59-.82,3.85-.51,1.57-1.23,3.06-2.15,4.46-.9,1.37-1.95,2.61-3.17,3.72l-7.62-4.42c1.16-1.07,2.17-2.25,3.02-3.53,.86-1.26,1.52-2.62,2-4.08,.18-.6,.19-1.2,.02-1.78-.15-.62-.43-1.13-.85-1.52-.51-.47-1.09-.78-1.75-.92-.66-.14-1.31-.1-1.95,.11-.69,.3-1.34,.67-1.96,1.11-.63,.41-1.18,.9-1.67,1.48l-3.89-7.88c1.24-.59,2.35-1.36,3.3-2.32,.98-.99,1.75-2.11,2.32-3.37,.13-.26,.19-.52,.16-.78-.06-.25-.18-.48-.36-.7-.18-.19-.41-.31-.68-.38-.26-.1-.52-.1-.79,0-.37,.12-.71,.27-1.03,.44-.32,.17-.65,.37-1,.58-.74,.5-1.42,1.03-2.05,1.57-.66,.55-1.29,1.15-1.9,1.79l-4.63-5.77c1.11-1.16,2.31-2.2,3.61-3.13m21.62-2.81c.87,1.04,1.72,2.13,2.55,3.25,.89,1.11,1.66,2.26,2.3,3.46l-3.66,2.06c-.65-1.2-1.37-2.36-2.16-3.49-.83-1.12-1.69-2.18-2.59-3.19l3.56-2.08Zm4.98-1.93c.85,.95,1.64,1.93,2.38,2.95,.74,1.04,1.41,2.12,2,3.23l-3.45,1.91c-.69-1.09-1.4-2.15-2.14-3.2-.75-1.07-1.56-2.08-2.45-3.02l3.66-1.86Zm3.68,16.52c1.43,1.44,2.7,2.99,3.82,4.63,1.15,1.64,2.15,3.38,3.02,5.21l-5.43,3.56c-.92-1.79-2.02-3.49-3.29-5.1-1.22-1.69-2.54-3.27-3.95-4.75l5.83-3.56Z"/><path class="cls-13" d="M814.65,374.85c1.11-6.16,2.89-12.12,5.34-17.88l9,1.27c-.87,2.05-1.64,4.11-2.34,6.19-.68,2.11-1.3,4.23-1.84,6.37,1.28-.14,2.51,.08,3.67,.66,1.18,.54,2.1,1.35,2.75,2.41,.73,1.14,1.55,2.22,2.45,3.23,.9,1,1.87,1.96,2.91,2.87,.27,.17,.56,.28,.87,.34,.35,.08,.68,.08,.99,0,.34-.11,.6-.29,.81-.54,.27-.26,.47-.54,.59-.83,.2-.94,.36-1.87,.48-2.78,.08-.91,.06-1.84-.07-2.8l7.89-.29c.1,1.69,.07,3.39-.12,5.12-.23,1.67-.61,3.33-1.14,4.97-.36,.98-.85,1.9-1.47,2.77-.59,.86-1.29,1.62-2.13,2.29-1.17,.9-2.47,1.42-3.88,1.56-1.48,.15-2.88-.12-4.2-.83-1.75-.97-3.34-2.12-4.78-3.46-1.45-1.37-2.72-2.91-3.82-4.63-.4-.56-.95-.93-1.64-1.09-.7-.2-1.36-.12-1.98,.22-.37,2.33-.65,4.67-.85,7.02-.16,2.38-.26,4.76-.28,7.14l-8.48-.75c-.27-6.27,.15-12.45,1.28-18.55"/><path class="cls-13" d="M867.88,369.42c-.99,1.92-1.82,3.87-2.46,5.87-.59,2.09-1.03,4.2-1.31,6.34l-7.38-2.55c.3-2.18,.83-4.31,1.59-6.41,.75-2.12,1.7-4.13,2.87-6.02l6.69,2.76Zm-6.56-21.18c1.32-.94,2.71-1.78,4.15-2.52,1.7-.87,3.52-1.15,5.43-.85,1.91,.27,3.55,1.07,4.92,2.39,.97,.89,1.67,1.97,2.11,3.25,.42,1.25,.51,2.52,.26,3.8-.16,.99-.47,1.89-.94,2.69-.5,.81-1.12,1.52-1.87,2.13,1-.21,2.01-.2,3.02,.02,1.01,.22,1.92,.61,2.75,1.17,.97,.63,1.77,1.43,2.4,2.4,.59,.95,1.01,1.97,1.27,3.06,.27,1.29,.4,2.59,.39,3.92-.09,1.3-.36,2.59-.82,3.85-.51,1.58-1.23,3.06-2.15,4.47-.9,1.37-1.95,2.61-3.17,3.72l-7.62-4.41c1.16-1.07,2.17-2.25,3.02-3.53,.86-1.26,1.52-2.62,2-4.08,.18-.6,.19-1.2,.02-1.78-.15-.62-.43-1.13-.85-1.52-.51-.47-1.09-.78-1.75-.92-.66-.14-1.31-.1-1.95,.11-.69,.3-1.34,.67-1.96,1.11-.63,.41-1.18,.91-1.67,1.48l-3.89-7.87c1.24-.59,2.35-1.36,3.3-2.32,.98-.99,1.75-2.11,2.32-3.37,.13-.26,.19-.52,.16-.78-.06-.25-.18-.48-.36-.71-.18-.19-.41-.31-.68-.38-.26-.1-.52-.1-.79,0-.37,.12-.71,.27-1.03,.44-.32,.17-.65,.37-1,.58-.74,.5-1.42,1.03-2.05,1.57-.66,.55-1.29,1.14-1.9,1.78l-4.63-5.77c1.11-1.16,2.31-2.2,3.61-3.13m21.62-2.81c.87,1.04,1.72,2.13,2.55,3.25,.89,1.11,1.66,2.26,2.3,3.45l-3.66,2.06c-.65-1.19-1.37-2.36-2.16-3.49-.83-1.12-1.69-2.18-2.59-3.19l3.56-2.08Zm4.98-1.93c.85,.95,1.65,1.93,2.38,2.95,.74,1.04,1.41,2.12,2,3.23l-3.45,1.9c-.69-1.09-1.4-2.15-2.14-3.2-.75-1.07-1.57-2.08-2.45-3.02l3.66-1.86Zm3.68,16.52c1.43,1.44,2.7,2.99,3.82,4.63,1.15,1.64,2.15,3.38,3.02,5.21l-5.43,3.57c-.92-1.79-2.02-3.49-3.29-5.1-1.22-1.69-2.54-3.27-3.95-4.75l5.83-3.56Z"/><path class="cls-13" d="M908.23,352.62c1.11-6.16,2.89-12.12,5.34-17.88l9,1.27c-.86,2.05-1.64,4.11-2.34,6.19-.68,2.11-1.3,4.23-1.84,6.37,1.28-.14,2.51,.08,3.67,.66,1.18,.54,2.1,1.35,2.75,2.41,.73,1.14,1.55,2.22,2.45,3.23,.9,1.01,1.86,1.96,2.91,2.87,.27,.17,.56,.28,.87,.34,.35,.08,.68,.08,.99,0,.34-.11,.61-.29,.81-.54,.27-.27,.46-.54,.59-.84,.2-.94,.37-1.86,.48-2.78,.08-.91,.06-1.84-.07-2.8l7.89-.29c.1,1.69,.07,3.39-.12,5.12-.23,1.67-.61,3.33-1.14,4.97-.36,.98-.85,1.9-1.47,2.77-.59,.86-1.3,1.62-2.13,2.28-1.17,.9-2.47,1.42-3.88,1.56-1.48,.15-2.88-.12-4.2-.83-1.75-.97-3.34-2.12-4.78-3.46-1.45-1.37-2.72-2.91-3.82-4.63-.4-.56-.94-.93-1.64-1.09-.71-.19-1.36-.12-1.98,.22-.37,2.33-.65,4.67-.85,7.02-.16,2.38-.26,4.76-.29,7.13l-8.48-.75c-.27-6.26,.15-12.45,1.28-18.55"/><path class="cls-12" d="M833.71,280.41c1.56,7.09,.53,13.14-3.09,18.16-3.66,4.86-8.55,7.96-14.66,9.31-6.6,1.46-12.57,.83-17.89-1.88-6.04-2.89-9.86-7.96-11.46-15.2l-11.18-50.72c-1.53-6.92-4.32-11.54-8.38-13.86-4.05-2.31-10.19-2.57-18.4-.76-6.93,1.53-12.29,4.4-16.08,8.61-4.53,4.72-6.04,10.54-4.51,17.46l10.86,49.27c1.67,7.57,.31,14.03-4.08,19.39-3.89,4.57-9.3,7.62-16.22,9.15-5.8,1.28-11.33,.3-16.6-2.92-5.11-3.26-8.43-8.35-9.95-15.28l-20.02-90.82c-2.98-13.52,3.09-21.96,18.23-25.3,6.76-1.49,12.27-1.01,16.52,1.42,3.47,1.94,5.57,4.6,6.32,7.98,6.35-11.02,17.98-18.4,34.89-22.13,40.73-8.98,65.19,5.04,73.35,42.08l12.36,56.04Z"/><path class="cls-2" d="M833.71,280.41c1.56,7.09,.53,13.14-3.09,18.16-3.66,4.86-8.55,7.96-14.66,9.31-6.6,1.46-12.57,.83-17.89-1.88-6.04-2.89-9.86-7.96-11.46-15.2l-11.18-50.72c-1.53-6.92-4.32-11.54-8.38-13.86-4.05-2.31-10.19-2.57-18.4-.76-6.93,1.53-12.29,4.4-16.08,8.61-4.53,4.72-6.04,10.54-4.51,17.46l10.86,49.27c1.67,7.57,.31,14.03-4.08,19.39-3.89,4.57-9.3,7.62-16.22,9.15-5.8,1.28-11.33,.3-16.6-2.92-5.11-3.26-8.43-8.35-9.95-15.28l-20.02-90.82c-2.98-13.52,3.09-21.96,18.23-25.3,6.76-1.49,12.27-1.01,16.52,1.42,3.47,1.94,5.57,4.6,6.32,7.98,6.35-11.02,17.98-18.4,34.89-22.13,40.73-8.98,65.19,5.04,73.35,42.08l12.36,56.04Z"/><path class="cls-10" d="M1022.94,511c.31,7.25-1.76,13.03-6.19,17.34-4.45,4.15-9.8,6.36-16.06,6.62-6.76,.29-12.52-1.37-17.29-4.96-5.45-3.9-8.33-9.55-8.64-16.96l-2.21-51.89c-.3-7.08-2.25-12.12-5.84-15.1-3.59-2.98-9.59-4.3-17.99-3.94-7.09,.3-12.86,2.2-17.33,5.69-5.28,3.86-7.77,9.33-7.47,16.41l2.14,50.41c.33,7.75-2.13,13.87-7.39,18.39-4.63,3.82-10.48,5.89-17.56,6.19-5.93,.25-11.21-1.67-15.84-5.76-4.47-4.1-6.85-9.69-7.15-16.78l-3.95-92.91c-.59-13.84,6.86-21.08,22.35-21.74,6.92-.29,12.26,1.13,16.03,4.27,3.08,2.51,4.69,5.49,4.84,8.95,8.17-9.75,20.9-15,38.2-15.73,41.68-1.77,63.32,16.29,64.93,54.18l2.44,57.33Z"/><path class="cls-2" d="M1022.94,511c.31,7.25-1.76,13.03-6.19,17.34-4.45,4.15-9.8,6.36-16.06,6.62-6.76,.29-12.52-1.37-17.29-4.96-5.45-3.9-8.33-9.55-8.64-16.96l-2.21-51.89c-.3-7.08-2.25-12.12-5.84-15.1-3.59-2.98-9.59-4.3-17.99-3.94-7.09,.3-12.86,2.2-17.33,5.69-5.28,3.86-7.77,9.33-7.47,16.41l2.14,50.41c.33,7.75-2.13,13.87-7.39,18.39-4.63,3.82-10.48,5.89-17.56,6.19-5.93,.25-11.21-1.67-15.84-5.76-4.47-4.1-6.85-9.69-7.15-16.78l-3.95-92.91c-.59-13.84,6.86-21.08,22.35-21.74,6.92-.29,12.26,1.13,16.03,4.27,3.08,2.51,4.69,5.49,4.84,8.95,8.17-9.75,20.9-15,38.2-15.73,41.68-1.77,63.32,16.29,64.93,54.18l2.44,57.33Z"/><path class="cls-11" d="M774.47,387.48c-.99,1.92-1.82,3.87-2.46,5.87-.59,2.09-1.03,4.2-1.31,6.34l-7.38-2.55c.31-2.18,.84-4.31,1.59-6.41,.75-2.12,1.7-4.13,2.87-6.02l6.69,2.76Zm-6.56-21.18c1.33-.94,2.71-1.78,4.15-2.52,1.7-.87,3.51-1.15,5.43-.85,1.91,.27,3.55,1.07,4.92,2.39,.97,.89,1.67,1.98,2.11,3.25,.43,1.25,.51,2.52,.26,3.8-.16,.99-.47,1.89-.94,2.69-.5,.81-1.12,1.52-1.87,2.13,1-.21,2.01-.2,3.02,.02,1.01,.22,1.92,.61,2.75,1.17,.97,.63,1.77,1.43,2.4,2.4,.59,.95,1.01,1.97,1.27,3.06,.27,1.29,.4,2.59,.39,3.91-.09,1.3-.36,2.59-.82,3.85-.51,1.57-1.23,3.06-2.15,4.46-.9,1.37-1.95,2.61-3.17,3.72l-7.62-4.42c1.16-1.07,2.17-2.25,3.02-3.53,.86-1.26,1.52-2.62,2-4.08,.18-.6,.19-1.2,.02-1.78-.15-.62-.43-1.13-.85-1.52-.51-.47-1.09-.78-1.75-.92-.66-.14-1.31-.1-1.95,.11-.69,.3-1.34,.67-1.96,1.11-.63,.41-1.18,.9-1.67,1.48l-3.89-7.88c1.24-.59,2.35-1.36,3.3-2.32,.98-.99,1.75-2.11,2.32-3.37,.13-.26,.19-.52,.16-.78-.06-.25-.18-.48-.36-.7-.18-.19-.41-.31-.68-.38-.26-.1-.52-.1-.79,0-.37,.12-.71,.27-1.03,.44-.32,.17-.65,.37-1,.58-.74,.5-1.42,1.03-2.05,1.57-.66,.55-1.29,1.15-1.9,1.79l-4.63-5.77c1.11-1.16,2.31-2.2,3.61-3.13m21.62-2.81c.87,1.04,1.72,2.13,2.55,3.25,.89,1.11,1.66,2.26,2.3,3.46l-3.66,2.06c-.65-1.2-1.37-2.36-2.16-3.49-.83-1.12-1.69-2.18-2.59-3.19l3.56-2.08Zm4.98-1.92c.85,.95,1.64,1.93,2.38,2.95,.74,1.04,1.41,2.12,2,3.23l-3.45,1.91c-.69-1.09-1.4-2.15-2.14-3.2-.75-1.07-1.56-2.08-2.45-3.02l3.66-1.86Zm3.68,16.52c1.43,1.44,2.7,2.99,3.82,4.63,1.15,1.64,2.15,3.38,3.02,5.21l-5.43,3.56c-.92-1.79-2.02-3.49-3.29-5.1-1.22-1.69-2.54-3.27-3.95-4.75l5.83-3.56Z"/><path class="cls-7" d="M774.47,387.48c-.99,1.92-1.82,3.87-2.46,5.87-.59,2.09-1.03,4.2-1.31,6.34l-7.38-2.55c.31-2.18,.84-4.31,1.59-6.41,.75-2.12,1.7-4.13,2.87-6.02l6.69,2.76Zm-6.56-21.18c1.33-.94,2.71-1.78,4.15-2.52,1.7-.87,3.51-1.15,5.43-.85,1.91,.27,3.55,1.07,4.92,2.39,.97,.89,1.67,1.98,2.11,3.25,.43,1.25,.51,2.52,.26,3.8-.16,.99-.47,1.89-.94,2.69-.5,.81-1.12,1.52-1.87,2.13,1-.21,2.01-.2,3.02,.02,1.01,.22,1.92,.61,2.75,1.17,.97,.63,1.77,1.43,2.4,2.4,.59,.95,1.01,1.97,1.27,3.06,.27,1.29,.4,2.59,.39,3.91-.09,1.3-.36,2.59-.82,3.85-.51,1.57-1.23,3.06-2.15,4.46-.9,1.37-1.95,2.61-3.17,3.72l-7.62-4.42c1.16-1.07,2.17-2.25,3.02-3.53,.86-1.26,1.52-2.62,2-4.08,.18-.6,.19-1.2,.02-1.78-.15-.62-.43-1.13-.85-1.52-.51-.47-1.09-.78-1.75-.92-.66-.14-1.31-.1-1.95,.11-.69,.3-1.34,.67-1.96,1.11-.63,.41-1.18,.9-1.67,1.48l-3.89-7.88c1.24-.59,2.35-1.36,3.3-2.32,.98-.99,1.75-2.11,2.32-3.37,.13-.26,.19-.52,.16-.78-.06-.25-.18-.48-.36-.7-.18-.19-.41-.31-.68-.38-.26-.1-.52-.1-.79,0-.37,.12-.71,.27-1.03,.44-.32,.17-.65,.37-1,.58-.74,.5-1.42,1.03-2.05,1.57-.66,.55-1.29,1.15-1.9,1.79l-4.63-5.77c1.11-1.16,2.31-2.2,3.61-3.13Zm21.62-2.81c.87,1.04,1.72,2.13,2.55,3.25,.89,1.11,1.66,2.26,2.3,3.46l-3.66,2.06c-.65-1.2-1.37-2.36-2.16-3.49-.83-1.12-1.69-2.18-2.59-3.19l3.56-2.08Zm4.98-1.92c.85,.95,1.64,1.93,2.38,2.95,.74,1.04,1.41,2.12,2,3.23l-3.45,1.91c-.69-1.09-1.4-2.15-2.14-3.2-.75-1.07-1.56-2.08-2.45-3.02l3.66-1.86Zm3.68,16.52c1.43,1.44,2.7,2.99,3.82,4.63,1.15,1.64,2.15,3.38,3.02,5.21l-5.43,3.56c-.92-1.79-2.02-3.49-3.29-5.1-1.22-1.69-2.54-3.27-3.95-4.75l5.83-3.56Z"/><path class="cls-11" d="M814.82,370.68c1.11-6.16,2.89-12.12,5.34-17.88l9,1.27c-.87,2.05-1.64,4.11-2.34,6.19-.68,2.11-1.3,4.23-1.84,6.37,1.28-.14,2.51,.08,3.67,.66,1.18,.54,2.1,1.35,2.75,2.41,.73,1.14,1.55,2.22,2.45,3.23,.9,1,1.87,1.96,2.91,2.87,.27,.17,.56,.28,.87,.34,.35,.08,.68,.08,.99,0,.34-.11,.6-.29,.81-.54,.27-.26,.47-.54,.59-.83,.2-.94,.36-1.87,.48-2.78,.08-.91,.06-1.84-.07-2.8l7.89-.29c.1,1.69,.07,3.39-.12,5.12-.23,1.67-.61,3.33-1.14,4.97-.36,.98-.85,1.9-1.47,2.77-.59,.86-1.29,1.62-2.13,2.29-1.17,.9-2.47,1.42-3.88,1.56-1.48,.15-2.88-.12-4.2-.83-1.75-.97-3.34-2.12-4.78-3.46-1.45-1.37-2.72-2.91-3.82-4.63-.4-.56-.95-.93-1.64-1.09-.7-.2-1.36-.12-1.98,.22-.37,2.33-.65,4.67-.85,7.02-.16,2.38-.26,4.76-.28,7.14l-8.48-.75c-.27-6.27,.15-12.45,1.28-18.55"/><path class="cls-7" d="M814.82,370.68c1.11-6.16,2.89-12.12,5.34-17.88l9,1.27c-.87,2.05-1.64,4.11-2.34,6.19-.68,2.11-1.3,4.23-1.84,6.37,1.28-.14,2.51,.08,3.67,.66,1.18,.54,2.1,1.35,2.75,2.41,.73,1.14,1.55,2.22,2.45,3.23,.9,1,1.87,1.96,2.91,2.87,.27,.17,.56,.28,.87,.34,.35,.08,.68,.08,.99,0,.34-.11,.6-.29,.81-.54,.27-.26,.47-.54,.59-.83,.2-.94,.36-1.87,.48-2.78,.08-.91,.06-1.84-.07-2.8l7.89-.29c.1,1.69,.07,3.39-.12,5.12-.23,1.67-.61,3.33-1.14,4.97-.36,.98-.85,1.9-1.47,2.77-.59,.86-1.29,1.62-2.13,2.29-1.17,.9-2.47,1.42-3.88,1.56-1.48,.15-2.88-.12-4.2-.83-1.75-.97-3.34-2.12-4.78-3.46-1.45-1.37-2.72-2.91-3.82-4.63-.4-.56-.95-.93-1.64-1.09-.7-.2-1.36-.12-1.98,.22-.37,2.33-.65,4.67-.85,7.02-.16,2.38-.26,4.76-.28,7.14l-8.48-.75c-.27-6.27,.15-12.45,1.28-18.55Z"/><path class="cls-11" d="M868.05,365.25c-.99,1.92-1.82,3.87-2.46,5.87-.59,2.09-1.03,4.2-1.31,6.34l-7.38-2.55c.3-2.18,.83-4.31,1.59-6.41,.75-2.12,1.7-4.13,2.87-6.02l6.69,2.76Zm-6.56-21.18c1.32-.94,2.71-1.78,4.15-2.52,1.7-.87,3.52-1.15,5.43-.85,1.91,.27,3.55,1.07,4.92,2.39,.97,.89,1.67,1.97,2.11,3.25,.42,1.25,.51,2.52,.26,3.8-.16,.99-.47,1.89-.94,2.69-.5,.81-1.12,1.52-1.87,2.13,1-.21,2.01-.2,3.02,.02,1.01,.22,1.92,.61,2.75,1.17,.97,.63,1.77,1.43,2.4,2.4,.59,.95,1.01,1.97,1.27,3.06,.27,1.29,.4,2.59,.39,3.92-.09,1.3-.36,2.59-.82,3.85-.51,1.57-1.23,3.06-2.15,4.47-.9,1.37-1.95,2.61-3.17,3.72l-7.62-4.41c1.16-1.07,2.17-2.25,3.02-3.53,.86-1.26,1.52-2.62,2-4.08,.18-.6,.19-1.2,.02-1.78-.15-.62-.43-1.13-.85-1.52-.51-.47-1.09-.78-1.75-.92-.66-.14-1.31-.1-1.95,.11-.69,.3-1.34,.67-1.96,1.11-.63,.41-1.18,.91-1.67,1.48l-3.89-7.87c1.24-.59,2.35-1.36,3.3-2.32,.98-.99,1.75-2.11,2.32-3.37,.13-.26,.19-.52,.16-.78-.06-.25-.18-.48-.36-.71-.18-.19-.41-.31-.68-.38-.26-.1-.52-.1-.79,0-.37,.12-.71,.27-1.03,.44-.32,.17-.65,.37-1,.58-.74,.5-1.42,1.03-2.05,1.57-.66,.55-1.29,1.14-1.9,1.78l-4.63-5.77c1.11-1.16,2.31-2.2,3.61-3.13m21.62-2.81c.87,1.04,1.72,2.13,2.55,3.25,.89,1.11,1.66,2.26,2.3,3.45l-3.66,2.06c-.65-1.19-1.37-2.36-2.16-3.49-.83-1.12-1.69-2.18-2.59-3.19l3.56-2.08Zm4.98-1.93c.85,.95,1.65,1.93,2.38,2.95,.74,1.04,1.41,2.12,2,3.23l-3.45,1.9c-.69-1.09-1.4-2.15-2.14-3.2-.75-1.07-1.57-2.08-2.45-3.02l3.66-1.86Zm3.68,16.52c1.43,1.44,2.7,2.99,3.82,4.63,1.15,1.64,2.15,3.38,3.02,5.21l-5.43,3.57c-.92-1.79-2.02-3.49-3.29-5.1-1.22-1.69-2.54-3.27-3.95-4.75l5.83-3.56Z"/><path class="cls-7" d="M868.05,365.25c-.99,1.92-1.82,3.87-2.46,5.87-.59,2.09-1.03,4.2-1.31,6.34l-7.38-2.55c.3-2.18,.83-4.31,1.59-6.41,.75-2.12,1.7-4.13,2.87-6.02l6.69,2.76Zm-6.56-21.18c1.32-.94,2.71-1.78,4.15-2.52,1.7-.87,3.52-1.15,5.43-.85,1.91,.27,3.55,1.07,4.92,2.39,.97,.89,1.67,1.97,2.11,3.25,.42,1.25,.51,2.52,.26,3.8-.16,.99-.47,1.89-.94,2.69-.5,.81-1.12,1.52-1.87,2.13,1-.21,2.01-.2,3.02,.02,1.01,.22,1.92,.61,2.75,1.17,.97,.63,1.77,1.43,2.4,2.4,.59,.95,1.01,1.97,1.27,3.06,.27,1.29,.4,2.59,.39,3.92-.09,1.3-.36,2.59-.82,3.85-.51,1.57-1.23,3.06-2.15,4.47-.9,1.37-1.95,2.61-3.17,3.72l-7.62-4.41c1.16-1.07,2.17-2.25,3.02-3.53,.86-1.26,1.52-2.62,2-4.08,.18-.6,.19-1.2,.02-1.78-.15-.62-.43-1.13-.85-1.52-.51-.47-1.09-.78-1.75-.92-.66-.14-1.31-.1-1.95,.11-.69,.3-1.34,.67-1.96,1.11-.63,.41-1.18,.91-1.67,1.48l-3.89-7.87c1.24-.59,2.35-1.36,3.3-2.32,.98-.99,1.75-2.11,2.32-3.37,.13-.26,.19-.52,.16-.78-.06-.25-.18-.48-.36-.71-.18-.19-.41-.31-.68-.38-.26-.1-.52-.1-.79,0-.37,.12-.71,.27-1.03,.44-.32,.17-.65,.37-1,.58-.74,.5-1.42,1.03-2.05,1.57-.66,.55-1.29,1.14-1.9,1.78l-4.63-5.77c1.11-1.16,2.31-2.2,3.61-3.13Zm21.62-2.81c.87,1.04,1.72,2.13,2.55,3.25,.89,1.11,1.66,2.26,2.3,3.45l-3.66,2.06c-.65-1.19-1.37-2.36-2.16-3.49-.83-1.12-1.69-2.18-2.59-3.19l3.56-2.08Zm4.98-1.93c.85,.95,1.65,1.93,2.38,2.95,.74,1.04,1.41,2.12,2,3.23l-3.45,1.9c-.69-1.09-1.4-2.15-2.14-3.2-.75-1.07-1.57-2.08-2.45-3.02l3.66-1.86Zm3.68,16.52c1.43,1.44,2.7,2.99,3.82,4.63,1.15,1.64,2.15,3.38,3.02,5.21l-5.43,3.57c-.92-1.79-2.02-3.49-3.29-5.1-1.22-1.69-2.54-3.27-3.95-4.75l5.83-3.56Z"/><path class="cls-11" d="M908.4,348.45c1.11-6.16,2.89-12.12,5.34-17.88l9,1.27c-.86,2.05-1.64,4.11-2.34,6.19-.68,2.11-1.3,4.23-1.84,6.37,1.28-.14,2.51,.08,3.67,.66,1.18,.54,2.1,1.35,2.75,2.41,.73,1.14,1.55,2.22,2.45,3.23,.9,1.01,1.86,1.96,2.91,2.87,.27,.17,.56,.28,.87,.34,.35,.08,.68,.08,.99,0,.34-.11,.61-.29,.81-.54,.27-.27,.46-.54,.59-.84,.2-.94,.36-1.86,.48-2.78,.08-.91,.06-1.84-.07-2.8l7.89-.29c.1,1.69,.07,3.39-.12,5.12-.23,1.67-.61,3.33-1.14,4.97-.36,.98-.85,1.9-1.47,2.77-.59,.86-1.3,1.62-2.13,2.28-1.17,.9-2.47,1.42-3.88,1.56-1.48,.15-2.88-.12-4.2-.83-1.75-.97-3.34-2.12-4.78-3.46-1.45-1.37-2.72-2.91-3.82-4.63-.4-.56-.94-.93-1.64-1.09-.71-.19-1.36-.12-1.98,.22-.37,2.33-.65,4.67-.85,7.02-.16,2.38-.26,4.76-.29,7.13l-8.48-.75c-.27-6.26,.15-12.45,1.28-18.55"/><path class="cls-7" d="M908.4,348.45c1.11-6.16,2.89-12.12,5.34-17.88l9,1.27c-.86,2.05-1.64,4.11-2.34,6.19-.68,2.11-1.3,4.23-1.84,6.37,1.28-.14,2.51,.08,3.67,.66,1.18,.54,2.1,1.35,2.75,2.41,.73,1.14,1.55,2.22,2.45,3.23,.9,1.01,1.86,1.96,2.91,2.87,.27,.17,.56,.28,.87,.34,.35,.08,.68,.08,.99,0,.34-.11,.61-.29,.81-.54,.27-.27,.46-.54,.59-.84,.2-.94,.36-1.86,.48-2.78,.08-.91,.06-1.84-.07-2.8l7.89-.29c.1,1.69,.07,3.39-.12,5.12-.23,1.67-.61,3.33-1.14,4.97-.36,.98-.85,1.9-1.47,2.77-.59,.86-1.3,1.62-2.13,2.28-1.17,.9-2.47,1.42-3.88,1.56-1.48,.15-2.88-.12-4.2-.83-1.75-.97-3.34-2.12-4.78-3.46-1.45-1.37-2.72-2.91-3.82-4.63-.4-.56-.94-.93-1.64-1.09-.71-.19-1.36-.12-1.98,.22-.37,2.33-.65,4.67-.85,7.02-.16,2.38-.26,4.76-.29,7.13l-8.48-.75c-.27-6.26,.15-12.45,1.28-18.55Z"/><path class="cls-12" d="M695.72,342.6c-.34,6.76-2.68,12.25-7.01,16.49-4.34,4.24-10.46,6.17-18.36,5.77-3.95-.2-8.25-1.81-12.88-4.85-4.48-2.87-6.65-5.78-6.5-8.74-.58,1.79-3.66,3.94-9.24,6.48-7.44,3.42-15.6,4.92-24.49,4.48-43.97-2.19-65.06-21.23-63.28-57.13l2.97-59.78c.37-7.41,3.21-13.13,8.53-17.16,4.8-3.72,10.5-5.42,17.09-5.09,6.42,.32,11.92,2.66,16.49,7.01,4.4,4.35,6.43,10.23,6.06,17.63l-2.53,50.89c-.65,13.18,6.01,20.11,20.02,20.81,6.92,.34,13.11-1.41,18.59-5.27,5.3-3.7,8.09-8.35,8.37-13.95l2.51-50.39c.36-7.25,2.95-12.81,7.76-16.7,4.81-3.88,10.43-5.67,16.86-5.35,6.75,.34,12.34,2.51,16.76,6.53,4.89,4.54,7.15,10.51,6.79,17.92l-4.5,90.41Z"/><path class="cls-2" d="M695.72,342.6c-.34,6.76-2.68,12.25-7.01,16.49-4.34,4.24-10.46,6.17-18.36,5.77-3.95-.2-8.25-1.81-12.88-4.85-4.48-2.87-6.65-5.78-6.5-8.74-.58,1.79-3.66,3.94-9.24,6.48-7.44,3.42-15.6,4.92-24.49,4.48-43.97-2.19-65.06-21.23-63.28-57.13l2.97-59.78c.37-7.41,3.21-13.13,8.53-17.16,4.8-3.72,10.5-5.42,17.09-5.09,6.42,.32,11.92,2.66,16.49,7.01,4.4,4.35,6.43,10.23,6.06,17.63l-2.53,50.89c-.65,13.18,6.01,20.11,20.02,20.81,6.92,.34,13.11-1.41,18.59-5.27,5.3-3.7,8.09-8.35,8.37-13.95l2.51-50.39c.36-7.25,2.95-12.81,7.76-16.7,4.81-3.88,10.43-5.67,16.86-5.35,6.75,.34,12.34,2.51,16.76,6.53,4.89,4.54,7.15,10.51,6.79,17.92l-4.5,90.41Z"/><path class="cls-10" d="M903.39,533.3c2.19,6.4,2.05,12.37-.4,17.92-2.46,5.55-7.43,9.6-14.92,12.17-3.74,1.28-8.33,1.37-13.76,.27-5.22-1-8.32-2.9-9.28-5.71,.12,1.88-1.94,5.02-6.18,9.44-5.64,5.94-12.67,10.35-21.09,13.24-41.65,14.27-68.3,4.4-79.95-29.61l-19.4-56.63c-2.4-7.02-1.88-13.38,1.56-19.1,3.08-5.24,7.75-8.93,13.99-11.07,6.08-2.08,12.06-1.95,17.92,.4,5.7,2.4,9.76,7.11,12.16,14.13l16.51,48.2c4.27,12.48,13.04,16.45,26.3,11.91,6.55-2.25,11.65-6.17,15.31-11.78,3.55-5.4,4.42-10.75,2.6-16.06l-16.35-47.73c-2.35-6.86-2.01-12.99,1.02-18.39,3.03-5.39,7.59-9.14,13.67-11.22,6.4-2.19,12.39-2.24,17.99-.15,6.22,2.4,10.54,7.11,12.94,14.13l29.33,85.64Z"/><path class="cls-2" d="M903.39,533.3c2.19,6.4,2.05,12.37-.4,17.92-2.46,5.55-7.43,9.6-14.92,12.17-3.74,1.28-8.33,1.37-13.76,.27-5.22-1-8.32-2.9-9.28-5.71,.12,1.88-1.94,5.02-6.18,9.44-5.64,5.94-12.67,10.35-21.09,13.24-41.65,14.27-68.3,4.4-79.95-29.61l-19.4-56.63c-2.4-7.02-1.88-13.38,1.56-19.1,3.08-5.24,7.75-8.93,13.99-11.07,6.08-2.08,12.06-1.95,17.92,.4,5.7,2.4,9.76,7.11,12.16,14.13l16.51,48.2c4.27,12.48,13.04,16.45,26.3,11.91,6.55-2.25,11.65-6.17,15.31-11.78,3.55-5.4,4.42-10.75,2.6-16.06l-16.35-47.73c-2.35-6.86-2.01-12.99,1.02-18.39,3.03-5.39,7.59-9.14,13.67-11.22,6.4-2.19,12.39-2.24,17.99-.15,6.22,2.4,10.54,7.11,12.94,14.13l29.33,85.64Z"/><path class="cls-12" d="M571.9,268.42c-1.55-8.6-4.39-15.55-8.52-20.83-5.87-7.49-15.29-13.25-28.24-17.28,12.99-7.87,17.85-20.89,14.58-39.06-6.05-33.59-29.36-46.74-69.93-39.43l-78.62,14.15c-9.25,1.66-16.59,5.58-22.01,11.75-5.66,6.72-7.66,14.7-5.99,23.95l22.83,126.82c.31,1.71,.72,3.3,1.18,4.85l3.13,18.77c1.08,6.46,4.28,11.2,9.62,14.24,4.7,2.84,10.06,3.75,16.07,2.75,6.17-1.03,11.16-3.67,14.98-7.93,2.42-2.72,3.88-5.85,4.4-9.39l71.6-12.89c43.65-7.86,61.96-31.34,54.92-70.45m-135.9-54.58c-3.1-17.32,5.18-33.29,18.5-35.68,13.32-2.39,26.64,9.71,29.74,27.03,3.1,17.32-5.18,33.29-18.5,35.67-13.32,2.39-26.64-9.71-29.74-27.03m44.88,111.48c-13.32,2.39-26.64-9.71-29.74-27.03-3.1-17.32,5.18-33.29,18.5-35.68,13.32-2.39,26.64,9.71,29.74,27.03,3.1,17.31-5.18,33.29-18.5,35.67"/><path class="cls-2" d="M571.9,268.42c-1.55-8.6-4.39-15.55-8.52-20.83-5.87-7.49-15.29-13.25-28.24-17.28,12.99-7.87,17.85-20.89,14.58-39.06-6.05-33.59-29.36-46.74-69.93-39.43l-78.62,14.15c-9.25,1.66-16.59,5.58-22.01,11.75-5.66,6.72-7.66,14.7-5.99,23.95l22.83,126.82c.31,1.71,.72,3.3,1.18,4.85l3.13,18.77c1.08,6.46,4.28,11.2,9.62,14.24,4.7,2.84,10.06,3.75,16.07,2.75,6.17-1.03,11.16-3.67,14.98-7.93,2.42-2.72,3.88-5.85,4.4-9.39l71.6-12.89c43.65-7.86,61.96-31.34,54.92-70.45Zm-135.9-54.58c-3.1-17.32,5.18-33.29,18.5-35.68,13.32-2.39,26.64,9.71,29.74,27.03,3.1,17.32-5.18,33.29-18.5,35.67-13.32,2.39-26.64-9.71-29.74-27.03Zm44.88,111.48c-13.32,2.39-26.64-9.71-29.74-27.03-3.1-17.32,5.18-33.29,18.5-35.68,13.32-2.39,26.64,9.71,29.74,27.03,3.1,17.31-5.18,33.29-18.5,35.67Z"/><path class="cls-10" d="M754.04,502.03c-1.66-8.58-4.6-15.49-8.8-20.72-5.97-7.41-15.46-13.04-28.47-16.91,12.89-8.04,17.57-21.12,14.06-39.25-6.49-33.51-29.98-46.34-70.44-38.5l-78.43,15.2c-9.23,1.79-16.51,5.8-21.85,12.04-5.57,6.79-7.46,14.8-5.67,24.03l6.75,34.82,22.44,117.87c1.23,6.44,4.54,11.11,9.94,14.02,4.76,2.73,10.14,3.52,16.14,2.38,6.14-1.17,11.07-3.92,14.79-8.27,2.84-3.34,4.28-7.26,4.33-11.73l71.24-13.8c43.54-8.44,61.54-32.16,53.98-71.17m-136.03-52.5c-2.33-17.44,6.65-33.02,20.06-34.82,13.41-1.8,26.18,10.88,28.51,28.32,2.33,17.44-6.65,33.02-20.06,34.82-13.41,1.8-26.18-10.88-28.51-28.32m42.2,109.32c-13.41,1.79-26.18-10.88-28.51-28.32-2.33-17.44,6.65-33.02,20.06-34.82,13.41-1.79,26.18,10.88,28.51,28.32,2.33,17.44-6.65,33.03-20.06,34.82"/><path class="cls-2" d="M754.04,502.03c-1.66-8.58-4.6-15.49-8.8-20.72-5.97-7.41-15.46-13.04-28.47-16.91,12.89-8.04,17.57-21.12,14.06-39.25-6.49-33.51-29.98-46.34-70.44-38.5l-78.43,15.2c-9.23,1.79-16.51,5.8-21.85,12.04-5.57,6.79-7.46,14.8-5.67,24.03l6.75,34.82,22.44,117.87c1.23,6.44,4.54,11.11,9.94,14.02,4.76,2.73,10.14,3.52,16.14,2.38,6.14-1.17,11.07-3.92,14.79-8.27,2.84-3.34,4.28-7.26,4.33-11.73l71.24-13.8c43.54-8.44,61.54-32.16,53.98-71.17Zm-136.03-52.5c-2.33-17.44,6.65-33.02,20.06-34.82,13.41-1.8,26.18,10.88,28.51,28.32,2.33,17.44-6.65,33.02-20.06,34.82-13.41,1.8-26.18-10.88-28.51-28.32Zm42.2,109.32c-13.41,1.79-26.18-10.88-28.51-28.32-2.33-17.44,6.65-33.02,20.06-34.82,13.41-1.79,26.18,10.88,28.51,28.32,2.33,17.44-6.65,33.03-20.06,34.82Z"/></g></g><polygon class="cls-12" points="237.41 130.29 133.41 190.33 237.41 250.38 237.41 130.29"/><polygon class="cls-12" points="293.65 239.46 253.3 296.66 323.01 303 293.65 239.46"/><polygon class="cls-10" points="1232.86 466.71 1116.86 435.63 1147.94 551.63 1232.86 466.71"/><polygon class="cls-10" points="1085.32 588.8 1054 534.54 1022.67 588.8 1085.32 588.8"/></svg>