<?xml version="1.0" encoding="UTF-8"?><svg xmlns="http://www.w3.org/2000/svg" viewBox="0 0 1231.75 640.84"><defs><style>.cls-1{letter-spacing:-.04em;}.cls-2{letter-spacing:-.18em;}.cls-3{letter-spacing:-.04em;}.cls-4{letter-spacing:-.08em;}.cls-5{letter-spacing:-.04em;}.cls-6{letter-spacing:-.08em;}.cls-7{letter-spacing:-.04em;}.cls-8{letter-spacing:-.07em;}.cls-9{letter-spacing:-.08em;}.cls-10{letter-spacing:-.09em;}.cls-11{letter-spacing:-.09em;}.cls-12{letter-spacing:-.08em;}.cls-13,.cls-14{stroke-width:3px;}.cls-13,.cls-14,.cls-15,.cls-16,.cls-17,.cls-18,.cls-19{stroke-miterlimit:10;}.cls-13,.cls-14,.cls-17,.cls-18,.cls-19{fill:none;}.cls-13,.cls-16,.cls-17{stroke:#f6f;}.cls-14,.cls-18{stroke:#00d6ff;}.cls-20{letter-spacing:-.04em;}.cls-21{letter-spacing:-.08em;}.cls-22{letter-spacing:-.16em;}.cls-23{letter-spacing:-.02em;}.cls-24{letter-spacing:-.05em;}.cls-25{letter-spacing:-.08em;}.cls-26{letter-spacing:-.04em;}.cls-27{letter-spacing:-.08em;}.cls-28{letter-spacing:-.08em;}.cls-29{letter-spacing:-.08em;}.cls-30{letter-spacing:-.08em;}.cls-31{letter-spacing:-.02em;}.cls-32{letter-spacing:-.04em;}.cls-33{letter-spacing:-.08em;}.cls-34{letter-spacing:-.04em;}.cls-35{letter-spacing:-.02em;}.cls-36{letter-spacing:-.04em;}.cls-37{letter-spacing:-.07em;}.cls-38{letter-spacing:-.07em;}.cls-39{letter-spacing:-.13em;}.cls-40{letter-spacing:-.07em;}.cls-41{letter-spacing:-.03em;}.cls-42{letter-spacing:-.04em;}.cls-43{letter-spacing:-.04em;}.cls-15,.cls-19{stroke:#000;}.cls-44{letter-spacing:-.14em;}.cls-45{letter-spacing:-.13em;}.cls-46{fill:#00d6ff;}.cls-47,.cls-16{fill:#f6f;}.cls-48{font-family:KozGoPr6N-Regular-83pv-RKSJ-H, 'Kozuka Gothic Pr6N';}.cls-48,.cls-49{font-size:18px;}.cls-50{letter-spacing:-.12em;}.cls-51{letter-spacing:-.12em;}.cls-52{letter-spacing:-.06em;}.cls-53{letter-spacing:-.02em;}.cls-54{letter-spacing:-.14em;}.cls-55{letter-spacing:-.12em;}.cls-56{letter-spacing:-.09em;}.cls-57{letter-spacing:-.03em;}.cls-16,.cls-17,.cls-18,.cls-19{stroke-width:4px;}.cls-58{letter-spacing:-.11em;}.cls-59{letter-spacing:-.05em;}.cls-60{letter-spacing:0em;}.cls-61{letter-spacing:-.04em;}.cls-62{letter-spacing:-.11em;}.cls-63{letter-spacing:-.1em;}.cls-64{letter-spacing:-.1em;}.cls-65{letter-spacing:-.18em;}.cls-66{letter-spacing:-.05em;}.cls-67{letter-spacing:0em;}.cls-68{letter-spacing:-.05em;}.cls-69{letter-spacing:-.01em;}.cls-70{letter-spacing:0em;}.cls-71{letter-spacing:-.01em;}.cls-72{letter-spacing:-.1em;}.cls-73{letter-spacing:-.04em;}.cls-74{letter-spacing:-.08em;}.cls-75{letter-spacing:-.05em;}.cls-76{letter-spacing:-.1em;}.cls-77{letter-spacing:-.07em;}.cls-78{letter-spacing:-.02em;}.cls-79{letter-spacing:-.07em;}.cls-80{letter-spacing:-.07em;}.cls-81{letter-spacing:-.04em;}.cls-82{letter-spacing:-.04em;}.cls-83{letter-spacing:-.04em;}.cls-84{letter-spacing:-.17em;}.cls-85{letter-spacing:-.04em;}.cls-86{letter-spacing:-.17em;}.cls-87{letter-spacing:-.01em;}.cls-88{letter-spacing:-.11em;}.cls-89{letter-spacing:-.1em;}.cls-90{letter-spacing:-.11em;}.cls-91{letter-spacing:-.12em;}.cls-92{letter-spacing:-.06em;}.cls-93{letter-spacing:-.05em;}.cls-94{letter-spacing:.02em;}.cls-95{letter-spacing:-.06em;}.cls-96{letter-spacing:-.06em;}.cls-97{font-size:80px;}.cls-97,.cls-49{font-family:HiraKakuProN-W3-83pv-RKSJ-H, 'Hiragino Kaku Gothic ProN';}.cls-98{letter-spacing:-.11em;}.cls-99{letter-spacing:-.11em;}.cls-100{letter-spacing:-.06em;}.cls-101{letter-spacing:-.06em;}.cls-102{letter-spacing:-.11em;}.cls-103{letter-spacing:-.01em;}.cls-104{letter-spacing:-.06em;}.cls-105{letter-spacing:.02em;}.cls-106{letter-spacing:-.06em;}.cls-107{letter-spacing:-.12em;}.cls-108{letter-spacing:0em;}.cls-109{letter-spacing:0em;}.cls-110{letter-spacing:-.12em;}.cls-111{letter-spacing:-.12em;}.cls-112{letter-spacing:-.1em;}.cls-113{letter-spacing:-.05em;}.cls-114{letter-spacing:-.03em;}.cls-115{letter-spacing:-.05em;}.cls-116{letter-spacing:0em;}.cls-117{letter-spacing:-.09em;}.cls-118{letter-spacing:-.1em;}.cls-119{letter-spacing:-.02em;}.cls-120{letter-spacing:-.1em;}.cls-121{letter-spacing:-.1em;}.cls-122{letter-spacing:-.09em;}.cls-123{letter-spacing:-.09em;}.cls-124{letter-spacing:-.09em;}.cls-125{letter-spacing:-.05em;}.cls-126{letter-spacing:-.2em;}.cls-127{letter-spacing:-.09em;}.cls-128{letter-spacing:-.09em;}.cls-129{letter-spacing:-.09em;}.cls-130{letter-spacing:0em;}.cls-131{letter-spacing:-.06em;}.cls-132{letter-spacing:-.06em;}.cls-133{letter-spacing:-.12em;}.cls-134{letter-spacing:-.14em;}.cls-135{letter-spacing:-.13em;}.cls-136{letter-spacing:-.14em;}.cls-137{letter-spacing:-.08em;}.cls-138{letter-spacing:-.08em;}.cls-139{letter-spacing:-.04em;}.cls-140{letter-spacing:-.06em;}.cls-141{letter-spacing:-.15em;}.cls-142{letter-spacing:-.15em;}.cls-143{letter-spacing:-.07em;}.cls-144{letter-spacing:0em;}.cls-145{letter-spacing:-.03em;}.cls-146{letter-spacing:-.5em;}.cls-147{letter-spacing:-.07em;}.cls-148{letter-spacing:-.03em;}.cls-149{letter-spacing:-.02em;}.cls-150{letter-spacing:-.02em;}.cls-151{letter-spacing:-.02em;}.cls-152{letter-spacing:-.07em;}.cls-153{letter-spacing:0em;}.cls-154{letter-spacing:-.06em;}.cls-155{letter-spacing:-.07em;}.cls-156{letter-spacing:-.07em;}.cls-157{letter-spacing:-.13em;}.cls-158{letter-spacing:-.11em;}.cls-159{letter-spacing:-.05em;}.cls-160{letter-spacing:-.06em;}.cls-161{letter-spacing:-.1em;}.cls-162{letter-spacing:-.03em;}.cls-163{letter-spacing:-.05em;}.cls-164{letter-spacing:-.05em;}.cls-165{letter-spacing:-.03em;}.cls-166{letter-spacing:-.05em;}</style></defs><g id="_レイヤー_2"><text class="cls-97" transform="translate(729.04 98.39)"><tspan class="cls-43" x="0" y="0">A</tspan><tspan class="cls-162" x="56.76" y="0">S</tspan><tspan class="cls-75" x="108.12" y="0">D</tspan><tspan class="cls-5" x="164.91" y="0">の</tspan><tspan class="cls-108" x="241.76" y="0">特</tspan><tspan class="cls-85" x="321.78" y="0">徴</tspan><tspan x="398.85" y="0">例</tspan></text><text class="cls-49" transform="translate(627.06 139.67)"><tspan class="cls-101" x="0" y="0">以</tspan><tspan class="cls-143" x="16.99" y="0">下</tspan><tspan class="cls-131" x="33.79" y="0">は</tspan><tspan class="cls-161" x="50.72" y="0">ア</tspan><tspan class="cls-63" x="66.85" y="0">ニ</tspan><tspan class="cls-39" x="83.08" y="0">メ</tspan><tspan class="cls-12" x="98.76" y="0">ー</tspan><tspan class="cls-88" x="115.27" y="0">シ</tspan><tspan class="cls-141" x="131.3" y="0">ョ</tspan><tspan class="cls-166" x="146.66" y="0">ン</tspan><tspan class="cls-61" x="163.73" y="0">内</tspan><tspan class="cls-81" x="180.93" y="0">で</tspan><tspan class="cls-89" x="198.26" y="0">出</tspan><tspan class="cls-157" x="214.41" y="0">し</tspan><tspan class="cls-83" x="230.04" y="0">た</tspan><tspan class="cls-94" x="247.4" y="0">特</tspan><tspan class="cls-71" x="265.69" y="0">徴</tspan><tspan class="cls-163" x="283.47" y="0">で</tspan><tspan x="300.52" y="0">す</tspan><tspan class="cls-146" x="318.52" y="0">。</tspan><tspan class="cls-10" x="327.52" y="0">こ</tspan><tspan class="cls-125" x="343.86" y="0">れ</tspan><tspan class="cls-145" x="361.05" y="0">が</tspan><tspan class="cls-106" x="378.47" y="0">全</tspan><tspan class="cls-59" x="395.45" y="0">て</tspan><tspan class="cls-57" x="412.48" y="0">で</tspan><tspan class="cls-34" x="429.99" y="0">は</tspan><tspan class="cls-91" x="447.21" y="0">あ</tspan><tspan class="cls-142" x="462.99" y="0">り</tspan><tspan class="cls-92" x="478.35" y="0">ま</tspan><tspan class="cls-152" x="495.24" y="0">せ</tspan><tspan x="511.97" y="0">ん</tspan><tspan class="cls-146" x="529.97" y="0">、</tspan><tspan class="cls-94" x="0" y="31.5">特</tspan><tspan class="cls-82" x="18.3" y="31.5">徴</tspan><tspan class="cls-66" x="35.62" y="31.5">は</tspan><tspan class="cls-95" x="52.77" y="31.5">人</tspan><tspan class="cls-137" x="69.74" y="31.5">に</tspan><tspan class="cls-65" x="86.36" y="31.5">よ</tspan><tspan class="cls-126" x="101.2" y="31.5">っ</tspan><tspan class="cls-81" x="115.57" y="31.5">て</tspan><tspan class="cls-3" x="132.91" y="31.5">様</tspan><tspan class="cls-128" x="150.2" y="31.5">々</tspan><tspan class="cls-163" x="166.58" y="31.5">で</tspan><tspan x="183.63" y="31.5">す</tspan><tspan class="cls-146" x="201.63" y="31.5">。</tspan><tspan class="cls-96" x="0" y="94.5">人</tspan><tspan class="cls-138" x="16.97" y="94.5">に</tspan><tspan class="cls-65" x="33.6" y="94.5">よ</tspan><tspan class="cls-126" x="48.44" y="94.5">っ</tspan><tspan class="cls-124" x="62.81" y="94.5">て</tspan><tspan class="cls-79" x="79.24" y="94.5">は</tspan><tspan class="cls-93" x="95.9" y="94.5">自</tspan><tspan class="cls-148" x="112.92" y="94.5">分</tspan><tspan class="cls-62" x="130.32" y="94.5">に</tspan><tspan class="cls-64" x="146.37" y="94.5">も</tspan><tspan class="cls-29" x="162.62" y="94.5">当</tspan><tspan class="cls-123" x="179.16" y="94.5">て</tspan><tspan class="cls-38" x="195.59" y="94.5">は</tspan><tspan class="cls-133" x="212.32" y="94.5">ま</tspan><tspan class="cls-126" x="228.08" y="94.5">っ</tspan><tspan class="cls-4" x="242.45" y="94.5">て</tspan><tspan class="cls-101" x="259.04" y="94.5">い</tspan><tspan class="cls-58" x="276.02" y="94.5">る</tspan><tspan class="cls-8" x="292.09" y="94.5">と</tspan><tspan class="cls-129" x="308.79" y="94.5">感</tspan><tspan class="cls-25" x="325.19" y="94.5">じ</tspan><tspan class="cls-161" x="341.7" y="94.5">る</tspan><tspan class="cls-86" x="357.83" y="94.5">人</tspan><tspan class="cls-102" x="372.77" y="94.5">も</tspan><tspan class="cls-100" x="388.76" y="94.5">い</tspan><tspan class="cls-118" x="405.75" y="94.5">る</tspan><tspan class="cls-1" x="421.95" y="94.5">か</tspan><tspan class="cls-44" x="439.24" y="94.5">も</tspan><tspan class="cls-6" x="454.71" y="94.5">し</tspan><tspan class="cls-164" x="471.31" y="94.5">れ</tspan><tspan class="cls-92" x="488.37" y="94.5">ま</tspan><tspan class="cls-40" x="505.26" y="94.5">せ</tspan><tspan class="cls-21" x="521.99" y="94.5">ん</tspan><tspan x="538.51" y="94.5">が</tspan><tspan class="cls-146" x="556.51" y="94.5">、</tspan><tspan class="cls-34" x="0" y="126">肝</tspan><tspan class="cls-130" x="17.22" y="126">心</tspan><tspan class="cls-72" x="35.16" y="126">な</tspan><tspan class="cls-134" x="51.45" y="126">こ</tspan><tspan class="cls-98" x="67.01" y="126">と</tspan><tspan class="cls-74" x="82.96" y="126">は</tspan><tspan class="cls-111" x="99.44" y="126">こ</tspan><tspan class="cls-149" x="115.33" y="126">の</tspan><tspan class="cls-94" x="132.97" y="126">特</tspan><tspan class="cls-20" x="151.26" y="126">徴</tspan><tspan class="cls-77" x="168.53" y="126">に</tspan><tspan class="cls-132" x="185.18" y="126">毎</tspan><tspan class="cls-45" x="202.05" y="126">日</tspan><tspan class="cls-76" x="217.75" y="126">ど</tspan><tspan class="cls-28" x="233.93" y="126">こ</tspan><tspan class="cls-11" x="250.44" y="126">か</tspan><tspan class="cls-105" x="266.79" y="126">で</tspan><tspan class="cls-37" x="285.1" y="126">悩</tspan><tspan class="cls-158" x="301.87" y="126">ま</tspan><tspan class="cls-77" x="317.96" y="126">さ</tspan><tspan class="cls-98" x="334.61" y="126">れ</tspan><tspan class="cls-9" x="350.57" y="126">て</tspan><tspan class="cls-100" x="367.15" y="126">い</tspan><tspan class="cls-120" x="384.14" y="126">る</tspan><tspan class="cls-80" x="400.34" y="126">か</tspan><tspan class="cls-50" x="417.01" y="126">ど</tspan><tspan class="cls-107" x="432.85" y="126">う</tspan><tspan class="cls-11" x="448.73" y="126">か</tspan><tspan class="cls-159" x="465.08" y="126">で</tspan><tspan x="482.13" y="126">す</tspan><tspan class="cls-146" x="500.13" y="126">。</tspan><tspan class="cls-67" x="0" y="157.5">診</tspan><tspan class="cls-119" x="18.03" y="157.5">断</tspan><tspan class="cls-114" x="35.63" y="157.5">結</tspan><tspan class="cls-70" x="53.12" y="157.5">果</tspan><tspan class="cls-32" x="71" y="157.5">が</tspan><tspan class="cls-78" x="88.22" y="157.5">A</tspan><tspan class="cls-153" x="101.35" y="157.5">S</tspan><tspan class="cls-7" x="113.24" y="157.5">D</tspan><tspan class="cls-36" x="126.18" y="157.5">だ</tspan><tspan class="cls-147" x="143.39" y="157.5">か</tspan><tspan class="cls-51" x="160.21" y="157.5">ら</tspan><tspan class="cls-56" x="176.06" y="157.5">と</tspan><tspan class="cls-158" x="192.37" y="157.5">言</tspan><tspan class="cls-136" x="208.47" y="157.5">う</tspan><tspan class="cls-22" x="224.02" y="157.5">よ</tspan><tspan class="cls-135" x="239.21" y="157.5">り</tspan><tspan class="cls-4" x="254.94" y="157.5">も</tspan><tspan class="cls-113" x="271.53" y="157.5">そ</tspan><tspan class="cls-150" x="288.61" y="157.5">の</tspan><tspan class="cls-94" x="306.26" y="157.5">特</tspan><tspan class="cls-69" x="324.55" y="157.5">徴</tspan><tspan class="cls-109" x="342.33" y="157.5">で</tspan><tspan class="cls-116" x="360.49" y="157.5">生</tspan><tspan class="cls-24" x="378.44" y="157.5">活</tspan><tspan class="cls-140" x="395.6" y="157.5">に</tspan><tspan class="cls-35" x="412.46" y="157.5">支</tspan><tspan class="cls-87" x="430.08" y="157.5">障</tspan><tspan class="cls-165" x="447.89" y="157.5">が</tspan><tspan class="cls-155" x="465.42" y="157.5">出</tspan><tspan class="cls-4" x="482.13" y="157.5">て</tspan><tspan class="cls-101" x="498.72" y="157.5">い</tspan><tspan class="cls-42" x="515.71" y="157.5">る</tspan><tspan class="cls-60" x="532.93" y="157.5">場</tspan><tspan x="550.9" y="157.5">合</tspan><tspan class="cls-146" x="568.9" y="157.5">、</tspan><tspan class="cls-151" x="0" y="189">医</tspan><tspan class="cls-27" x="17.69" y="189">師</tspan><tspan class="cls-56" x="34.26" y="189">と</tspan><tspan class="cls-103" x="50.56" y="189">相</tspan><tspan class="cls-127" x="68.3" y="189">談</tspan><tspan x="84.67" y="189">し</tspan><tspan class="cls-146" x="102.67" y="189">、</tspan><tspan class="cls-115" x="111.67" y="189">ヘ</tspan><tspan class="cls-86" x="128.78" y="189">ル</tspan><tspan class="cls-69" x="143.72" y="189">プ</tspan><tspan class="cls-55" x="161.5" y="189">マ</tspan><tspan class="cls-68" x="177.34" y="189">ー</tspan><tspan class="cls-121" x="194.46" y="189">ク</tspan><tspan class="cls-160" x="210.66" y="189">を</tspan><tspan class="cls-118" x="227.6" y="189">入</tspan><tspan class="cls-140" x="243.8" y="189">手</tspan><tspan class="cls-99" x="260.66" y="189">す</tspan><tspan class="cls-73" x="276.62" y="189">る</tspan><tspan class="cls-104" x="293.86" y="189">事</tspan><tspan class="cls-53" x="310.86" y="189">が</tspan><tspan class="cls-139" x="328.58" y="189">で</tspan><tspan class="cls-110" x="345.9" y="189">き</tspan><tspan class="cls-154" x="361.78" y="189">ま</tspan><tspan x="378.64" y="189">す</tspan><tspan class="cls-146" x="396.64" y="189">。</tspan></text></g><g id="_レイヤー_4のコピー"><polygon class="cls-47" points="486.85 199.82 498.04 212.99 481.47 208.85 486.85 199.82"/><rect x="354" y="128.86" width="210" height="210"/><ellipse class="cls-47" cx="504.51" cy="250.46" rx="38.54" ry="67.12"/><ellipse class="cls-46" cx="415.72" cy="219.5" rx="38.54" ry="67.12"/><polygon class="cls-46" points="387.86 260.13 377.18 273.97 393 269.62 387.86 260.13"/><g><path d="M493.55,219.64l3.02-3.02,7.07,7.07,7.07-7.11,3.02,3.02-7.07,7.11,7.07,7.07-3.02,3.02-7.07-7.07-7.07,7.07-3.02-3.02,7.07-7.07-7.07-7.07Z"/><path d="M493.55,245.53l3.02-3.02,7.07,7.07,7.07-7.11,3.02,3.02-7.07,7.11,7.07,7.07-3.02,3.02-7.07-7.07-7.07,7.07-3.02-3.02,7.07-7.07-7.07-7.07Z"/><path d="M493.55,271.42l3.02-3.02,7.07,7.07,7.07-7.11,3.02,3.02-7.07,7.11,7.07,7.07-3.02,3.02-7.07-7.07-7.07,7.07-3.02-3.02,7.07-7.07-7.07-7.07Z"/></g><circle class="cls-19" cx="415.72" cy="191.87" r="11.39"/><circle class="cls-19" cx="415.72" cy="221.44" r="11.39"/><circle class="cls-19" cx="415.72" cy="251" r="11.39"/><polygon class="cls-47" points="529.13 297.17 539.81 311.01 523.99 306.66 529.13 297.17"/></g><g id="_レイヤー_6のコピー"><rect x="354" y="376.83" width="210" height="210"/><path class="cls-47" d="M528.97,480.27s.07-.01,.08-.02c.51-.57,1.04-1.12,1.32-1.86,.07-.18,.21-.33,.33-.48,.07-.09,.18-.09,.3-.06,.35,.1,.66,.26,.91,.55,.79,.93,1.77,1.63,2.8,2.25,1.42,.86,3,1.25,4.63,1.43,.86,.1,1.72,.14,2.58,.21,.47,.04,.94,.04,1.38,.3,.53,.31,1.07,.6,1.54,.99,.56,.46,1.11,.92,1.65,1.4,.84,.76,1.49,1.66,1.86,2.74,.03,.08,.05,.16,.07,.25-.64,.38-1.19,.84-1.69,1.37-.46,.48-.85,1-1.04,1.65-.22,.75-.25,1.49,.23,2.17,.11,.15,.17,.33,.28,.48,.21,.29,.43,.58,.65,.86,.09,.12,.24,.19,.22,.38,0,.06,.09,.14,.16,.19,.11,.07,.24,.11,.36,.16,.53,.18,1.09,.23,1.65,.24,.77,0,1.46-.25,2.02-.8,.07-.07,.14-.14,.19-.22,.15-.24,.02-.5-.26-.48-.49,.04-.89-.18-1.28-.42-.59-.36-.82-.88-.68-1.56,.11-.56,.22-1.11,.35-1.67,.03-.12,.1-.24,.17-.34,.44-.63,.75-1.3,.77-2.09,0-.12,.05-.23,.08-.35,.08-.37,.22-.74,.24-1.11,.05-.83-.31-1.54-.86-2.13-.9-.98-2.02-1.66-3.26-2.13-.2-.08-.36-.18-.49-.36-.31-.44-.63-.87-.93-1.31-.85-1.23-1.27-2.6-1.32-4.09-.04-1.36,.03-2.71,.26-4.05,.34-1.96,.71-3.91,1.06-5.87,.1-.52,.24-1.04,.3-1.57,.08-.63,.1-1.26,.14-1.9,0-.12,0-.24,.03-.36,.11-.44,.09-.89,.05-1.34-.06-.57-.11-1.13-.18-1.7-.02-.18-.05-.37-.08-.55-.12-.56-.33-1.08-.56-1.6-.34-.8-.76-1.55-1.2-2.29-.2-.33-.4-.64-.69-.9-.16-.14-.32-.3-.47-.46-.5-.52-.98-1.06-1.6-1.44-.5-.31-1.01-.6-1.53-.89-.1-.06-.23-.09-.34-.1-.48-.06-.93-.23-1.37-.43-.17-.08-.34-.16-.52-.21-2.07-.59-4.16-.61-6.27-.21-1.64,.31-3.05,1.04-4.22,2.24-.04,.04-.08,.07-.12,.1-.26-.09-.51-.18-.76-.25-2.45-.68-4.92-1.11-7.48-.92-.71,.05-1.41,.14-2.11,.24-.73,.11-1.4,.42-2.02,.72-.17-.05-.3-.1-.44-.12-.49-.09-.98-.04-1.47,.05-.44,.09-.86,.22-1.29,.33-.07-.11-.13-.23-.21-.33-.71-.83-1.58-1.42-2.65-1.66-1.38-.31-2.77-.35-4.17-.13-1.34,.21-2.56,.73-3.65,1.54-.9,.66-1.76,1.37-2.57,2.14-.34,.33-.66,.7-.94,1.09-.68,.96-1.19,2.01-1.61,3.11-.3,.78-.47,1.59-.59,2.41-.17,1.14-.23,2.28-.27,3.43-.02,.85-.09,1.71-.03,2.56,.11,1.51,.29,3.02,.47,4.53,.16,1.36,.29,2.72,.29,4.09,0,.68-.13,1.35-.36,1.99-.26,.73-.62,1.4-1.02,2.05-.74,1.21-1.65,2.29-2.77,3.17-.35,.28-.71,.49-1.18,.56-1.61,.23-2.79,1.07-3.46,2.58-.03,.07-.07,.14-.11,.2-.6,1.08-.81,2.21-.56,3.44,.12,.55,.35,1.02,.72,1.43,.1,.11,.21,.22,.31,.34,.36,.44,.75,.86,1.07,1.33,.45,.66,.4,1.28-.1,1.9-.08,.1-.16,.21-.24,.31-.03,.03-.06,.07-.07,.11-.01,.07-.03,.17,0,.21,.05,.06,.14,.1,.22,.1,.08,0,.17-.05,.24-.1,.2-.15,.42-.29,.58-.48,.38-.46,.85-.82,1.26-1.24,.08-.09,.17-.17,.25-.26,.54-.63,.58-1.18,.11-1.88-.22-.32-.45-.62-.69-.92-.36-.45-.71-.91-1.03-1.4-.2-.31-.24-.62-.29-.95-.06-.38,.12-.62,.44-.78,.07-.03,.14-.07,.21-.09,.44-.14,.87-.28,1.31-.4,.78-.22,1.56-.44,2.24-.9,.97-.67,1.93-1.36,2.81-2.15,.16-.14,.32-.31,.43-.49,.09-.15,.2-.21,.35-.25,1.61-.36,3.18-.86,4.72-1.46,1.65-.64,3.09-1.58,4.16-3.02,.17-.23,.39-.37,.63-.48,.29,.17,.56,.34,.84,.49,.15,.08,.23,.18,.3,.33,.24,.58,.5,1.17,.75,1.75,.04,.09,.08,.18,.14,.26,.07,.11,.17,.17,.31,.11,.13-.05,.18-.16,.16-.29-.03-.14-.07-.27-.12-.41-.14-.41-.23-.83-.34-1.29,1.46,.32,2.9,.42,4.34,.52,1.43,.1,2.87,.13,4.38,.2-.47,.24-.59,.63-.66,1.05-.03,.18-.04,.37-.06,.55-.01,.13-.02,.26-.05,.39-.06,.23-.17,.31-.42,.31-.09,0-.2,0-.28,.05-.44,.21-.88,.44-1.31,.66-.11,.06-.22,.06-.34,.02-1-.31-2.01-.61-3.01-.89-.29-.08-.6-.15-.9-.16-.35-.01-.71,.29-.78,.59q-.09,.38-.47,.32s-.07,0-.1-.02c-.61-.15-1.09,.06-1.48,.53-.44,.53-.69,1.13-.79,1.81-.05,.35,.03,.64,.3,.89,.19,.17,.34,.37,.5,.56,.18,.2,.16,.41,.04,.64-.16,.3-.29,.61-.44,.91-.26,.51-.4,1.04-.3,1.61,.07,.46,.18,.9,.48,1.27,.24,.3,.54,.44,.92,.34,.14-.04,.27-.08,.41-.11,.48-.12,.63,.01,.58,.5-.03,.3-.06,.61-.04,.91,.01,.21-.01,.38-.12,.56-.51,.83-.99,1.68-1.53,2.48-.78,1.14-1.6,2.24-2.41,3.36-.03,.04-.07,.09-.11,.12-.23,.2-.48,.38-.69,.59-.69,.7-1.49,1.25-2.38,1.66-1.37,.64-2.74,1.26-4.1,1.9-.34,.16-.66,.34-.99,.51-.19,.1-.28,.28-.27,.49,.04,.46,.08,.91,.14,1.37,.04,.29,.14,.39,.44,.38,.35-.01,.7-.06,1.03-.14,.7-.16,1.33-.48,1.95-.84,.17-.1,.35-.21,.52-.31,.01,.02,.03,.04,.04,.06-.1,.07-.2,.15-.3,.21-.31,.19-.62,.36-.93,.55-.42,.27-.85,.54-1.26,.83-.26,.18-.32,.44-.22,.73,.07,.2,.18,.39,.25,.55,.59,.14,1.06-.03,1.52-.28,.07-.04,.14-.07,.2-.11,.72-.41,1.48-.76,2.25-1.07,.4-.16,.8-.28,1.24-.24,.12,.01,.24-.02,.37-.03,.03,.04,.09,.09,.11,.15,.15,.48,.4,.92,.46,1.43,.03,.24,.07,.48,.14,.71,.12,.44,.43,.57,.83,.33,.21-.13,.41-.29,.59-.46,.1-.09,.18-.23,.22-.36,.08-.27,.14-.55,.19-.83,.16-.85,.33-1.7,.47-2.55,.17-1.06,.52-2.05,1.09-2.96,.04-.06,.08-.14,.14-.18,.45-.32,.81-.77,1.33-1,.11-.05,.2-.13,.29-.21,1.34-1.3,2.76-2.53,3.88-4.04,.11-.15,.24-.27,.36-.41,.31,.27,.67,1.59,.7,2.44-.32,.16-.35,.2-.32,.55,.04,.47,.11,.93,.17,1.42-.08,.13-.18,.29-.27,.47-.23,.46-.45,.92-.67,1.39-.85,1.82-1.66,3.66-2.32,5.57-.51,1.5-.92,3.03-1.12,4.61-.02,.14-.06,.28-.09,.41-.03,.15-.08,.29-.1,.44-.04,.24-.04,.48-.09,.71-.06,.31-.14,.62-.2,.93-.07,.33-.08,.65,.09,.96,.42,.76,.91,1.48,1.65,1.97,.48,.32,.98,.61,1.48,.9,.12,.07,.21,.11,.25,.27,.2,.73,.41,1.45,.62,2.17,.38,1.26,.8,2.5,1.13,3.77,.47,1.8,.73,3.64,.95,5.49,.19,1.64,.4,3.28,.44,4.93,.02,.95,.05,1.9-.07,2.85-.11,.94-.32,1.85-.78,2.69-.15,.28-.3,.56-.43,.85-.12,.28-.24,.56-.32,.86-.15,.54,.05,1.03,.51,1.34,.15,.1,.32,.19,.49,.27,.9,.4,1.86,.46,2.83,.43,.47-.02,.94-.07,1.4-.12,.7-.07,1.38-.19,2.03-.5,.31-.15,.65-.26,.94-.38,.38,.2,.73,.41,1.1,.57,1.23,.54,2.54,.6,3.85,.59,.38,0,.76-.18,1.14-.28,.92-.25,1.61-.8,2.16-1.56,.53-.75,.87-1.58,1.11-2.47,.37-1.36,.53-2.74,.45-4.15-.04-.62-.06-1.24-.08-1.87-.02-.76-.1-1.51-.35-2.23-.44-1.24-.84-2.48-1.17-3.75-.1-.39-.15-.82-.48-1.12-.01-.01-.01-.04-.02-.06-.09-.21-.18-.42-.27-.63-.76-1.91-1.52-3.82-2.28-5.72-.26-.65-.52-1.3-.77-1.95-.05-.12-.07-.24-.1-.37,.43-.14,.83-.26,1.22-.39,.72-.24,1.4-.55,1.99-1.04,.18-.15,.38-.29,.56-.45,.23-.2,.49-.39,.65-.64,.32-.48,.49-1,.23-1.58-.03-.06-.04-.12-.05-.19-.19-1.16-.34-2.34-.57-3.49-.16-.81-.44-1.6-.67-2.4-.31-1.08-.61-2.17-.92-3.25-.43-1.55-.89-3.09-1.81-4.44-.3-.45-.55-.95-1.11-1.2,.03-.1,.05-.19,.08-.28,.1-.32,.21-.65,.28-.98,.1-.45,.03-.6-.37-.85,.07-.17,.15-.33,.22-.5,.05-.13,.12-.26,.14-.4,.05-.34,.08-.69,.12-1.01,.17-.07,.31-.13,.44-.19-.04-.19-.1-.36-.11-.53-.03-.29,.11-.44,.4-.5,.13-.03,.26-.09,.4-.14,.02,.05,.06,.1,.08,.16,.37,.78,.74,1.56,1.1,2.34,.57,1.21,1.27,2.35,2.03,3.44,.39,.56,.81,1.09,1.31,1.55,.05,.05,.09,.12,.1,.19,.11,.57,.2,1.14,.31,1.71,.26,1.34,.53,2.68,.79,4.02,.06,.31,.22,.58,.35,.87,.14,.3,.35,.49,.68,.48,.45-.02,.88-.14,1.26-.42,.2-.15,.27-.35,.27-.6,0-.91,.02-1.81,.04-2.72,0-.03,.03-.07,.05-.12,.1,.1,.17,.18,.25,.26,.91,1.02,2.05,1.68,3.33,2.14,.78,.28,1.54,.19,2.3-.08-.07-.27,.13-.55-.13-.79,.32,.08,.63,.16,.91,.3,.19,.09,.34,.09,.52,0,.48-.26,.9-.59,1.25-1,.19-.22,.32-.49,.45-.75,.07-.15,.02-.31-.13-.41-.09-.06-.2-.09-.3-.13-.23-.07-.46-.13-.69-.21-.19-.06-.37-.14-.56-.18-.92-.22-1.81-.51-2.64-.96-.76-.41-1.52-.81-2.27-1.25-.67-.39-1.32-.83-1.85-1.4-.3-.32-.58-.65-.78-1.04-.19-.38-.44-.73-.67-1.09-.05-.07-.1-.16-.17-.19-.16-.08-.22-.23-.29-.38-.42-.89-.85-1.78-1.26-2.67-.76-1.66-1.45-3.35-2.07-5.07-.07-.2-.14-.41-.18-.53,.11-.25,.21-.42,.25-.6,.09-.43,.16-.86,.2-1.29,.05-.46,.05-.92-.32-1.29-.05-.05-.08-.16-.07-.24,.02-.15,.05-.3,.1-.44,.07-.17,.14-.34,.39-.34,.14,0,.21-.13,.16-.26-.19-.47-.11-.93,.03-1.38,.12-.39,.25-.79,.61-1.05,.14-.1,.16-.41,.05-.54-.13-.16-.28-.31-.42-.46-.26-.27-.55-.33-.89-.16-.14,.07-.28,.12-.42,.18-.2,.09-.39,.22-.6,.26-.41,.07-.77,.24-1.13,.42-.92,.46-1.83,.93-2.75,1.4-.2-.07-.43-.14-.64-.24-.59-.28-1.18-.57-1.76-.86-.09-.04-.17-.1-.23-.18-.2-.29-.39-.58-.46-.93-.05-.26-.13-.51-.19-.76-.1-.39-.2-.76-.64-.97,.11-.03,.17-.06,.23-.07,.49-.07,.97-.14,1.46-.22,1.37-.21,2.74-.45,4.07-.86,.38-.12,.74-.23,1.15-.19,.19,.02,.38-.04,.58-.07,0,.07,0,.11-.01,.15-.06,.48-.13,.95-.19,1.43-.03,.2-.08,.41,.07,.61Z"/><g><ellipse class="cls-46" cx="453.16" cy="472.4" rx="15.56" ry="27.09"/><polygon class="cls-46" points="441.92 488.8 437.61 494.38 443.99 492.63 441.92 488.8"/></g><g><ellipse class="cls-46" cx="377.18" cy="458.47" rx="15.56" ry="27.09"/><polygon class="cls-46" points="388.42 474.87 392.73 480.45 386.35 478.7 388.42 474.87"/></g><path class="cls-46" d="M378.17,540.15c.06,0,.11-.02,.17-.02,.58-.01,1.17-.02,1.75-.04,1.07-.03,2.13-.12,3.17-.37,1.98-.47,3.45-1.67,4.62-3.28,.49-.67,.79-1.43,1.11-2.19,.38-.88,.78-1.74,1.33-2.53,.61-.86,1.32-1.62,2.26-2.13,.21-.12,.43-.22,.67-.35-.06-.06-.1-.11-.15-.16-.48-.47-.82-1.04-1.02-1.68-.36-1.14-.34-2.28-.03-3.42,.5-1.82,1.62-3.18,3.17-4.2,.61-.4,1.26-.74,1.98-.9,.15-.03,.3-.06,.48-.09,0-.14,0-.26,0-.38-.02-.28-.06-.56-.06-.84,0-.77,.03-1.55,.04-2.32,.02-1.37,0-2.74-.1-4.11-.1-1.32-.25-2.64-.5-3.94-.07-.36-.14-.72-.21-1.07-.49-.04-.95-.06-1.41-.11-.82-.09-1.6-.32-2.34-.71-.71-.38-1.18-.96-1.4-1.73-.21-.71-.24-1.44-.13-2.17,.24-1.53,.74-2.98,1.48-4.34,1.09-2,2.48-3.77,4.01-5.44,1.57-1.71,3.28-3.26,4.97-4.85,.53-.5,1.05-1.01,1.59-1.52-.29-.73-.47-1.48-.59-2.24-.19-1.27-.32-2.54-.1-3.82,.23-1.4,.8-2.61,1.86-3.57,.75-.67,1.6-1.2,2.54-1.56,1.47-.58,3.02-.76,4.59-.79,1.29-.03,2.58,.09,3.86,.24,1.78,.21,3.51,.61,5.21,1.17,2.37,.78,4.51,1.94,6.29,3.72,2.3,2.29,3.84,4.96,4.13,8.25,.06,.66,.06,1.33-.07,1.98-.38,1.94-1.52,3.28-3.26,4.16-.07,.03-.13,.07-.21,.12,.06,.06,.11,.11,.15,.16,.79,.78,1.61,1.54,2.36,2.35,1,1.08,1.92,2.23,2.6,3.55,.52,1.01,.89,2.04,.84,3.21-.08,2.02-1.78,3.77-3.17,4.08-.07,.02-.14,.06-.2,.08,0,.06-.01,.09-.01,.12,0,1.11,0,2.22,.02,3.33,.01,1.12,0,2.25,.06,3.37,.05,.99,.17,1.97,.26,2.95,.07,.69,.15,1.38,.22,2.07,.09,.88,.17,1.76,.26,2.64,.02,.21,.05,.42,.07,.62,.04,.02,.06,.04,.08,.05,.09,.03,.17,.05,.26,.07,.74,.17,1.39,.5,1.94,1.03,1.37,1.31,2.22,2.9,2.53,4.76,.15,.88,.16,1.77-.22,2.61-.05,.11-.06,.24-.08,.35,.38,.09,.72,.15,1.05,.25,.69,.21,1.28,.6,1.82,1.06,.46,.39,.92,.78,1.37,1.2,.77,.71,1.59,1.35,2.43,1.98,1.6,1.2,3.41,1.86,5.38,2.14,.28,.04,.56,.06,.83,.13,.46,.13,.7,.49,.68,.96-.02,.44-.25,.79-.53,1.1-.44,.48-.98,.82-1.6,1.03-1.42,.48-2.88,.68-4.38,.6-1.78-.09-3.48-.52-5.11-1.23-1.02-.44-2.01-.95-2.99-1.47-.99-.52-2.02-.85-3.15-.88-.33,0-.61,.05-.9,.19-.23,.11-.47,.22-.72,.28-.15,.03-.23,.08-.33,.19-.62,.72-.94,1.57-1.14,2.48-.15,.68-.3,1.36-.48,2.03-.14,.53-.37,1.01-.71,1.44-1.05,1.3-2.82,1.45-4.01,.33-.07-.06-.13-.13-.19-.2-.7-.78-1.22-1.66-1.63-2.62-.1-.25-.23-.49-.35-.73-.13-.24-.33-.35-.6-.37-.76-.06-1.33,.27-1.56,1-.15,.47-.24,.96-.32,1.44-.1,.64-.15,1.29-.37,1.91-.31,.87-.94,1.32-1.84,1.39-1.25,.1-2.29-.39-3.13-1.28-.38-.4-.72-.84-1.01-1.3-.37-.59-.66-1.22-.99-1.84-.13-.24-.24-.48-.38-.71-.18-.3-.34-.36-.67-.28-.43,.1-.81,.33-1.18,.56-.81,.53-1.27,1.28-1.36,2.25-.04,.48-.08,.96-.14,1.44-.04,.32-.08,.65-.18,.96-.2,.65-.76,.98-1.42,.83-.35-.08-.69-.2-1.01-.37-1.72-.92-2.91-2.3-3.53-4.16-.19-.55-.36-1.11-.54-1.67-.12-.38-.3-.73-.54-1.04-.33-.41-.73-.57-1.25-.45-.22,.05-.44,.11-.66,0-.05-.02-.13,.01-.19,.03-.27,.09-.53,.18-.8,.27-1.54,.51-2.96,1.23-4.17,2.33-.64,.58-1.33,1.11-2.05,1.58-.92,.59-1.88,1.11-2.93,1.42-1.74,.52-3.5,.65-5.3,.38-1.21-.18-2.4-.46-3.52-.98-.63-.29-1.2-.66-1.66-1.18-.33-.37-.58-.78-.69-1.26-.18-.73,.2-1.27,.95-1.37Z"/><g><rect x="78.72" y="127.14" width="210" height="210"/><g><path class="cls-46" d="M245,297.62c-.1-.01-.21-.03-.31-.04-1.09-.02-2.19-.04-3.28-.07-2-.05-3.99-.23-5.95-.69-3.72-.87-6.47-3.13-8.66-6.15-.91-1.25-1.48-2.69-2.09-4.1-.71-1.65-1.46-3.27-2.5-4.74-1.14-1.62-2.48-3.03-4.23-4-.4-.22-.81-.42-1.26-.65,.11-.11,.19-.21,.27-.29,.91-.89,1.53-1.95,1.91-3.15,.67-2.13,.64-4.28,.05-6.41-.94-3.41-3.03-5.97-5.95-7.88-1.15-.75-2.36-1.38-3.72-1.69-.28-.06-.57-.11-.89-.17,0-.26-.01-.48,0-.71,.04-.52,.12-1.05,.12-1.57,0-1.45-.05-2.91-.07-4.36-.03-2.57,0-5.14,.19-7.7,.18-2.48,.47-4.94,.94-7.39,.13-.68,.26-1.35,.39-2.02,.92-.07,1.78-.11,2.64-.2,1.54-.17,3.01-.6,4.38-1.34,1.34-.71,2.21-1.8,2.63-3.24,.39-1.33,.45-2.7,.24-4.07-.45-2.88-1.39-5.59-2.78-8.15-2.04-3.74-4.65-7.07-7.52-10.2-2.94-3.2-6.15-6.12-9.31-9.09-.99-.94-1.97-1.89-2.98-2.86,.53-1.36,.89-2.77,1.11-4.2,.36-2.38,.59-4.76,.19-7.16-.43-2.62-1.49-4.9-3.49-6.7-1.41-1.27-2.99-2.24-4.76-2.93-2.77-1.08-5.66-1.43-8.6-1.49-2.42-.05-4.83,.17-7.24,.45-3.34,.39-6.58,1.14-9.77,2.19-4.45,1.46-8.45,3.64-11.79,6.97-4.31,4.3-7.2,9.3-7.75,15.47-.11,1.24-.11,2.49,.13,3.71,.71,3.63,2.85,6.16,6.11,7.8,.13,.06,.25,.14,.4,.22-.12,.12-.2,.21-.29,.3-1.48,1.47-3.01,2.89-4.43,4.41-1.88,2.02-3.6,4.19-4.88,6.66-.98,1.89-1.67,3.83-1.58,6.03,.16,3.78,3.34,7.07,5.94,7.65,.14,.03,.26,.11,.38,.16,.01,.11,.02,.17,.02,.23,0,2.08-.01,4.17-.03,6.25-.02,2.11-.01,4.21-.11,6.32-.09,1.85-.31,3.69-.49,5.53-.12,1.3-.27,2.59-.4,3.89-.16,1.65-.32,3.31-.48,4.96-.04,.39-.09,.79-.13,1.15-.07,.05-.11,.08-.14,.09-.16,.05-.32,.09-.49,.13-1.39,.31-2.61,.94-3.64,1.92-2.56,2.45-4.16,5.44-4.75,8.93-.28,1.65-.3,3.31,.42,4.9,.09,.2,.11,.44,.15,.65-.71,.16-1.36,.27-1.98,.46-1.29,.39-2.4,1.12-3.42,1.98-.87,.73-1.73,1.47-2.56,2.25-1.44,1.34-2.98,2.54-4.55,3.71-3.01,2.24-6.4,3.5-10.1,4.01-.52,.07-1.05,.11-1.55,.25-.85,.24-1.3,.92-1.27,1.81,.03,.83,.47,1.47,1,2.06,.83,.9,1.84,1.54,3,1.93,2.66,.9,5.41,1.27,8.21,1.12,3.33-.17,6.54-.97,9.59-2.31,1.91-.83,3.77-1.78,5.61-2.75,1.86-.98,3.79-1.59,5.9-1.65,.62-.02,1.15,.1,1.69,.36,.43,.21,.88,.42,1.34,.52,.27,.06,.44,.16,.61,.36,1.16,1.35,1.77,2.94,2.14,4.66,.28,1.27,.57,2.55,.89,3.81,.26,.98,.69,1.9,1.34,2.7,1.98,2.44,5.29,2.72,7.51,.62,.12-.12,.24-.24,.35-.37,1.31-1.46,2.29-3.12,3.05-4.91,.2-.46,.42-.92,.66-1.36,.23-.45,.63-.65,1.13-.69,1.43-.12,2.49,.51,2.93,1.87,.28,.88,.45,1.79,.59,2.71,.19,1.2,.28,2.42,.69,3.59,.58,1.64,1.76,2.48,3.45,2.61,2.35,.18,4.29-.73,5.87-2.4,.71-.74,1.35-1.57,1.89-2.44,.69-1.1,1.25-2.29,1.86-3.44,.24-.45,.45-.91,.71-1.34,.33-.56,.63-.67,1.27-.52,.81,.19,1.52,.61,2.21,1.06,1.53,1,2.39,2.4,2.56,4.22,.08,.9,.15,1.8,.25,2.7,.07,.6,.15,1.22,.33,1.79,.38,1.22,1.42,1.83,2.66,1.56,.65-.14,1.3-.37,1.89-.69,3.22-1.73,5.45-4.32,6.62-7.8,.35-1.04,.67-2.08,1.01-3.12,.23-.7,.56-1.36,1.02-1.95,.61-.77,1.37-1.07,2.34-.85,.41,.09,.82,.2,1.24,.01,.09-.04,.24,.02,.35,.06,.5,.16,.99,.34,1.49,.51,2.89,.95,5.55,2.31,7.83,4.36,1.2,1.09,2.49,2.08,3.85,2.96,1.72,1.11,3.52,2.08,5.49,2.67,3.25,.98,6.57,1.21,9.93,.72,2.28-.33,4.5-.86,6.6-1.83,1.18-.54,2.25-1.24,3.12-2.21,.61-.69,1.08-1.45,1.3-2.35,.33-1.38-.37-2.38-1.78-2.56Z"/><g><circle class="cls-13" cx="151.27" cy="191.69" r="24.52"/><circle class="cls-13" cx="151.27" cy="191.69" r="32.81"/><line class="cls-13" x1="141.19" y1="191.69" x2="160.75" y2="191.69"/><line class="cls-13" x1="150.97" y1="181.91" x2="150.97" y2="201.48"/><line class="cls-13" x1="150.97" y1="154.69" x2="150.97" y2="171.37"/><line class="cls-13" x1="150.97" y1="212.02" x2="150.97" y2="228.7"/><line class="cls-13" x1="131.23" y1="191.69" x2="114.55" y2="191.69"/><line class="cls-13" x1="188.45" y1="191.69" x2="171.77" y2="191.69"/></g><g><circle class="cls-13" cx="221.26" cy="273.8" r="24.52"/><circle class="cls-13" cx="221.26" cy="273.8" r="32.81"/><line class="cls-13" x1="211.18" y1="273.8" x2="230.74" y2="273.8"/><line class="cls-13" x1="220.96" y1="264.01" x2="220.96" y2="283.58"/><line class="cls-13" x1="220.96" y1="236.79" x2="220.96" y2="253.48"/><line class="cls-13" x1="220.96" y1="294.12" x2="220.96" y2="310.8"/><line class="cls-13" x1="201.22" y1="273.8" x2="184.54" y2="273.8"/><line class="cls-13" x1="258.44" y1="273.8" x2="241.76" y2="273.8"/></g></g></g><circle class="cls-47" cx="459.66" cy="418.21" r="22.05"/><circle class="cls-47" cx="443.99" cy="409.74" r="12.06"/><circle class="cls-47" cx="437.61" cy="421.79" r="11.03"/><circle class="cls-47" cx="478.62" cy="419.43" r="13.35"/><circle class="cls-47" cx="476.1" cy="408.26" r="9.81"/><circle class="cls-47" cx="447.5" cy="428.77" r="9.34"/><circle class="cls-47" cx="474.44" cy="429.82" r="8.16"/><circle class="cls-47" cx="456.84" cy="402.95" r="6.79"/><circle class="cls-47" cx="478.62" cy="449.57" r="4.87"/><circle class="cls-47" cx="485.6" cy="457.27" r="2.82"/><path d="M458.43,423.75c.12-.72,.12-.96,.12-1.95,0-1.56,.33-2.55,1.11-3.6,.6-.81,.9-1.05,2.64-2.25,1.08-.75,1.59-1.17,2.04-1.62,.69-.72,1.05-1.59,1.05-2.49,0-2.25-1.98-3.81-4.82-3.81-1.95,0-3.48,.66-4.47,1.89-.51,.66-.75,1.23-1.08,2.49l-2.52-.39c.63-2.19,1.23-3.21,2.46-4.22,1.38-1.17,3.33-1.77,5.69-1.77,4.13,0,7.16,2.34,7.16,5.54,0,1.14-.24,2.07-.72,2.91-.54,.9-1.08,1.44-2.73,2.61-1.77,1.23-2.28,1.65-2.7,2.25-.54,.75-.78,1.59-.78,2.76,0,.48,.03,.99,.12,1.65h-2.58Zm2.76,2.82v2.82h-2.91v-2.82h2.91Z"/></g><g id="_レイヤー_9"><g><rect x="78.72" y="379.79" width="210" height="210"/><g><g><path class="cls-47" d="M136.1,461.73c-.44-6.84,1.66-13.74,5.9-19.13s10.76-9.08,17.72-10.03,13.87,.82,19.61,4.79,9.85,9.59,12.82,15.68c3.58,7.34,5.34,15.45,6.69,23.45,.66,3.92,1.33,7.86,1.72,11.81,.35,3.58,.5,7.28-.31,10.81-.85,3.73-2.86,6.45-5.29,9.3s-4.39,5.94-4.95,9.8c-1,6.93,1.82,14.84-2.09,21.16-3.13,5.06-9.41,7.66-15.18,7.86-7.54,.26-14.64-3.33-20.8-7.33-1.63-1.06-3.21-2.17-4.78-3.3-.88-.63-2.23-.15-2.74,.72-.59,1.01-.16,2.1,.72,2.74,6.71,4.85,14.1,9.51,22.43,10.8,7.02,1.09,14.31-.46,19.88-5,2.58-2.1,4.57-4.94,5.6-8.11,1.26-3.87,.97-8.01,.78-12s-.39-7.91,1.6-11.33,5.31-5.99,7.07-9.66c3.59-7.47,2.28-15.99,1.08-23.86-1.34-8.78-2.86-17.64-6.21-25.91-5.74-14.15-17.63-26.69-33.86-26.67-7.72,.01-15.37,2.82-21.1,8.01s-9.21,12.33-10.14,19.86c-.23,1.84-.27,3.68-.15,5.53,.17,2.56,4.17,2.57,4,0h0Z"/><path class="cls-47" d="M150.8,457.81c-.52-3.75,3.11-6.78,6.3-7.86,3.93-1.34,8.13-.31,11.59,1.8,8.63,5.25,11.6,15.52,12.52,24.99,.26,2.68,.4,5.37,.52,8.05s.21,5.4-.75,7.95-2.15,4.75-2.35,7.53c-.18,2.58,.33,5.15,.65,7.69,.3,2.38,.47,4.79-.31,7.1-.64,1.92-1.96,3.67-3.54,4.92-3.29,2.61-7.7,2.95-11.37,.94-1.98-1.09-3.64-2.73-4.61-4.79s-1.29-4.88,.68-6.42c1.79-1.4,4.44-1.36,6.58-1.22,3.15,.21,6.29,1.05,9.15,2.38,.98,.45,2.16,.28,2.74-.72,.51-.86,.27-2.28-.72-2.74-3.13-1.45-6.37-2.4-9.8-2.8-2.64-.3-5.49-.34-8.01,.64-2.7,1.05-4.76,3.17-5.24,6.1-.45,2.78,.34,5.67,1.85,8.01,2.85,4.42,8.21,7.29,13.51,6.82s10.08-4.04,12.19-8.94c1.15-2.69,1.31-5.56,1-8.44-.32-3.04-1.16-6.22-.68-9.28s2.38-5.48,2.83-8.48c.49-3.25,.21-6.59,.02-9.86-.69-11.81-3.1-24.34-13.18-31.81-4.62-3.42-10.91-5.23-16.49-3.26s-9.77,6.68-8.93,12.73c.15,1.07,1.52,1.66,2.46,1.4,1.15-.32,1.55-1.39,1.4-2.46h0Z"/><path class="cls-47" d="M152.09,473.1c.32,1.22,1.18,2.33,2.32,2.89,1.24,.61,2.54,.74,3.89,.55,2.81-.4,4.62-2.77,5.43-5.34,.48-1.51,.63-3.11,.77-4.68,.1-1.04-.99-2.05-2-2-1.17,.05-1.9,.88-2,2-.03,.35-.07,.7-.1,1.04-.01,.13-.1,.4-.06,.53,.04-.31,.05-.36,.02-.14-.01,.09-.03,.17-.04,.26-.11,.69-.26,1.38-.48,2.04-.02,.05-.19,.47-.18,.48,.12-.28,.14-.32,.05-.12-.04,.08-.07,.15-.11,.23-.15,.31-.33,.59-.52,.87-.13,.17-.1,.14,.08-.1-.05,.07-.11,.13-.17,.2-.11,.12-.22,.24-.33,.35-.37,.34,.32-.2,.04-.02-.09,.06-.18,.12-.28,.18s-.2,.1-.29,.16c-.3,.16,.52-.19,.04-.02-.24,.09-.49,.14-.74,.19-.34,.07,.58-.05,.06-.02-.13,0-.25,.01-.38,0s-.25-.01-.38-.02c-.35-.02,.57,.11,.07,0-.12-.03-.24-.06-.35-.09-.21-.06-.46-.27,.06,.04-.1-.06-.21-.1-.31-.16-.2-.12-.33-.36,.05,.06-.08-.08-.17-.16-.25-.24-.23-.22,.31,.47,.05,.06-.06-.1-.11-.21-.17-.31,.3,.53,.11,.26,.06,.05-.26-1.01-1.44-1.73-2.46-1.4s-1.68,1.38-1.4,2.46h0Z"/><path class="cls-47" d="M157.98,487.44c.18-.25,0-.03,.2-.26,.14-.16,.27-.32,.42-.48,.31-.34,.63-.66,.98-.97,.16-.14,.32-.28,.48-.41,.18-.14,.05-.04,.01-.01,.08-.06,.17-.13,.26-.19,.37-.27,.76-.51,1.16-.74,.85-.49,1.29-.68,2.13-.94,.35-.11,.89-.26,1.13-.3-.15,.02,.22,0,.2,0-.04,.02-.1-.05-.12-.05-.06,.02,.02,0,.11,.06-.19-.11-.05-.1,0,.03-.13-.29,.06,.1,.12,.2,.05,.08,.22,.5,.12,.22,.14,.37,.25,.75,.36,1.12,.2,.72,.37,1.45,.5,2.18,.03,.17,.05,.35,.08,.52,.04,.23-.01-.07-.01-.1,0,.09,.02,.17,.03,.26,.04,.38,.07,.75,.08,1.13,0,.34,0,.68-.01,1.02,0,.17-.03,.33-.04,.5,0,.04-.05,.31,0,.06s-.02,.08-.03,.13c-.08,.36-.17,.7-.28,1.05-.15,.43,.1-.13-.06,.14-.09,.15-.17,.3-.26,.45-.23,.38,.14-.1-.08,.12-.12,.11-.26,.23-.36,.36-.12,.16,.08-.06,.12-.08-.08,.06-.17,.12-.25,.17-.1,.06-.65,.33-.23,.15-1,.42-1.71,1.32-1.4,2.46,.26,.94,1.46,1.82,2.46,1.4,1.98-.83,3.34-2.26,4-4.32,.61-1.89,.5-3.93,.22-5.87-.26-1.83-.67-4.05-1.79-5.56-.97-1.31-2.37-1.9-3.99-1.69-1.27,.17-2.46,.62-3.62,1.14-2.45,1.11-4.48,2.92-6.06,5.07-.64,.87-.15,2.23,.72,2.74,1.01,.59,2.1,.16,2.74-.72h0Z"/><path class="cls-47" d="M148.37,519.51c.71-.07,1.42-.08,2.13-.02,.09,0,.18,.02,.27,.03-.31-.04-.36-.05-.13-.02,.18,.03,.35,.06,.53,.09,.33,.07,.65,.15,.97,.25,.15,.04,.3,.09,.44,.14,.09,.03,.45,.11,.5,.19-.27-.12-.31-.13-.11-.05,.08,.04,.16,.07,.24,.11,.16,.08,.32,.16,.48,.24,.31,.17,.62,.35,.92,.55,.1,.07,.38,.2,.44,.31-.23-.18-.26-.2-.09-.07,.07,.06,.14,.11,.21,.17,.8,.67,2.05,.84,2.83,0,.68-.74,.86-2.11,0-2.83-2.66-2.23-6.13-3.46-9.61-3.11-.54,.06-1.01,.19-1.41,.59-.35,.35-.61,.92-.59,1.41,.04,.99,.89,2.11,2,2h0Z"/></g><polyline class="cls-14" points="222.77 414 241.2 439.89 208.39 439.89 216.67 449.52 181.16 466.52"/><polyline class="cls-14" points="245.4 446.96 253.73 477.63 222.95 466.27 227.39 478.17 188.19 481.83"/><polyline class="cls-14" points="254.5 489.79 249.51 521.17 226.1 498.19 225.27 510.86 188.01 498.1"/></g></g></g><g id="_レイヤー_4のコピー_2"><g><polygon points="839.29 586.83 716.02 586.83 629.29 586.83 629.29 376.83 839.29 376.83 839.29 586.83"/><g><ellipse class="cls-46" cx="685.1" cy="444.69" rx="30.93" ry="53.86"/><polygon class="cls-46" points="662.74 477.29 654.17 488.39 666.86 484.9 662.74 477.29"/></g><path class="cls-47" d="M826.45,539.09c-1.14,.09-2.05-.43-2.96-.98-1.37-.83-1.9-2.04-1.58-3.61,.26-1.29,.51-2.57,.8-3.85,.06-.28,.22-.55,.39-.79,1.01-1.46,1.73-3.02,1.78-4.83,0-.27,.12-.53,.18-.8,.2-.86,.51-1.71,.56-2.57,.12-1.93-.71-3.55-1.98-4.93-2.09-2.27-4.67-3.84-7.54-4.93-.47-.18-.84-.42-1.13-.83-.71-1.01-1.45-2-2.15-3.02-1.96-2.85-2.93-6.02-3.04-9.46-.1-3.14,.08-6.27,.61-9.36,.78-4.52,1.63-9.04,2.46-13.55,.22-1.21,.54-2.41,.7-3.63,.18-1.45,.23-2.92,.33-4.38,.02-.28,0-.56,.07-.83,.25-1.02,.22-2.06,.11-3.09-.13-1.31-.27-2.61-.41-3.92-.05-.43-.11-.85-.2-1.27-.28-1.29-.77-2.5-1.29-3.71-.79-1.84-1.75-3.58-2.77-5.3-.46-.77-.93-1.48-1.6-2.07-.38-.33-.74-.69-1.08-1.06-1.14-1.21-2.28-2.44-3.71-3.33-1.16-.72-2.34-1.39-3.52-2.06-.24-.13-.52-.2-.79-.24-1.11-.15-2.14-.54-3.16-.99-.39-.17-.78-.36-1.19-.48-4.78-1.36-9.62-1.4-14.48-.48-3.78,.72-7.05,2.4-9.74,5.17-.08,.09-.19,.15-.29,.23-.6-.2-1.17-.41-1.75-.57-5.65-1.58-11.38-2.57-17.27-2.13-1.63,.12-3.27,.31-4.89,.56-1.68,.26-3.23,.98-4.67,1.66-.39-.11-.7-.23-1.01-.29-1.14-.21-2.27-.1-3.39,.13-1.01,.2-1.99,.5-2.98,.76-.16-.26-.3-.53-.49-.76-1.64-1.91-3.66-3.28-6.12-3.84-3.18-.72-6.41-.8-9.64-.29-3.1,.49-5.91,1.69-8.43,3.55-2.08,1.53-4.08,3.16-5.93,4.95-.79,.77-1.53,1.62-2.17,2.52-1.57,2.22-2.74,4.65-3.72,7.18-.69,1.8-1.09,3.67-1.37,5.58-.39,2.63-.54,5.28-.62,7.93-.06,1.97-.22,3.95-.07,5.91,.26,3.5,.68,6.99,1.09,10.47,.38,3.14,.68,6.28,.67,9.44,0,1.58-.3,3.11-.83,4.6-.6,1.68-1.44,3.23-2.36,4.74-1.72,2.81-3.81,5.28-6.39,7.33-.8,.64-1.65,1.13-2.74,1.29-3.71,.54-6.44,2.48-7.99,5.96-.07,.16-.16,.32-.24,.47-1.39,2.49-1.88,5.12-1.29,7.95,.27,1.28,.8,2.37,1.67,3.31,.24,.26,.48,.52,.71,.79,.83,1.01,1.73,1.99,2.47,3.06,1.05,1.52,.92,2.95-.22,4.4-.19,.24-.37,.48-.55,.73-.06,.08-.15,.16-.16,.25-.03,.16-.07,.38,0,.49,.11,.13,.33,.24,.5,.23,.19,0,.39-.11,.55-.23,.46-.35,.97-.67,1.33-1.11,.87-1.06,1.96-1.89,2.92-2.86,.19-.2,.39-.39,.57-.6,1.25-1.46,1.33-2.74,.24-4.34-.5-.73-1.05-1.42-1.6-2.11-.84-1.05-1.65-2.1-2.39-3.23-.46-.7-.56-1.43-.68-2.2-.13-.88,.27-1.44,1.02-1.81,.16-.08,.32-.16,.49-.21,1.01-.31,2.02-.64,3.04-.93,1.8-.51,3.61-1.02,5.17-2.09,2.25-1.54,4.45-3.15,6.49-4.98,.37-.33,.73-.71,.99-1.14,.21-.35,.46-.49,.81-.57,3.73-.82,7.35-2,10.91-3.37,3.82-1.47,7.14-3.66,9.61-6.99,.39-.52,.91-.85,1.45-1.11,.67,.39,1.29,.78,1.94,1.12,.34,.18,.54,.41,.69,.76,.57,1.35,1.15,2.69,1.73,4.04,.09,.21,.19,.42,.31,.6,.17,.25,.4,.38,.72,.26,.31-.12,.42-.37,.36-.67-.06-.32-.16-.63-.27-.94-.33-.94-.54-1.91-.79-2.97,3.38,.73,6.71,.97,10.03,1.21,3.31,.23,6.64,.31,10.12,.46-1.09,.55-1.35,1.46-1.53,2.42-.08,.42-.1,.85-.14,1.28-.03,.3-.04,.61-.11,.9-.13,.54-.4,.71-.97,.71-.22,0-.45,.01-.64,.11-1.02,.5-2.02,1.02-3.04,1.53-.26,.13-.5,.14-.79,.05-2.32-.71-4.64-1.4-6.97-2.07-.67-.19-1.38-.35-2.07-.38-.82-.03-1.65,.67-1.81,1.36q-.2,.87-1.09,.74c-.08-.01-.15-.02-.22-.04-1.41-.35-2.52,.13-3.43,1.21-1.02,1.22-1.59,2.62-1.81,4.18-.12,.81,.06,1.48,.69,2.05,.43,.38,.78,.85,1.16,1.29,.41,.46,.36,.95,.09,1.47-.36,.69-.67,1.41-1.03,2.11-.59,1.18-.92,2.4-.7,3.73,.17,1.06,.41,2.09,1.11,2.94,.55,.68,1.24,1.02,2.14,.79,.32-.08,.63-.18,.95-.26,1.11-.28,1.45,.03,1.34,1.16-.07,.7-.13,1.41-.09,2.11,.03,.48-.03,.89-.28,1.29-1.18,1.91-2.28,3.88-3.54,5.74-1.79,2.63-3.7,5.18-5.57,7.76-.07,.1-.16,.2-.25,.28-.53,.46-1.11,.87-1.6,1.37-1.6,1.62-3.44,2.89-5.5,3.85-3.16,1.48-6.33,2.92-9.48,4.4-.78,.36-1.52,.79-2.28,1.19-.45,.24-.66,.64-.62,1.13,.09,1.06,.17,2.11,.32,3.16,.1,.68,.33,.89,1.02,.87,.8-.03,1.61-.14,2.39-.31,1.62-.37,3.08-1.11,4.5-1.94,.4-.24,.8-.48,1.2-.71,.03,.05,.06,.09,.09,.14-.23,.16-.46,.34-.7,.49-.71,.43-1.44,.83-2.15,1.28-.98,.62-1.95,1.26-2.91,1.91-.61,.41-.73,1.02-.51,1.68,.16,.47,.41,.91,.57,1.27,1.35,.31,2.46-.07,3.52-.64,.16-.08,.31-.16,.47-.25,1.67-.95,3.41-1.75,5.19-2.47,.93-.37,1.85-.65,2.87-.55,.27,.03,.55-.04,.85-.06,.08,.1,.21,.21,.26,.34,.35,1.1,.92,2.12,1.06,3.3,.06,.55,.17,1.1,.32,1.63,.29,1.02,1,1.31,1.91,.76,.49-.3,.95-.67,1.37-1.06,.23-.21,.41-.52,.5-.82,.19-.63,.33-1.27,.45-1.92,.37-1.96,.76-3.92,1.08-5.89,.39-2.46,1.21-4.74,2.52-6.85,.09-.15,.18-.32,.31-.42,1.05-.74,1.87-1.78,3.08-2.3,.25-.11,.47-.3,.66-.5,3.11-3,6.37-5.85,8.96-9.35,.25-.34,.56-.63,.84-.94,.71,.62,1.56,3.68,1.61,5.63-.74,.38-.82,.46-.75,1.28,.1,1.08,.25,2.15,.39,3.28-.18,.3-.42,.68-.62,1.08-.53,1.06-1.05,2.13-1.55,3.2-1.96,4.21-3.85,8.46-5.36,12.86-1.19,3.48-2.13,7-2.59,10.65-.04,.32-.13,.64-.2,.96-.08,.34-.18,.67-.23,1.01-.08,.55-.1,1.11-.2,1.65-.11,.59-.25,1.18-.38,1.77h51.24c-.05-.16-.1-.32-.18-.48-.06-.13-.08-.29-.11-.44-.43-2.69-.78-5.4-1.32-8.07-.38-1.87-1.03-3.69-1.55-5.54-.71-2.5-1.42-5-2.12-7.51-1-3.58-2.06-7.14-4.19-10.26-.7-1.03-1.27-2.19-2.57-2.76,.06-.22,.12-.43,.18-.64,.22-.75,.47-1.49,.65-2.25,.24-1.03,.07-1.38-.85-1.96,.17-.38,.35-.77,.51-1.17,.13-.3,.29-.6,.33-.92,.12-.79,.19-1.59,.27-2.34,.39-.17,.71-.31,1.02-.44-.1-.45-.23-.84-.27-1.23-.07-.67,.25-1.01,.91-1.15,.3-.06,.59-.21,.92-.33,.06,.11,.13,.24,.19,.37,.85,1.81,1.7,3.61,2.54,5.42,1.31,2.8,2.93,5.42,4.68,7.96,.89,1.29,1.86,2.51,3.03,3.57,.12,.11,.21,.29,.24,.45,.25,1.31,.46,2.63,.72,3.95,.6,3.1,1.23,6.19,1.84,9.29,.14,.73,.52,1.34,.82,2,.31,.68,.81,1.13,1.56,1.1,1.05-.04,2.04-.33,2.9-.97,.46-.34,.63-.8,.63-1.38,0-2.1,.05-4.19,.09-6.29,0-.08,.06-.16,.12-.28,.22,.23,.4,.41,.57,.6,2.1,2.36,4.74,3.88,7.69,4.95,1.81,.65,3.55,.45,5.3-.17-.16-.62,.31-1.28-.29-1.82,.74,.19,1.45,.37,2.1,.69,.45,.22,.78,.2,1.2-.02,1.11-.59,2.07-1.37,2.88-2.31,.44-.5,.75-1.13,1.04-1.74,.17-.34,.04-.71-.29-.94-.2-.14-.45-.21-.69-.29-.53-.17-1.06-.31-1.58-.47-.43-.14-.85-.32-1.29-.43-2.12-.51-4.18-1.17-6.1-2.21-1.75-.95-3.52-1.87-5.24-2.89-1.54-.91-3.04-1.91-4.28-3.24-.69-.74-1.34-1.49-1.81-2.41-.45-.87-1.03-1.68-1.56-2.51-.11-.17-.23-.36-.4-.45-.37-.2-.51-.54-.67-.88-.97-2.06-1.96-4.1-2.9-6.17-1.75-3.84-3.35-7.74-4.78-11.71-.17-.47-.31-.95-.41-1.23,.25-.58,.49-.97,.58-1.39,.2-.99,.37-1.99,.47-2.99,.11-1.07,.11-2.13-.74-2.98-.12-.12-.18-.37-.16-.54,.04-.35,.11-.7,.24-1.03,.16-.39,.33-.78,.89-.78,.31,0,.49-.29,.36-.61-.43-1.08-.25-2.16,.07-3.19,.28-.9,.57-1.83,1.42-2.43,.32-.22,.37-.94,.11-1.25-.31-.37-.65-.71-.98-1.06-.6-.63-1.28-.75-2.06-.37-.32,.16-.65,.28-.97,.42-.46,.2-.9,.52-1.38,.6-.94,.16-1.78,.55-2.62,.97-2.12,1.06-4.22,2.15-6.36,3.24-.45-.17-.99-.33-1.48-.56-1.37-.65-2.72-1.32-4.08-2-.2-.1-.4-.24-.52-.42-.46-.66-.9-1.33-1.06-2.15-.11-.59-.3-1.17-.44-1.76-.22-.89-.47-1.76-1.48-2.25,.25-.08,.39-.14,.53-.16,1.12-.17,2.25-.33,3.37-.51,3.17-.48,6.33-1.04,9.4-1.99,.87-.27,1.72-.53,2.65-.45,.43,.04,.87-.1,1.34-.16-.01,.16-.01,.26-.03,.35-.15,1.1-.31,2.2-.44,3.3-.06,.47-.19,.96,.17,1.42,.09-.03,.16-.03,.18-.06,1.18-1.32,2.4-2.59,3.06-4.29,.16-.41,.48-.75,.76-1.1,.17-.21,.42-.22,.69-.14,.82,.23,1.53,.59,2.1,1.27,1.82,2.14,4.08,3.76,6.47,5.2,3.28,1.99,6.93,2.88,10.69,3.31,1.98,.23,3.98,.32,5.96,.5,1.09,.1,2.17,.09,3.19,.7,1.21,.73,2.47,1.38,3.57,2.28,1.29,1.06,2.57,2.13,3.81,3.24,1.94,1.75,3.43,3.83,4.3,6.32,.06,.18,.11,.37,.16,.57-1.48,.88-2.76,1.94-3.91,3.16-1.05,1.11-1.97,2.32-2.41,3.81-.51,1.73-.57,3.43,.54,5.01,.25,.35,.4,.76,.64,1.11,.48,.68,.98,1.34,1.5,1.99,.21,.27,.55,.43,.52,.87,0,.14,.22,.33,.38,.43,.26,.15,.55,.26,.83,.36,1.24,.41,2.53,.54,3.81,.54,1.77,0,3.38-.57,4.68-1.84,.16-.16,.33-.32,.44-.51,.34-.56,.05-1.15-.59-1.1Z"/><path d="M726.48,485.19c.73-2.51,2.8-5.21,5.66-5.21s4.92,2.71,5.68,5.21c.37,1.23,2.3,.71,1.93-.53-1.02-3.36-3.83-6.66-7.61-6.68s-6.61,3.3-7.59,6.67c-.36,1.24,1.57,1.77,1.93,.53h0Z"/><path d="M754.01,483.3c.78-2.58,2.96-5.21,5.88-5.21s5.09,2.64,5.89,5.21c.38,1.22,2.31,.7,1.93-.53-1.07-3.42-4-6.66-7.82-6.68s-6.77,3.24-7.81,6.67c-.37,1.24,1.56,1.76,1.93,.53h0Z"/><ellipse class="cls-15" cx="734.71" cy="488.26" rx="4.8" ry="7.02"/><ellipse class="cls-15" cx="763.06" cy="486.38" rx="4.8" ry="7.02"/></g></g><g id="_レイヤー_10"><g><rect x="904.57" y="376.83" width="210" height="210"/><g><path class="cls-46" d="M1045.73,421.6c1.72-.21,3.1,.42,4.04,1.58,1.05,.06,1.94,.08,2.81,.18,2.17,.24,3.73,1.97,3.76,4.11,0,.43-.02,.86,.05,1.28,.05,.26,.2,.61,.41,.72,1.32,.69,1.74,1.96,2.04,3.25,.39,1.73,.48,3.48-.33,5.13-.42,.85-.46,1.71-.24,2.6,.59,2.39-.18,4.35-1.89,6.02-.25,.24-.45,.61-.51,.95-.52,2.81-2.09,4.81-4.65,6.02-.44,.21-.99,.3-1.48,.27-.57-.03-.96,.07-1.3,.56-.82,1.18-1.94,1.9-3.43,1.91-.21,0-.42,.08-.62,.14-1.89,.51-3.64,.33-5.14-1.17-1.26,.54-2.54,.52-3.86,.21-1.63-.39-2.9-1.28-3.76-2.67-.31-.51-.65-.73-1.17-.81-1.52-.22-2.67-1.04-3.67-2.15-.92-1.02-1.55-2.13-1.41-3.57,.07-.66-.11-1.11-.73-1.59-1.21-.92-1.87-2.24-1.46-3.83,.32-1.23,.71-2.44,1.16-3.63,.28-.75,.45-1.41,.06-2.2-1-2.05-1.23-4.24-.99-6.48,.05-.42,.11-.85,.23-1.25,.14-.49,.48-.8,1.03-.8,.51,0,1.03-.06,1.53,.01,2.15,.32,4.3,.62,6.43,1.04,1.2,.24,2-.01,2.72-1.05,1.69-2.4,3.46-4.76,5.28-7.07,.54-.68,1.32-1.19,2.03-1.72,.46-.35,.93-.17,1.21,.28,.44,.72,.84,1.48,1.22,2.24,.23,.45,.4,.93,.62,1.48Zm9.47,15.87c.97-1.29,1.16-2.77,.72-4.31-.25-.88-.8-1.6-1.77-1.88-.16-.05-.32-.12-.47-.21-.44-.24-.57-.53-.31-1.04,.96-1.84-.12-3.59-2.17-3.58-.42,0-.84,.09-1.26,.16-.65,.1-1.3,.21-2.13,.34,.21-.61,.35-1.02,.49-1.43-.37-.4-.71-.69-1.39-.37,.23,.86,.46,1.7,.69,2.55,.41,1.53,.75,3.06-.25,4.57,.33,.17,.57,.29,.84,.42q.4-2.36,1.41-2.52c-.23,1.85,.22,3.54,.98,5.16,.84-.76,1.54-1.45,2.3-2.06,.49-.39,.99-.4,1.39,.29-.29,.22-.55,.37-.74,.58-.74,.83-1.85,1.43-1.7,2.83,.03,.24-.34,.55-.58,.77-1.01,.94-1.29,2.26-.72,3.55q2.6-.32,3.22,.24c-.61,.96-1.71,.54-2.52,.89-.82,.35-1.66,.69-2.58,1.07,.94,.66,2.1,.92,2.17,2.46-1.21-.48-2.02-1.43-3.33-1.33-1.28,.1-2.42,.26-3.27,1.32,.42,.45,.83,.83,1.15,1.27,.23,.32,.28,.75-.11,1.03-.36,.25-.64,0-.86-.29-.63-.83-1.49-1.3-2.49-1.41-.93-.1-1.87-.08-2.81-.07-.22,0-.44,.19-.68,.3,.06,.95,.77,1.95-.47,2.8-.17-.35-.32-.63-.43-.92-.24-.63-.41-1.3-.69-1.91-.5-1.06-1.32-1.71-2.47-1.84-.4,.66-.74,1.21-1.07,1.76-.11-.03-.22-.05-.33-.08-.42-1.46,.57-3.1-.42-4.48-1.56,.65-1.57,.66-3.03-.33-.9-.61-1.78-1.27-2.67-1.91-.02,.02-.07,.04-.08,.07-.75,3.18-.12,3.58,2.22,4.25,.47,.13,.91,.27,.96,1.02-.52,.14-1.06,.28-1.58,.42,.08,2,.92,3.17,2.7,3.56,.98,.21,2.02,.17,3.03,.25,.39,.03,.83-.27,1.23,.2-.47,.41-.9,.78-1.33,1.16,1.91,2.04,3.48,2.22,5.67,.7,.28-.19,.55-.41,.84-.58,.19-.11,.42-.14,.89-.29-.45,.87-.77,1.49-1.16,2.26,.45,.15,.82,.34,1.21,.38,.59,.06,1.19,.01,1.79,.04,1.29,.05,2.21-.58,2.86-1.62,.38-.61,.64-1.3,.97-1.94,.16-.31,.22-.79,.84-.63,.1,.51,.2,1.03,.3,1.53,1.3,.17,1.56,.08,2.53-.92,1.52-1.58,2.2-3.4,1.33-5.65,.3,0,.46-.03,.61,0,.43,.09,.78,.72,1.26,.31,.38-.32,.65-.78,.9-1.22,.19-.33,.33-.71,.37-1.08,.14-1.51,.25-3.03-1.4-3.92-.18-.1-.27-.38-.41-.59,.61-.6,1.18-.06,1.82-.09Zm-7.31-2.82c-.88-.04-1.58-.37-2.21-.94-.28-.25-.74-.33-1.14-.38-1.22-.15-2.46-.18-3.66-.4-.58-.11-.92,0-1.36,.35-.93,.73-1.92,1.38-3.12,2.23-.44,1.07-1.01,2.44-1.56,3.83-.12,.3-.25,.68-.17,.97,.23,.81,.56,1.59,.87,2.41,1.41,0,2.21,.95,3.02,1.99,1.36-.73,2.73-1.11,4.17-.64,.85-.88,1.63-1.76,2.97-1.58,.17,.02,.39-.13,.56-.25,.79-.57,1.57-1.13,1.47-2.3-.03-.32,.06-.72,.24-.98,.91-1.37,.61-2.72,.05-4.09-.02-.04-.04-.07-.12-.21Zm-15.35-4.67c-2.08-1.06-4.26-.47-6.46-.77,0,.48-.06,.79,0,1.06,.37,1.53,.67,3.08,1.18,4.56,.58,1.69,1.59,3.17,2.86,4.45,.78,.79,1.22,.72,1.72-.27,.35-.68,.63-1.42,1.09-2.02,.8-1.04,1.16-2.24,1.53-3.51-1.37-.8-1.72-2.15-1.92-3.51Zm7.7-.1h5.49c.04-.21,.1-.35,.08-.46-.47-1.85-.86-3.74-1.47-5.55-.37-1.1-1-2.16-2.32-2.53-1.63,1.57-3.05,3.23-3.92,5.1,.74,1.19,1.4,2.26,2.14,3.44Zm-3.38-1.47c-.62,.29-1.08,.5-1.53,.72-.39,.19-.58,.52-.44,.94,.21,.67,.47,1.32,.78,2.18,.86-.57,1.53-1.02,2.23-1.48-.37-.84-.67-1.53-1.03-2.35Z"/><g><g><circle class="cls-17" cx="1041.19" cy="437.98" r="28.07"/><line class="cls-16" x1="1020.37" y1="419.15" x2="1061.86" y2="456.97"/></g><polygon class="cls-13" points="1085.97 466.05 1085.97 399.84 996.08 399.84 996.08 476.11 1085.97 476.11 1098.81 476.11 1085.97 466.05"/></g></g><g><path class="cls-47" d="M973.49,510.28c-1.72-.21-3.1,.42-4.04,1.58-1.05,.06-1.94,.08-2.81,.18-2.17,.24-3.73,1.97-3.76,4.11,0,.43,.02,.86-.05,1.28-.05,.26-.2,.61-.41,.72-1.32,.69-1.74,1.96-2.04,3.25-.39,1.73-.48,3.48,.33,5.13,.42,.85,.46,1.71,.24,2.6-.59,2.39,.18,4.35,1.89,6.02,.25,.24,.45,.61,.51,.95,.52,2.81,2.09,4.81,4.65,6.02,.44,.21,.99,.3,1.48,.27,.57-.03,.96,.07,1.3,.56,.82,1.18,1.94,1.9,3.43,1.91,.21,0,.42,.08,.62,.14,1.89,.51,3.64,.33,5.14-1.17,1.26,.54,2.54,.52,3.86,.21,1.63-.39,2.9-1.28,3.76-2.67,.31-.51,.65-.73,1.17-.81,1.52-.22,2.67-1.04,3.67-2.15,.92-1.02,1.55-2.13,1.41-3.57-.07-.66,.11-1.11,.73-1.59,1.21-.92,1.87-2.24,1.46-3.83-.32-1.23-.71-2.44-1.16-3.63-.28-.75-.45-1.41-.06-2.2,1-2.05,1.23-4.24,.99-6.48-.05-.42-.11-.85-.23-1.25-.14-.49-.48-.8-1.03-.8-.51,0-1.03-.06-1.53,.01-2.15,.32-4.3,.62-6.43,1.04-1.2,.24-2-.01-2.72-1.05-1.69-2.4-3.46-4.76-5.28-7.07-.54-.68-1.32-1.19-2.03-1.72-.46-.35-.93-.17-1.21,.28-.44,.72-.84,1.48-1.22,2.24-.23,.45-.4,.93-.62,1.48Zm-9.47,15.87c-.97-1.29-1.16-2.77-.72-4.31,.25-.88,.8-1.6,1.77-1.88,.16-.05,.32-.12,.47-.21,.44-.24,.57-.53,.31-1.04-.96-1.84,.12-3.59,2.17-3.58,.42,0,.84,.09,1.26,.16,.65,.1,1.3,.21,2.13,.34-.21-.61-.35-1.02-.49-1.43,.37-.4,.71-.69,1.39-.37-.23,.86-.46,1.7-.69,2.55-.41,1.53-.75,3.06,.25,4.57-.33,.17-.57,.29-.84,.42q-.4-2.36-1.41-2.52c.23,1.85-.22,3.54-.98,5.16-.84-.76-1.54-1.45-2.3-2.06-.49-.39-.99-.4-1.39,.29,.29,.22,.55,.37,.74,.58,.74,.83,1.85,1.43,1.7,2.83-.03,.24,.34,.55,.58,.77,1.01,.94,1.29,2.26,.72,3.55q-2.6-.32-3.22,.24c.61,.96,1.71,.54,2.52,.89,.82,.35,1.66,.69,2.58,1.07-.94,.66-2.1,.92-2.17,2.46,1.21-.48,2.02-1.43,3.33-1.33,1.28,.1,2.42,.26,3.27,1.32-.42,.45-.83,.83-1.15,1.27-.23,.32-.28,.75,.11,1.03,.36,.25,.64,0,.86-.29,.63-.83,1.49-1.3,2.49-1.41,.93-.1,1.87-.08,2.81-.07,.22,0,.44,.19,.68,.3-.06,.95-.77,1.95,.47,2.8,.17-.35,.32-.63,.43-.92,.24-.63,.41-1.3,.69-1.91,.5-1.06,1.32-1.71,2.47-1.84,.4,.66,.74,1.21,1.07,1.76,.11-.03,.22-.05,.33-.08,.42-1.46-.57-3.1,.42-4.48,1.56,.65,1.57,.66,3.03-.33,.9-.61,1.78-1.27,2.67-1.91,.02,.02,.07,.04,.08,.07,.75,3.18,.12,3.58-2.22,4.25-.47,.13-.91,.27-.96,1.02,.52,.14,1.06,.28,1.58,.42-.08,2-.92,3.17-2.7,3.56-.98,.21-2.02,.17-3.03,.25-.39,.03-.83-.27-1.23,.2,.47,.41,.9,.78,1.33,1.16-1.91,2.04-3.48,2.22-5.67,.7-.28-.19-.55-.41-.84-.58-.19-.11-.42-.14-.89-.29,.45,.87,.77,1.49,1.16,2.26-.45,.15-.82,.34-1.21,.38-.59,.06-1.19,.01-1.79,.04-1.29,.05-2.21-.58-2.86-1.62-.38-.61-.64-1.3-.97-1.94-.16-.31-.22-.79-.84-.63-.1,.51-.2,1.03-.3,1.53-1.3,.17-1.56,.08-2.53-.92-1.52-1.58-2.2-3.4-1.33-5.65-.3,0-.46-.03-.61,0-.43,.09-.78,.72-1.26,.31-.38-.32-.65-.78-.9-1.22-.19-.33-.33-.71-.37-1.08-.14-1.51-.25-3.03,1.4-3.92,.18-.1,.27-.38,.41-.59-.61-.6-1.18-.06-1.82-.09Zm7.31-2.82c.88-.04,1.58-.37,2.21-.94,.28-.25,.74-.33,1.14-.38,1.22-.15,2.46-.18,3.66-.4,.58-.11,.92,0,1.36,.35,.93,.73,1.92,1.38,3.12,2.23,.44,1.07,1.01,2.44,1.56,3.83,.12,.3,.25,.68,.17,.97-.23,.81-.56,1.59-.87,2.41-1.41,0-2.21,.95-3.02,1.99-1.36-.73-2.73-1.11-4.17-.64-.85-.88-1.63-1.76-2.97-1.58-.17,.02-.39-.13-.56-.25-.79-.57-1.57-1.13-1.47-2.3,.03-.32-.06-.72-.24-.98-.91-1.37-.61-2.72-.05-4.09,.02-.04,.04-.07,.12-.21Zm15.35-4.67c2.08-1.06,4.26-.47,6.46-.77,0,.48,.06,.79,0,1.06-.37,1.53-.67,3.08-1.18,4.56-.58,1.69-1.59,3.17-2.86,4.45-.78,.79-1.22,.72-1.72-.27-.35-.68-.63-1.42-1.09-2.02-.8-1.04-1.16-2.24-1.53-3.51,1.37-.8,1.72-2.15,1.92-3.51Zm-7.7-.1h-5.49c-.04-.21-.1-.35-.08-.46,.47-1.85,.86-3.74,1.47-5.55,.37-1.1,1-2.16,2.32-2.53,1.63,1.57,3.05,3.23,3.92,5.1-.74,1.19-1.4,2.26-2.14,3.44Zm3.38-1.47c.62,.29,1.08,.5,1.53,.72,.39,.19,.58,.52,.44,.94-.21,.67-.47,1.32-.78,2.18-.86-.57-1.53-1.02-2.23-1.48,.37-.84,.67-1.53,1.03-2.35Z"/><circle class="cls-18" cx="977.95" cy="525.68" r="28.07"/><polygon class="cls-14" points="933.17 553.76 933.17 487.55 1023.06 487.55 1023.06 563.82 933.17 563.82 920.33 563.82 933.17 553.76"/></g></g></g><g id="_レイヤー_8"><text class="cls-48" transform="translate(78.72 365.16)"><tspan x="0" y="0">▲外見</tspan><tspan class="cls-144" x="54" y="0">に</tspan><tspan x="71.82" y="0">関</tspan><tspan class="cls-117" x="89.82" y="0">す</tspan><tspan class="cls-90" x="106.2" y="0">る</tspan><tspan class="cls-84" x="122.22" y="0">こ</tspan><tspan class="cls-112" x="137.16" y="0">と</tspan><tspan class="cls-23" x="153.36" y="0">を</tspan><tspan x="171" y="0">突然</tspan><tspan class="cls-117" x="207" y="0">言う</tspan></text><text class="cls-48" transform="translate(78.72 617.65)"><tspan x="0" y="0">▲聴覚</tspan><tspan class="cls-30" x="54" y="0">な</tspan><tspan class="cls-52" x="70.56" y="0">ど</tspan><tspan x="87.48" y="0">が敏感</tspan></text><text class="cls-48" transform="translate(354.54 617.65)"><tspan x="0" y="0">▲曖昧な表現が苦手</tspan></text><text class="cls-48" transform="translate(630.88 617.65)"><tspan x="0" y="0">▲</tspan><tspan class="cls-31" x="18" y="0">話を</tspan><tspan class="cls-30" x="53.28" y="0">聞</tspan><tspan class="cls-2" x="69.84" y="0">く</tspan><tspan x="84.6" y="0">態</tspan><tspan class="cls-31" x="102.6" y="0">度</tspan><tspan class="cls-112" x="120.24" y="0">を</tspan><tspan class="cls-54" x="136.44" y="0">と</tspan><tspan class="cls-26" x="151.92" y="0">る</tspan><tspan x="169.2" y="0">事が苦手</tspan></text><text class="cls-48" transform="translate(911.58 617.65)"><tspan class="cls-156" x="0" y="0">▲</tspan><tspan class="cls-122" x="16.74" y="0">こ</tspan><tspan class="cls-144" x="33.12" y="0">だ</tspan><tspan class="cls-90" x="50.94" y="0">わり</tspan><tspan x="82.98" y="0">が強い</tspan></text><text class="cls-48" transform="translate(354 365.16)"><tspan class="cls-31" x="0" y="0">▲</tspan><tspan class="cls-41" x="17.64" y="0">テ</tspan><tspan class="cls-31" x="35.1" y="0">ー</tspan><tspan class="cls-33" x="52.74" y="0">マと</tspan><tspan x="85.86" y="0">関係ない</tspan><tspan class="cls-31" x="157.86" y="0">話を</tspan><tspan class="cls-117" x="193.14" y="0">す</tspan><tspan class="cls-26" x="209.52" y="0">る</tspan></text></g></svg>